<svg version="1.1" xmlns="http://www.w3.org/2000/svg" xmlns:xlink="http://www.w3.org/1999/xlink" width="673.5361328125" height="605"><defs/><g><text fill="#eeeeee" stroke="none" font-family="Arial" font-size="24px" font-style="normal" font-weight="normal" text-decoration="none" x="0" y="0">UNREGISTERED</text><text fill="#eeeeee" stroke="none" font-family="Arial" font-size="24px" font-style="normal" font-weight="normal" text-decoration="none" x="0" y="30">UNREGISTERED</text><text fill="#eeeeee" stroke="none" font-family="Arial" font-size="24px" font-style="normal" font-weight="normal" text-decoration="none" x="0" y="60">UNREGISTERED</text><text fill="#eeeeee" stroke="none" font-family="Arial" font-size="24px" font-style="normal" font-weight="normal" text-decoration="none" x="0" y="90">UNREGISTERED</text><text fill="#eeeeee" stroke="none" font-family="Arial" font-size="24px" font-style="normal" font-weight="normal" text-decoration="none" x="0" y="120">UNREGISTERED</text><text fill="#eeeeee" stroke="none" font-family="Arial" font-size="24px" font-style="normal" font-weight="normal" text-decoration="none" x="0" y="150">UNREGISTERED</text><text fill="#eeeeee" stroke="none" font-family="Arial" font-size="24px" font-style="normal" font-weight="normal" text-decoration="none" x="0" y="180">UNREGISTERED</text><text fill="#eeeeee" stroke="none" font-family="Arial" font-size="24px" font-style="normal" font-weight="normal" text-decoration="none" x="0" y="210">UNREGISTERED</text><text fill="#eeeeee" stroke="none" font-family="Arial" font-size="24px" font-style="normal" font-weight="normal" text-decoration="none" x="0" y="240">UNREGISTERED</text><text fill="#eeeeee" stroke="none" font-family="Arial" font-size="24px" font-style="normal" font-weight="normal" text-decoration="none" x="0" y="270">UNREGISTERED</text><text fill="#eeeeee" stroke="none" font-family="Arial" font-size="24px" font-style="normal" font-weight="normal" text-decoration="none" x="0" y="300">UNREGISTERED</text><text fill="#eeeeee" stroke="none" font-family="Arial" font-size="24px" font-style="normal" font-weight="normal" text-decoration="none" x="0" y="330">UNREGISTERED</text><text fill="#eeeeee" stroke="none" font-family="Arial" font-size="24px" font-style="normal" font-weight="normal" text-decoration="none" x="0" y="360">UNREGISTERED</text><text fill="#eeeeee" stroke="none" font-family="Arial" font-size="24px" font-style="normal" font-weight="normal" text-decoration="none" x="0" y="390">UNREGISTERED</text><text fill="#eeeeee" stroke="none" font-family="Arial" font-size="24px" font-style="normal" font-weight="normal" text-decoration="none" x="0" y="420">UNREGISTERED</text><text fill="#eeeeee" stroke="none" font-family="Arial" font-size="24px" font-style="normal" font-weight="normal" text-decoration="none" x="0" y="450">UNREGISTERED</text><text fill="#eeeeee" stroke="none" font-family="Arial" font-size="24px" font-style="normal" font-weight="normal" text-decoration="none" x="0" y="480">UNREGISTERED</text><text fill="#eeeeee" stroke="none" font-family="Arial" font-size="24px" font-style="normal" font-weight="normal" text-decoration="none" x="0" y="510">UNREGISTERED</text><text fill="#eeeeee" stroke="none" font-family="Arial" font-size="24px" font-style="normal" font-weight="normal" text-decoration="none" x="0" y="540">UNREGISTERED</text><text fill="#eeeeee" stroke="none" font-family="Arial" font-size="24px" font-style="normal" font-weight="normal" text-decoration="none" x="0" y="570">UNREGISTERED</text><text fill="#eeeeee" stroke="none" font-family="Arial" font-size="24px" font-style="normal" font-weight="normal" text-decoration="none" x="0" y="600">UNREGISTERED</text><text fill="#eeeeee" stroke="none" font-family="Arial" font-size="24px" font-style="normal" font-weight="normal" text-decoration="none" x="200" y="0">UNREGISTERED</text><text fill="#eeeeee" stroke="none" font-family="Arial" font-size="24px" font-style="normal" font-weight="normal" text-decoration="none" x="200" y="30">UNREGISTERED</text><text fill="#eeeeee" stroke="none" font-family="Arial" font-size="24px" font-style="normal" font-weight="normal" text-decoration="none" x="200" y="60">UNREGISTERED</text><text fill="#eeeeee" stroke="none" font-family="Arial" font-size="24px" font-style="normal" font-weight="normal" text-decoration="none" x="200" y="90">UNREGISTERED</text><text fill="#eeeeee" stroke="none" font-family="Arial" font-size="24px" font-style="normal" font-weight="normal" text-decoration="none" x="200" y="120">UNREGISTERED</text><text fill="#eeeeee" stroke="none" font-family="Arial" font-size="24px" font-style="normal" font-weight="normal" text-decoration="none" x="200" y="150">UNREGISTERED</text><text fill="#eeeeee" stroke="none" font-family="Arial" font-size="24px" font-style="normal" font-weight="normal" text-decoration="none" x="200" y="180">UNREGISTERED</text><text fill="#eeeeee" stroke="none" font-family="Arial" font-size="24px" font-style="normal" font-weight="normal" text-decoration="none" x="200" y="210">UNREGISTERED</text><text fill="#eeeeee" stroke="none" font-family="Arial" font-size="24px" font-style="normal" font-weight="normal" text-decoration="none" x="200" y="240">UNREGISTERED</text><text fill="#eeeeee" stroke="none" font-family="Arial" font-size="24px" font-style="normal" font-weight="normal" text-decoration="none" x="200" y="270">UNREGISTERED</text><text fill="#eeeeee" stroke="none" font-family="Arial" font-size="24px" font-style="normal" font-weight="normal" text-decoration="none" x="200" y="300">UNREGISTERED</text><text fill="#eeeeee" stroke="none" font-family="Arial" font-size="24px" font-style="normal" font-weight="normal" text-decoration="none" x="200" y="330">UNREGISTERED</text><text fill="#eeeeee" stroke="none" font-family="Arial" font-size="24px" font-style="normal" font-weight="normal" text-decoration="none" x="200" y="360">UNREGISTERED</text><text fill="#eeeeee" stroke="none" font-family="Arial" font-size="24px" font-style="normal" font-weight="normal" text-decoration="none" x="200" y="390">UNREGISTERED</text><text fill="#eeeeee" stroke="none" font-family="Arial" font-size="24px" font-style="normal" font-weight="normal" text-decoration="none" x="200" y="420">UNREGISTERED</text><text fill="#eeeeee" stroke="none" font-family="Arial" font-size="24px" font-style="normal" font-weight="normal" text-decoration="none" x="200" y="450">UNREGISTERED</text><text fill="#eeeeee" stroke="none" font-family="Arial" font-size="24px" font-style="normal" font-weight="normal" text-decoration="none" x="200" y="480">UNREGISTERED</text><text fill="#eeeeee" stroke="none" font-family="Arial" font-size="24px" font-style="normal" font-weight="normal" text-decoration="none" x="200" y="510">UNREGISTERED</text><text fill="#eeeeee" stroke="none" font-family="Arial" font-size="24px" font-style="normal" font-weight="normal" text-decoration="none" x="200" y="540">UNREGISTERED</text><text fill="#eeeeee" stroke="none" font-family="Arial" font-size="24px" font-style="normal" font-weight="normal" text-decoration="none" x="200" y="570">UNREGISTERED</text><text fill="#eeeeee" stroke="none" font-family="Arial" font-size="24px" font-style="normal" font-weight="normal" text-decoration="none" x="200" y="600">UNREGISTERED</text><text fill="#eeeeee" stroke="none" font-family="Arial" font-size="24px" font-style="normal" font-weight="normal" text-decoration="none" x="400" y="0">UNREGISTERED</text><text fill="#eeeeee" stroke="none" font-family="Arial" font-size="24px" font-style="normal" font-weight="normal" text-decoration="none" x="400" y="30">UNREGISTERED</text><text fill="#eeeeee" stroke="none" font-family="Arial" font-size="24px" font-style="normal" font-weight="normal" text-decoration="none" x="400" y="60">UNREGISTERED</text><text fill="#eeeeee" stroke="none" font-family="Arial" font-size="24px" font-style="normal" font-weight="normal" text-decoration="none" x="400" y="90">UNREGISTERED</text><text fill="#eeeeee" stroke="none" font-family="Arial" font-size="24px" font-style="normal" font-weight="normal" text-decoration="none" x="400" y="120">UNREGISTERED</text><text fill="#eeeeee" stroke="none" font-family="Arial" font-size="24px" font-style="normal" font-weight="normal" text-decoration="none" x="400" y="150">UNREGISTERED</text><text fill="#eeeeee" stroke="none" font-family="Arial" font-size="24px" font-style="normal" font-weight="normal" text-decoration="none" x="400" y="180">UNREGISTERED</text><text fill="#eeeeee" stroke="none" font-family="Arial" font-size="24px" font-style="normal" font-weight="normal" text-decoration="none" x="400" y="210">UNREGISTERED</text><text fill="#eeeeee" stroke="none" font-family="Arial" font-size="24px" font-style="normal" font-weight="normal" text-decoration="none" x="400" y="240">UNREGISTERED</text><text fill="#eeeeee" stroke="none" font-family="Arial" font-size="24px" font-style="normal" font-weight="normal" text-decoration="none" x="400" y="270">UNREGISTERED</text><text fill="#eeeeee" stroke="none" font-family="Arial" font-size="24px" font-style="normal" font-weight="normal" text-decoration="none" x="400" y="300">UNREGISTERED</text><text fill="#eeeeee" stroke="none" font-family="Arial" font-size="24px" font-style="normal" font-weight="normal" text-decoration="none" x="400" y="330">UNREGISTERED</text><text fill="#eeeeee" stroke="none" font-family="Arial" font-size="24px" font-style="normal" font-weight="normal" text-decoration="none" x="400" y="360">UNREGISTERED</text><text fill="#eeeeee" stroke="none" font-family="Arial" font-size="24px" font-style="normal" font-weight="normal" text-decoration="none" x="400" y="390">UNREGISTERED</text><text fill="#eeeeee" stroke="none" font-family="Arial" font-size="24px" font-style="normal" font-weight="normal" text-decoration="none" x="400" y="420">UNREGISTERED</text><text fill="#eeeeee" stroke="none" font-family="Arial" font-size="24px" font-style="normal" font-weight="normal" text-decoration="none" x="400" y="450">UNREGISTERED</text><text fill="#eeeeee" stroke="none" font-family="Arial" font-size="24px" font-style="normal" font-weight="normal" text-decoration="none" x="400" y="480">UNREGISTERED</text><text fill="#eeeeee" stroke="none" font-family="Arial" font-size="24px" font-style="normal" font-weight="normal" text-decoration="none" x="400" y="510">UNREGISTERED</text><text fill="#eeeeee" stroke="none" font-family="Arial" font-size="24px" font-style="normal" font-weight="normal" text-decoration="none" x="400" y="540">UNREGISTERED</text><text fill="#eeeeee" stroke="none" font-family="Arial" font-size="24px" font-style="normal" font-weight="normal" text-decoration="none" x="400" y="570">UNREGISTERED</text><text fill="#eeeeee" stroke="none" font-family="Arial" font-size="24px" font-style="normal" font-weight="normal" text-decoration="none" x="400" y="600">UNREGISTERED</text><text fill="#eeeeee" stroke="none" font-family="Arial" font-size="24px" font-style="normal" font-weight="normal" text-decoration="none" x="600" y="0">UNREGISTERED</text><text fill="#eeeeee" stroke="none" font-family="Arial" font-size="24px" font-style="normal" font-weight="normal" text-decoration="none" x="600" y="30">UNREGISTERED</text><text fill="#eeeeee" stroke="none" font-family="Arial" font-size="24px" font-style="normal" font-weight="normal" text-decoration="none" x="600" y="60">UNREGISTERED</text><text fill="#eeeeee" stroke="none" font-family="Arial" font-size="24px" font-style="normal" font-weight="normal" text-decoration="none" x="600" y="90">UNREGISTERED</text><text fill="#eeeeee" stroke="none" font-family="Arial" font-size="24px" font-style="normal" font-weight="normal" text-decoration="none" x="600" y="120">UNREGISTERED</text><text fill="#eeeeee" stroke="none" font-family="Arial" font-size="24px" font-style="normal" font-weight="normal" text-decoration="none" x="600" y="150">UNREGISTERED</text><text fill="#eeeeee" stroke="none" font-family="Arial" font-size="24px" font-style="normal" font-weight="normal" text-decoration="none" x="600" y="180">UNREGISTERED</text><text fill="#eeeeee" stroke="none" font-family="Arial" font-size="24px" font-style="normal" font-weight="normal" text-decoration="none" x="600" y="210">UNREGISTERED</text><text fill="#eeeeee" stroke="none" font-family="Arial" font-size="24px" font-style="normal" font-weight="normal" text-decoration="none" x="600" y="240">UNREGISTERED</text><text fill="#eeeeee" stroke="none" font-family="Arial" font-size="24px" font-style="normal" font-weight="normal" text-decoration="none" x="600" y="270">UNREGISTERED</text><text fill="#eeeeee" stroke="none" font-family="Arial" font-size="24px" font-style="normal" font-weight="normal" text-decoration="none" x="600" y="300">UNREGISTERED</text><text fill="#eeeeee" stroke="none" font-family="Arial" font-size="24px" font-style="normal" font-weight="normal" text-decoration="none" x="600" y="330">UNREGISTERED</text><text fill="#eeeeee" stroke="none" font-family="Arial" font-size="24px" font-style="normal" font-weight="normal" text-decoration="none" x="600" y="360">UNREGISTERED</text><text fill="#eeeeee" stroke="none" font-family="Arial" font-size="24px" font-style="normal" font-weight="normal" text-decoration="none" x="600" y="390">UNREGISTERED</text><text fill="#eeeeee" stroke="none" font-family="Arial" font-size="24px" font-style="normal" font-weight="normal" text-decoration="none" x="600" y="420">UNREGISTERED</text><text fill="#eeeeee" stroke="none" font-family="Arial" font-size="24px" font-style="normal" font-weight="normal" text-decoration="none" x="600" y="450">UNREGISTERED</text><text fill="#eeeeee" stroke="none" font-family="Arial" font-size="24px" font-style="normal" font-weight="normal" text-decoration="none" x="600" y="480">UNREGISTERED</text><text fill="#eeeeee" stroke="none" font-family="Arial" font-size="24px" font-style="normal" font-weight="normal" text-decoration="none" x="600" y="510">UNREGISTERED</text><text fill="#eeeeee" stroke="none" font-family="Arial" font-size="24px" font-style="normal" font-weight="normal" text-decoration="none" x="600" y="540">UNREGISTERED</text><text fill="#eeeeee" stroke="none" font-family="Arial" font-size="24px" font-style="normal" font-weight="normal" text-decoration="none" x="600" y="570">UNREGISTERED</text><text fill="#eeeeee" stroke="none" font-family="Arial" font-size="24px" font-style="normal" font-weight="normal" text-decoration="none" x="600" y="600">UNREGISTERED</text><g transform="translate(-45,-6) scale(1,1)"><g><path fill="none" stroke="none"/><text fill="#000000" stroke="none" font-family="Arial" font-size="13px" font-style="normal" font-weight="normal" text-decoration="none" x="117" y="34">Diagramme d'états pour exemplaire (cycle de vie)</text></g></g><g transform="translate(-45,-6) scale(1,1)"><path fill="#C0C0C0" stroke="none" d="M 175 88.5 C 175 83.2532944 179.2532944 79 184.5 79 C 189.7467056 79 194 83.2532944 194 88.5 C 194 93.7467056 189.7467056 98 184.5 98 C 179.2532944 98 175 93.7467056 175 88.5 Z" opacity="0.2"/></g><g transform="translate(-45,-6) scale(1,1)"><path fill="#000000" stroke="none" d="M 168 81.5 C 168 76.2532944 172.2532944 72 177.5 72 C 182.7467056 72 187 76.2532944 187 81.5 C 187 86.7467056 182.7467056 91 177.5 91 C 172.2532944 91 168 86.7467056 168 81.5 Z"/></g><g transform="translate(-45,-6) scale(1,1)"><path fill="#C0C0C0" stroke="none" d="M 415 595.5 C 415 588.59644 420.59644 583 427.5 583 C 434.40356 583 440 588.59644 440 595.5 C 440 602.40356 434.40356 608 427.5 608 C 420.59644 608 415 602.40356 415 595.5 Z" opacity="0.2"/></g><g transform="translate(-45,-6) scale(1,1)"><path fill="none" stroke="#000000" d="M 408 588.5 C 408 581.59644 413.59644 576 420.5 576 C 427.40356 576 433 581.59644 433 588.5 C 433 595.40356 427.40356 601 420.5 601 C 413.59644 601 408 595.40356 408 588.5 Z" stroke-miterlimit="10"/></g><g transform="translate(-45,-6) scale(1,1)"><path fill="#000000" stroke="none" d="M 413 588.5 C 413 584.357864 416.357864 581 420.5 581 C 424.642136 581 428 584.357864 428 588.5 C 428 592.642136 424.642136 596 420.5 596 C 416.357864 596 413 592.642136 413 588.5 Z"/></g><g transform="translate(-45,-6) scale(1,1)"><path fill="#C0C0C0" stroke="none" d="M 265 135 L 376.79541015625 135 Q 386.79541015625 135 386.79541015625 145 L 386.79541015625 164 Q 386.79541015625 174 376.79541015625 174 L 265 174 Q 255 174 255 164 L 255 145 Q 255 135 265 135 Z" opacity="0.2"/></g><g transform="translate(-45,-6) scale(1,1)"><path fill="#ffffff" stroke="none" d="M 258 128 L 369.79541015625 128 Q 379.79541015625 128 379.79541015625 138 L 379.79541015625 157 Q 379.79541015625 167 369.79541015625 167 L 258 167 Q 248 167 248 157 L 248 138 Q 248 128 258 128 Z"/></g><g transform="translate(-45,-6) scale(1,1)"><path fill="none" stroke="#000000" d="M 258 128 L 369.79541015625 128 Q 379.79541015625 128 379.79541015625 138 L 379.79541015625 157 Q 379.79541015625 167 369.79541015625 167 L 258 167 Q 248 167 248 157 L 248 138 Q 248 128 258 128 Z" stroke-miterlimit="10"/></g><g transform="translate(-45,-6) scale(1,1)"><g><path fill="none" stroke="none"/><text fill="#000000" stroke="none" font-family="Arial" font-size="13px" font-style="normal" font-weight="bold" text-decoration="none" x="257.524169921875" y="147.5">disponible en rayon</text></g></g><g transform="translate(-45,-6) scale(1,1)"><path fill="#C0C0C0" stroke="none" d="M 457 207 L 578.9072265625 207 Q 588.9072265625 207 588.9072265625 217 L 588.9072265625 236 Q 588.9072265625 246 578.9072265625 246 L 457 246 Q 447 246 447 236 L 447 217 Q 447 207 457 207 Z" opacity="0.2"/></g><g transform="translate(-45,-6) scale(1,1)"><path fill="#ffffff" stroke="none" d="M 450 200 L 571.9072265625 200 Q 581.9072265625 200 581.9072265625 210 L 581.9072265625 229 Q 581.9072265625 239 571.9072265625 239 L 450 239 Q 440 239 440 229 L 440 210 Q 440 200 450 200 Z"/></g><g transform="translate(-45,-6) scale(1,1)"><path fill="none" stroke="#000000" d="M 450 200 L 571.9072265625 200 Q 581.9072265625 200 581.9072265625 210 L 581.9072265625 229 Q 581.9072265625 239 571.9072265625 239 L 450 239 Q 440 239 440 229 L 440 210 Q 440 200 450 200 Z" stroke-miterlimit="10"/></g><g transform="translate(-45,-6) scale(1,1)"><g><path fill="none" stroke="none"/><text fill="#000000" stroke="none" font-family="Arial" font-size="13px" font-style="normal" font-weight="bold" text-decoration="none" x="483.49365234375" y="219.5">emprunté</text></g></g><g transform="translate(-45,-6) scale(1,1)"><path fill="none" stroke="#000000" d="M 188 86 L 272 127" stroke-miterlimit="10"/></g><g transform="translate(-45,-6) scale(1,1)"><path fill="none" stroke="#000000" d="M 261.02071439247186 126.3252500105038 L 272 127 L 264.7135929875113 118.75935240115466" stroke-miterlimit="10"/></g><g transform="translate(-45,-6) scale(1,1)"><g><path fill="none" stroke="none"/><text fill="#000000" stroke="none" font-family="Arial" font-size="13px" font-style="normal" font-weight="normal" text-decoration="none" x="219.5" y="98.5">rangé</text></g></g><g transform="translate(-45,-6) scale(1,1)"><path fill="none" stroke="#000000" d="M 370 168 L 455 199" stroke-miterlimit="10"/></g><g transform="translate(-45,-6) scale(1,1)"><path fill="none" stroke="#000000" d="M 444.0101602702523 199.47267612004276 L 455 199 L 446.89477731315486 191.56324229272926" stroke-miterlimit="10"/></g><g transform="translate(-45,-6) scale(1,1)"><g><path fill="none" stroke="none"/><text fill="#000000" stroke="none" font-family="Arial" font-size="13px" font-style="normal" font-weight="normal" text-decoration="none" x="406.5" y="172.5">emprunté par abonné</text></g></g><g transform="translate(-45,-6) scale(1,1)"><g><path fill="none" stroke="none"/><text fill="#000000" stroke="none" font-family="Arial" font-size="13px" font-style="normal" font-weight="normal" text-decoration="none" x="93" y="82">exemplaire</text><text fill="#000000" stroke="none" font-family="Arial" font-size="13px" font-style="normal" font-weight="normal" text-decoration="none" x="93" y="95">acheté et</text><text fill="#000000" stroke="none" font-family="Arial" font-size="13px" font-style="normal" font-weight="normal" text-decoration="none" x="93" y="108">enregistré</text></g></g><g transform="translate(-45,-6) scale(1,1)"><path fill="#C0C0C0" stroke="none" d="M 257 271 L 356 271 Q 366 271 366 281 L 366 300 Q 366 310 356 310 L 257 310 Q 247 310 247 300 L 247 281 Q 247 271 257 271 Z" opacity="0.2"/></g><g transform="translate(-45,-6) scale(1,1)"><path fill="#ffffff" stroke="none" d="M 250 264 L 349 264 Q 359 264 359 274 L 359 293 Q 359 303 349 303 L 250 303 Q 240 303 240 293 L 240 274 Q 240 264 250 264 Z"/></g><g transform="translate(-45,-6) scale(1,1)"><path fill="none" stroke="#000000" d="M 250 264 L 349 264 Q 359 264 359 274 L 359 293 Q 359 303 349 303 L 250 303 Q 240 303 240 293 L 240 274 Q 240 264 250 264 Z" stroke-miterlimit="10"/></g><g transform="translate(-45,-6) scale(1,1)"><g><path fill="none" stroke="none"/><text fill="#000000" stroke="none" font-family="Arial" font-size="13px" font-style="normal" font-weight="bold" text-decoration="none" x="278.1845703125" y="283.5">restitué</text></g></g><g transform="translate(-45,-6) scale(1,1)"><path fill="none" stroke="#000000" d="M 441 240 L 360 264" stroke-miterlimit="10"/></g><g transform="translate(-45,-6) scale(1,1)"><path fill="none" stroke="#000000" d="M 368.5480786054463 257.07682499462044 L 360 264 L 370.9398283416718 265.1489803543816" stroke-miterlimit="10"/></g><g transform="translate(-45,-6) scale(1,1)"><g><path fill="none" stroke="none"/><text fill="#000000" stroke="none" font-family="Arial" font-size="13px" font-style="normal" font-weight="normal" text-decoration="none" x="387.5" y="272.5">rendu</text></g></g><g transform="translate(-45,-6) scale(1,1)"><path fill="#C0C0C0" stroke="none" d="M 145 383 L 227.91357421875 383 Q 237.91357421875 383 237.91357421875 393 L 237.91357421875 412 Q 237.91357421875 422 227.91357421875 422 L 145 422 Q 135 422 135 412 L 135 393 Q 135 383 145 383 Z" opacity="0.2"/></g><g transform="translate(-45,-6) scale(1,1)"><path fill="#ffffff" stroke="none" d="M 138 376 L 220.91357421875 376 Q 230.91357421875 376 230.91357421875 386 L 230.91357421875 405 Q 230.91357421875 415 220.91357421875 415 L 138 415 Q 128 415 128 405 L 128 386 Q 128 376 138 376 Z"/></g><g transform="translate(-45,-6) scale(1,1)"><path fill="none" stroke="#000000" d="M 138 376 L 220.91357421875 376 Q 230.91357421875 376 230.91357421875 386 L 230.91357421875 405 Q 230.91357421875 415 220.91357421875 415 L 138 415 Q 128 415 128 405 L 128 386 Q 128 376 138 376 Z" stroke-miterlimit="10"/></g><g transform="translate(-45,-6) scale(1,1)"><g><path fill="none" stroke="none"/><text fill="#000000" stroke="none" font-family="Arial" font-size="13px" font-style="normal" font-weight="bold" text-decoration="none" x="136.095947265625" y="395.5">en restauration</text></g></g><g transform="translate(-45,-6) scale(1,1)"><path fill="none" stroke="#000000" d="M 301 263 L 311 168" stroke-miterlimit="10"/></g><g transform="translate(-45,-6) scale(1,1)"><path fill="none" stroke="#000000" d="M 314.12251093493006 178.5475080213879 L 311 168 L 305.7497342098753 177.6661631029611" stroke-miterlimit="10"/></g><g transform="translate(-45,-6) scale(1,1)"><g><path fill="none" stroke="none"/><text fill="#000000" stroke="none" font-family="Arial" font-size="13px" font-style="normal" font-weight="normal" text-decoration="none" x="197.5" y="220.5">rangé [bon_etat]</text></g></g><g transform="translate(-45,-6) scale(1,1)"><path fill="none" stroke="#000000" d="M 277 304 L 200 375" stroke-miterlimit="10"/></g><g transform="translate(-45,-6) scale(1,1)"><path fill="none" stroke="#000000" d="M 204.61772494870831 365.0161822784029 L 200 375 L 210.32484983795771 371.2055994118142" stroke-miterlimit="10"/></g><g transform="translate(-45,-6) scale(1,1)"><g><path fill="none" stroke="none"/><text fill="#000000" stroke="none" font-family="Arial" font-size="13px" font-style="normal" font-weight="normal" text-decoration="none" x="241.5" y="354.5"> [abimé]</text></g></g><g transform="translate(-45,-6) scale(1,1)"><path fill="#C0C0C0" stroke="none" d="M 409 431 L 475.2763671875 431 Q 485.2763671875 431 485.2763671875 441 L 485.2763671875 460 Q 485.2763671875 470 475.2763671875 470 L 409 470 Q 399 470 399 460 L 399 441 Q 399 431 409 431 Z" opacity="0.2"/></g><g transform="translate(-45,-6) scale(1,1)"><path fill="#ffffff" stroke="none" d="M 402 424 L 468.2763671875 424 Q 478.2763671875 424 478.2763671875 434 L 478.2763671875 453 Q 478.2763671875 463 468.2763671875 463 L 402 463 Q 392 463 392 453 L 392 434 Q 392 424 402 424 Z"/></g><g transform="translate(-45,-6) scale(1,1)"><path fill="none" stroke="#000000" d="M 402 424 L 468.2763671875 424 Q 478.2763671875 424 478.2763671875 434 L 478.2763671875 453 Q 478.2763671875 463 468.2763671875 463 L 402 463 Q 392 463 392 453 L 392 434 Q 392 424 402 424 Z" stroke-miterlimit="10"/></g><g transform="translate(-45,-6) scale(1,1)"><g><path fill="none" stroke="none"/><text fill="#000000" stroke="none" font-family="Arial" font-size="13px" font-style="normal" font-weight="bold" text-decoration="none" x="398.642333984375" y="443.5">perdu ou HS</text></g></g><g transform="translate(-45,-6) scale(1,1)"><path fill="none" stroke="#000000" d="M 317 304 L 418 423" stroke-miterlimit="10"/></g><g transform="translate(-45,-6) scale(1,1)"><path fill="none" stroke="#000000" d="M 408.21443892402516 417.97577922177317 L 418 423 L 414.63322398792565 412.52790282300055" stroke-miterlimit="10"/></g><g transform="translate(-45,-6) scale(1,1)"><g><path fill="none" stroke="none"/><text fill="#000000" stroke="none" font-family="Arial" font-size="13px" font-style="normal" font-weight="normal" text-decoration="none" x="381.5" y="372.5"> [irréparable]</text></g></g><g transform="translate(-45,-6) scale(1,1)"><path fill="none" stroke="#000000" d="M 433 464 L 421 575" stroke-miterlimit="10"/></g><g transform="translate(-45,-6) scale(1,1)"><path fill="none" stroke="#000000" d="M 417.90717080342023 564.4437503079558 L 421 575 L 426.2774352431896 565.3486437609038" stroke-miterlimit="10"/></g><g transform="translate(-45,-6) scale(1,1)"><g><path fill="none" stroke="none"/><text fill="#000000" stroke="none" font-family="Arial" font-size="13px" font-style="normal" font-weight="normal" text-decoration="none" x="445" y="578">définitivement</text><text fill="#000000" stroke="none" font-family="Arial" font-size="13px" font-style="normal" font-weight="normal" text-decoration="none" x="445" y="591">supprimé</text></g></g><g transform="translate(-45,-6) scale(1,1)"><path fill="#C0C0C0" stroke="none" d="M 545 327 L 594.68994140625 327 Q 604.68994140625 327 604.68994140625 337 L 604.68994140625 356 Q 604.68994140625 366 594.68994140625 366 L 545 366 Q 535 366 535 356 L 535 337 Q 535 327 545 327 Z" opacity="0.2"/></g><g transform="translate(-45,-6) scale(1,1)"><path fill="#ffffff" stroke="none" d="M 538 320 L 587.68994140625 320 Q 597.68994140625 320 597.68994140625 330 L 597.68994140625 349 Q 597.68994140625 359 587.68994140625 359 L 538 359 Q 528 359 528 349 L 528 330 Q 528 320 538 320 Z"/></g><g transform="translate(-45,-6) scale(1,1)"><path fill="none" stroke="#000000" d="M 538 320 L 587.68994140625 320 Q 597.68994140625 320 597.68994140625 330 L 597.68994140625 349 Q 597.68994140625 359 587.68994140625 359 L 538 359 Q 528 359 528 349 L 528 330 Q 528 320 538 320 Z" stroke-miterlimit="10"/></g><g transform="translate(-45,-6) scale(1,1)"><g><path fill="none" stroke="none"/><text fill="#000000" stroke="none" font-family="Arial" font-size="13px" font-style="normal" font-weight="bold" text-decoration="none" x="534.299560546875" y="339.5">En_retard</text></g></g><g transform="translate(-45,-6) scale(1,1)"><path fill="none" stroke="#000000" d="M 519 240 L 553 319" stroke-miterlimit="10"/></g><g transform="translate(-45,-6) scale(1,1)"><path fill="none" stroke="#000000" d="M 545.1158487052921 311.32926611319647 L 553 319 L 552.8490911036475 308.0010352075751" stroke-miterlimit="10"/></g><g transform="translate(-45,-6) scale(1,1)"><g><path fill="none" stroke="none"/><text fill="#000000" stroke="none" font-family="Arial" font-size="13px" font-style="normal" font-weight="normal" text-decoration="none" x="551.5" y="279.5">pas rendu after 3 semaines</text></g></g><g transform="translate(-45,-6) scale(1,1)"><path fill="none" stroke="#000000" d="M 527 332 L 360 296" stroke-miterlimit="10"/></g><g transform="translate(-45,-6) scale(1,1)"><path fill="none" stroke="#000000" d="M 370.8215329622417 294.02657040989124 L 360 296 L 369.0474047857949 302.2565538950747" stroke-miterlimit="10"/></g><g transform="translate(-45,-6) scale(1,1)"><path fill="none" stroke="#000000" d="M 536 360 L 459 423" stroke-miterlimit="10"/></g><g transform="translate(-45,-6) scale(1,1)"><path fill="none" stroke="#000000" d="M 464.19985066362 413.30662323666047 L 459 423 L 469.53110210735656 419.8225972234496" stroke-miterlimit="10"/></g><g transform="translate(-45,-6) scale(1,1)"><g><path fill="none" stroke="none"/><text fill="#000000" stroke="none" font-family="Arial" font-size="13px" font-style="normal" font-weight="normal" text-decoration="none" x="486.5" y="412.5">enorme retard</text></g></g><g transform="translate(-45,-6) scale(1,1)"><path fill="none" stroke="#000000" d="M 175 375 L 136 200 L 247 167" stroke-miterlimit="10"/></g><g transform="translate(-45,-6) scale(1,1)"><path fill="none" stroke="#000000" d="M 238.45829407535606 173.93103599016067 L 247 167 L 236.05911926849234 165.8610843670736" stroke-miterlimit="10"/></g><g transform="translate(-45,-6) scale(1,1)"><g><path fill="none" stroke="none"/><text fill="#000000" stroke="none" font-family="Arial" font-size="13px" font-style="normal" font-weight="normal" text-decoration="none" x="54.5" y="171.5">réparé et rangé</text></g></g><g transform="translate(-45,-6) scale(1,1)"><path fill="none" stroke="#000000" d="M 232 405 L 391 435" stroke-miterlimit="10"/></g><g transform="translate(-45,-6) scale(1,1)"><path fill="none" stroke="#000000" d="M 380.2330514425009 437.2522918905346 L 391 435 L 381.79400679329717 428.9792285313141" stroke-miterlimit="10"/></g><g transform="translate(-45,-6) scale(1,1)"><g><path fill="none" stroke="none"/><text fill="#000000" stroke="none" font-family="Arial" font-size="13px" font-style="normal" font-weight="normal" text-decoration="none" x="276.5" y="411.5"> [irréparable]</text></g></g><g transform="translate(-45,-6) scale(1,1)"><path fill="#ffffff" stroke="none" d="M 600 376 L 658.349609375 376 L 668.349609375 386 L 668.349609375 464 L 600 464 L 600 376"/></g><g transform="translate(-45,-6) scale(1,1)"><path fill="none" stroke="#000000" d="M 600 376 L 658.349609375 376 L 668.349609375 386 L 668.349609375 464 L 600 464 L 600 376 L 600 376" stroke-miterlimit="10"/></g><g transform="translate(-45,-6) scale(1,1)"><path fill="none" stroke="#000000" d="M 658.349609375 376 L 658.349609375 386 L 668.349609375 386 L 658.349609375 376" stroke-miterlimit="10"/></g><g transform="translate(-45,-6) scale(1,1)"><g><path fill="none" stroke="none"/><text fill="#000000" stroke="none" font-family="Arial" font-size="13px" font-style="normal" font-weight="normal" text-decoration="none" x="605" y="394">effectuer</text><text fill="#000000" stroke="none" font-family="Arial" font-size="13px" font-style="normal" font-weight="normal" text-decoration="none" x="605" y="407">un rappel</text><text fill="#000000" stroke="none" font-family="Arial" font-size="13px" font-style="normal" font-weight="normal" text-decoration="none" x="605" y="420">(par email</text><text fill="#000000" stroke="none" font-family="Arial" font-size="13px" font-style="normal" font-weight="normal" text-decoration="none" x="605" y="433">ou ...)</text></g></g><g transform="translate(-45,-6) scale(1,1)"><path fill="none" stroke="#000000" d="M 599 381 L 581 360" stroke-miterlimit="10" stroke-dasharray="3"/></g><g transform="translate(-45,-6) scale(1,1)"><path fill="#ffffff" stroke="none" d="M 488 488 L 562.49169921875 488 L 572.49169921875 498 L 572.49169921875 526 L 488 526 L 488 488"/></g><g transform="translate(-45,-6) scale(1,1)"><path fill="none" stroke="#000000" d="M 488 488 L 562.49169921875 488 L 572.49169921875 498 L 572.49169921875 526 L 488 526 L 488 488 L 488 488" stroke-miterlimit="10"/></g><g transform="translate(-45,-6) scale(1,1)"><path fill="none" stroke="#000000" d="M 562.49169921875 488 L 562.49169921875 498 L 572.49169921875 498 L 562.49169921875 488" stroke-miterlimit="10"/></g><g transform="translate(-45,-6) scale(1,1)"><g><path fill="none" stroke="none"/><text fill="#000000" stroke="none" font-family="Arial" font-size="13px" font-style="normal" font-weight="normal" text-decoration="none" x="493" y="506">générer</text><text fill="#000000" stroke="none" font-family="Arial" font-size="13px" font-style="normal" font-weight="normal" text-decoration="none" x="493" y="519">contentieux</text></g></g><g transform="translate(-45,-6) scale(1,1)"><path fill="none" stroke="#000000" d="M 500 487 L 466 464" stroke-miterlimit="10" stroke-dasharray="3"/></g></g></svg>