<svg version="1.1" xmlns="http://www.w3.org/2000/svg" xmlns:xlink="http://www.w3.org/1999/xlink" width="845.58447265625" height="444"><defs/><g><text fill="#eeeeee" stroke="none" font-family="Arial" font-size="24px" font-style="normal" font-weight="normal" text-decoration="none" x="0" y="0">UNREGISTERED</text><text fill="#eeeeee" stroke="none" font-family="Arial" font-size="24px" font-style="normal" font-weight="normal" text-decoration="none" x="0" y="30">UNREGISTERED</text><text fill="#eeeeee" stroke="none" font-family="Arial" font-size="24px" font-style="normal" font-weight="normal" text-decoration="none" x="0" y="60">UNREGISTERED</text><text fill="#eeeeee" stroke="none" font-family="Arial" font-size="24px" font-style="normal" font-weight="normal" text-decoration="none" x="0" y="90">UNREGISTERED</text><text fill="#eeeeee" stroke="none" font-family="Arial" font-size="24px" font-style="normal" font-weight="normal" text-decoration="none" x="0" y="120">UNREGISTERED</text><text fill="#eeeeee" stroke="none" font-family="Arial" font-size="24px" font-style="normal" font-weight="normal" text-decoration="none" x="0" y="150">UNREGISTERED</text><text fill="#eeeeee" stroke="none" font-family="Arial" font-size="24px" font-style="normal" font-weight="normal" text-decoration="none" x="0" y="180">UNREGISTERED</text><text fill="#eeeeee" stroke="none" font-family="Arial" font-size="24px" font-style="normal" font-weight="normal" text-decoration="none" x="0" y="210">UNREGISTERED</text><text fill="#eeeeee" stroke="none" font-family="Arial" font-size="24px" font-style="normal" font-weight="normal" text-decoration="none" x="0" y="240">UNREGISTERED</text><text fill="#eeeeee" stroke="none" font-family="Arial" font-size="24px" font-style="normal" font-weight="normal" text-decoration="none" x="0" y="270">UNREGISTERED</text><text fill="#eeeeee" stroke="none" font-family="Arial" font-size="24px" font-style="normal" font-weight="normal" text-decoration="none" x="0" y="300">UNREGISTERED</text><text fill="#eeeeee" stroke="none" font-family="Arial" font-size="24px" font-style="normal" font-weight="normal" text-decoration="none" x="0" y="330">UNREGISTERED</text><text fill="#eeeeee" stroke="none" font-family="Arial" font-size="24px" font-style="normal" font-weight="normal" text-decoration="none" x="0" y="360">UNREGISTERED</text><text fill="#eeeeee" stroke="none" font-family="Arial" font-size="24px" font-style="normal" font-weight="normal" text-decoration="none" x="0" y="390">UNREGISTERED</text><text fill="#eeeeee" stroke="none" font-family="Arial" font-size="24px" font-style="normal" font-weight="normal" text-decoration="none" x="0" y="420">UNREGISTERED</text><text fill="#eeeeee" stroke="none" font-family="Arial" font-size="24px" font-style="normal" font-weight="normal" text-decoration="none" x="200" y="0">UNREGISTERED</text><text fill="#eeeeee" stroke="none" font-family="Arial" font-size="24px" font-style="normal" font-weight="normal" text-decoration="none" x="200" y="30">UNREGISTERED</text><text fill="#eeeeee" stroke="none" font-family="Arial" font-size="24px" font-style="normal" font-weight="normal" text-decoration="none" x="200" y="60">UNREGISTERED</text><text fill="#eeeeee" stroke="none" font-family="Arial" font-size="24px" font-style="normal" font-weight="normal" text-decoration="none" x="200" y="90">UNREGISTERED</text><text fill="#eeeeee" stroke="none" font-family="Arial" font-size="24px" font-style="normal" font-weight="normal" text-decoration="none" x="200" y="120">UNREGISTERED</text><text fill="#eeeeee" stroke="none" font-family="Arial" font-size="24px" font-style="normal" font-weight="normal" text-decoration="none" x="200" y="150">UNREGISTERED</text><text fill="#eeeeee" stroke="none" font-family="Arial" font-size="24px" font-style="normal" font-weight="normal" text-decoration="none" x="200" y="180">UNREGISTERED</text><text fill="#eeeeee" stroke="none" font-family="Arial" font-size="24px" font-style="normal" font-weight="normal" text-decoration="none" x="200" y="210">UNREGISTERED</text><text fill="#eeeeee" stroke="none" font-family="Arial" font-size="24px" font-style="normal" font-weight="normal" text-decoration="none" x="200" y="240">UNREGISTERED</text><text fill="#eeeeee" stroke="none" font-family="Arial" font-size="24px" font-style="normal" font-weight="normal" text-decoration="none" x="200" y="270">UNREGISTERED</text><text fill="#eeeeee" stroke="none" font-family="Arial" font-size="24px" font-style="normal" font-weight="normal" text-decoration="none" x="200" y="300">UNREGISTERED</text><text fill="#eeeeee" stroke="none" font-family="Arial" font-size="24px" font-style="normal" font-weight="normal" text-decoration="none" x="200" y="330">UNREGISTERED</text><text fill="#eeeeee" stroke="none" font-family="Arial" font-size="24px" font-style="normal" font-weight="normal" text-decoration="none" x="200" y="360">UNREGISTERED</text><text fill="#eeeeee" stroke="none" font-family="Arial" font-size="24px" font-style="normal" font-weight="normal" text-decoration="none" x="200" y="390">UNREGISTERED</text><text fill="#eeeeee" stroke="none" font-family="Arial" font-size="24px" font-style="normal" font-weight="normal" text-decoration="none" x="200" y="420">UNREGISTERED</text><text fill="#eeeeee" stroke="none" font-family="Arial" font-size="24px" font-style="normal" font-weight="normal" text-decoration="none" x="400" y="0">UNREGISTERED</text><text fill="#eeeeee" stroke="none" font-family="Arial" font-size="24px" font-style="normal" font-weight="normal" text-decoration="none" x="400" y="30">UNREGISTERED</text><text fill="#eeeeee" stroke="none" font-family="Arial" font-size="24px" font-style="normal" font-weight="normal" text-decoration="none" x="400" y="60">UNREGISTERED</text><text fill="#eeeeee" stroke="none" font-family="Arial" font-size="24px" font-style="normal" font-weight="normal" text-decoration="none" x="400" y="90">UNREGISTERED</text><text fill="#eeeeee" stroke="none" font-family="Arial" font-size="24px" font-style="normal" font-weight="normal" text-decoration="none" x="400" y="120">UNREGISTERED</text><text fill="#eeeeee" stroke="none" font-family="Arial" font-size="24px" font-style="normal" font-weight="normal" text-decoration="none" x="400" y="150">UNREGISTERED</text><text fill="#eeeeee" stroke="none" font-family="Arial" font-size="24px" font-style="normal" font-weight="normal" text-decoration="none" x="400" y="180">UNREGISTERED</text><text fill="#eeeeee" stroke="none" font-family="Arial" font-size="24px" font-style="normal" font-weight="normal" text-decoration="none" x="400" y="210">UNREGISTERED</text><text fill="#eeeeee" stroke="none" font-family="Arial" font-size="24px" font-style="normal" font-weight="normal" text-decoration="none" x="400" y="240">UNREGISTERED</text><text fill="#eeeeee" stroke="none" font-family="Arial" font-size="24px" font-style="normal" font-weight="normal" text-decoration="none" x="400" y="270">UNREGISTERED</text><text fill="#eeeeee" stroke="none" font-family="Arial" font-size="24px" font-style="normal" font-weight="normal" text-decoration="none" x="400" y="300">UNREGISTERED</text><text fill="#eeeeee" stroke="none" font-family="Arial" font-size="24px" font-style="normal" font-weight="normal" text-decoration="none" x="400" y="330">UNREGISTERED</text><text fill="#eeeeee" stroke="none" font-family="Arial" font-size="24px" font-style="normal" font-weight="normal" text-decoration="none" x="400" y="360">UNREGISTERED</text><text fill="#eeeeee" stroke="none" font-family="Arial" font-size="24px" font-style="normal" font-weight="normal" text-decoration="none" x="400" y="390">UNREGISTERED</text><text fill="#eeeeee" stroke="none" font-family="Arial" font-size="24px" font-style="normal" font-weight="normal" text-decoration="none" x="400" y="420">UNREGISTERED</text><text fill="#eeeeee" stroke="none" font-family="Arial" font-size="24px" font-style="normal" font-weight="normal" text-decoration="none" x="600" y="0">UNREGISTERED</text><text fill="#eeeeee" stroke="none" font-family="Arial" font-size="24px" font-style="normal" font-weight="normal" text-decoration="none" x="600" y="30">UNREGISTERED</text><text fill="#eeeeee" stroke="none" font-family="Arial" font-size="24px" font-style="normal" font-weight="normal" text-decoration="none" x="600" y="60">UNREGISTERED</text><text fill="#eeeeee" stroke="none" font-family="Arial" font-size="24px" font-style="normal" font-weight="normal" text-decoration="none" x="600" y="90">UNREGISTERED</text><text fill="#eeeeee" stroke="none" font-family="Arial" font-size="24px" font-style="normal" font-weight="normal" text-decoration="none" x="600" y="120">UNREGISTERED</text><text fill="#eeeeee" stroke="none" font-family="Arial" font-size="24px" font-style="normal" font-weight="normal" text-decoration="none" x="600" y="150">UNREGISTERED</text><text fill="#eeeeee" stroke="none" font-family="Arial" font-size="24px" font-style="normal" font-weight="normal" text-decoration="none" x="600" y="180">UNREGISTERED</text><text fill="#eeeeee" stroke="none" font-family="Arial" font-size="24px" font-style="normal" font-weight="normal" text-decoration="none" x="600" y="210">UNREGISTERED</text><text fill="#eeeeee" stroke="none" font-family="Arial" font-size="24px" font-style="normal" font-weight="normal" text-decoration="none" x="600" y="240">UNREGISTERED</text><text fill="#eeeeee" stroke="none" font-family="Arial" font-size="24px" font-style="normal" font-weight="normal" text-decoration="none" x="600" y="270">UNREGISTERED</text><text fill="#eeeeee" stroke="none" font-family="Arial" font-size="24px" font-style="normal" font-weight="normal" text-decoration="none" x="600" y="300">UNREGISTERED</text><text fill="#eeeeee" stroke="none" font-family="Arial" font-size="24px" font-style="normal" font-weight="normal" text-decoration="none" x="600" y="330">UNREGISTERED</text><text fill="#eeeeee" stroke="none" font-family="Arial" font-size="24px" font-style="normal" font-weight="normal" text-decoration="none" x="600" y="360">UNREGISTERED</text><text fill="#eeeeee" stroke="none" font-family="Arial" font-size="24px" font-style="normal" font-weight="normal" text-decoration="none" x="600" y="390">UNREGISTERED</text><text fill="#eeeeee" stroke="none" font-family="Arial" font-size="24px" font-style="normal" font-weight="normal" text-decoration="none" x="600" y="420">UNREGISTERED</text><text fill="#eeeeee" stroke="none" font-family="Arial" font-size="24px" font-style="normal" font-weight="normal" text-decoration="none" x="800" y="0">UNREGISTERED</text><text fill="#eeeeee" stroke="none" font-family="Arial" font-size="24px" font-style="normal" font-weight="normal" text-decoration="none" x="800" y="30">UNREGISTERED</text><text fill="#eeeeee" stroke="none" font-family="Arial" font-size="24px" font-style="normal" font-weight="normal" text-decoration="none" x="800" y="60">UNREGISTERED</text><text fill="#eeeeee" stroke="none" font-family="Arial" font-size="24px" font-style="normal" font-weight="normal" text-decoration="none" x="800" y="90">UNREGISTERED</text><text fill="#eeeeee" stroke="none" font-family="Arial" font-size="24px" font-style="normal" font-weight="normal" text-decoration="none" x="800" y="120">UNREGISTERED</text><text fill="#eeeeee" stroke="none" font-family="Arial" font-size="24px" font-style="normal" font-weight="normal" text-decoration="none" x="800" y="150">UNREGISTERED</text><text fill="#eeeeee" stroke="none" font-family="Arial" font-size="24px" font-style="normal" font-weight="normal" text-decoration="none" x="800" y="180">UNREGISTERED</text><text fill="#eeeeee" stroke="none" font-family="Arial" font-size="24px" font-style="normal" font-weight="normal" text-decoration="none" x="800" y="210">UNREGISTERED</text><text fill="#eeeeee" stroke="none" font-family="Arial" font-size="24px" font-style="normal" font-weight="normal" text-decoration="none" x="800" y="240">UNREGISTERED</text><text fill="#eeeeee" stroke="none" font-family="Arial" font-size="24px" font-style="normal" font-weight="normal" text-decoration="none" x="800" y="270">UNREGISTERED</text><text fill="#eeeeee" stroke="none" font-family="Arial" font-size="24px" font-style="normal" font-weight="normal" text-decoration="none" x="800" y="300">UNREGISTERED</text><text fill="#eeeeee" stroke="none" font-family="Arial" font-size="24px" font-style="normal" font-weight="normal" text-decoration="none" x="800" y="330">UNREGISTERED</text><text fill="#eeeeee" stroke="none" font-family="Arial" font-size="24px" font-style="normal" font-weight="normal" text-decoration="none" x="800" y="360">UNREGISTERED</text><text fill="#eeeeee" stroke="none" font-family="Arial" font-size="24px" font-style="normal" font-weight="normal" text-decoration="none" x="800" y="390">UNREGISTERED</text><text fill="#eeeeee" stroke="none" font-family="Arial" font-size="24px" font-style="normal" font-weight="normal" text-decoration="none" x="800" y="420">UNREGISTERED</text><g transform="translate(-94,-30) scale(1,1)"><rect fill="#C0C0C0" stroke="none" x="223" y="47" width="544" height="424" opacity="0.2"/></g><g transform="translate(-94,-30) scale(1,1)"><rect fill="#ffffff" stroke="none" x="216" y="40" width="544" height="424"/></g><g transform="translate(-94,-30) scale(1,1)"><path fill="none" stroke="#000000" d="M 216 40 L 760 40 L 760 464 L 216 464 L 216 40 Z Z" stroke-miterlimit="10"/></g><g transform="translate(-94,-30) scale(1,1)"><g><path fill="none" stroke="none"/><text fill="#000000" stroke="none" font-family="Arial" font-size="13px" font-style="normal" font-weight="bold" text-decoration="none" x="429.45556640625" y="59.5">logiciel_bibliotheque</text></g></g><g transform="translate(-94,-30) scale(1,1)"><path fill="#ffffff" stroke="none" d="M 142.80388156960228 200.68 C 142.80388156960228 195.886167936 146.68972389454774 192 151.483154296875 192 C 156.27658469920226 192 160.16242702414772 195.886167936 160.16242702414772 200.68 C 160.16242702414772 205.47383206400002 156.27658469920226 209.36 151.483154296875 209.36 C 146.68972389454774 209.36 142.80388156960228 205.47383206400002 142.80388156960228 200.68 Z"/></g><g transform="translate(-94,-30) scale(1,1)"><path fill="none" stroke="#000000" d="M 142.80388156960228 200.68 C 142.80388156960228 195.886167936 146.68972389454774 192 151.483154296875 192 C 156.27658469920226 192 160.16242702414772 195.886167936 160.16242702414772 200.68 C 160.16242702414772 205.47383206400002 156.27658469920226 209.36 151.483154296875 209.36 C 146.68972389454774 209.36 142.80388156960228 205.47383206400002 142.80388156960228 200.68 Z" stroke-miterlimit="10"/></g><g transform="translate(-94,-30) scale(1,1)"><path fill="none" stroke="#000000" d="M 151.483154296875 209.36 L 151.483154296875 226.64" stroke-miterlimit="10"/></g><g transform="translate(-94,-30) scale(1,1)"><path fill="none" stroke="#000000" d="M 142.29333611505683 215.84 L 160.67297247869317 215.84" stroke-miterlimit="10"/></g><g transform="translate(-94,-30) scale(1,1)"><path fill="none" stroke="#000000" d="M 151.483154296875 226.64 L 138.71951793323865 244" stroke-miterlimit="10"/></g><g transform="translate(-94,-30) scale(1,1)"><path fill="none" stroke="#000000" d="M 151.483154296875 226.64 L 164.24679066051135 244" stroke-miterlimit="10"/></g><g transform="translate(-94,-30) scale(1,1)"><g><path fill="none" stroke="none"/><text fill="#000000" stroke="none" font-family="Arial" font-size="13px" font-style="normal" font-weight="bold" text-decoration="none" x="112.4609375" y="264.5">Bibliothecaire</text></g></g><g transform="translate(-94,-30) scale(1,1)"><path fill="#C0C0C0" stroke="none" d="M 295 96 C 295 86.6111584 325.6684912 79 363.5 79 C 401.3315088 79 432 86.6111584 432 96 C 432 105.3888416 401.3315088 113 363.5 113 C 325.6684912 113 295 105.3888416 295 96 Z" opacity="0.2"/></g><g transform="translate(-94,-30) scale(1,1)"><path fill="#ffffff" stroke="none" d="M 288 89 C 288 79.6111584 318.6684912 72 356.5 72 C 394.3315088 72 425 79.6111584 425 89 C 425 98.3888416 394.3315088 106 356.5 106 C 318.6684912 106 288 98.3888416 288 89 Z"/></g><g transform="translate(-94,-30) scale(1,1)"><path fill="none" stroke="#000000" d="M 288 89 C 288 79.6111584 318.6684912 72 356.5 72 C 394.3315088 72 425 79.6111584 425 89 C 425 98.3888416 394.3315088 106 356.5 106 C 318.6684912 106 288 98.3888416 288 89 Z" stroke-miterlimit="10"/></g><g transform="translate(-94,-30) scale(1,1)"><g><path fill="none" stroke="none"/><text fill="#000000" stroke="none" font-family="Arial" font-size="13px" font-style="normal" font-weight="bold" text-decoration="none" x="315.675048828125" y="96">gérer emprunt</text></g></g><g transform="translate(-94,-30) scale(1,1)"><path fill="#ffffff" stroke="none" d="M 852.1129636008523 321.68 C 852.1129636008523 316.886167936 855.9988059257977 313 860.792236328125 313 C 865.5856667304523 313 869.4715090553977 316.886167936 869.4715090553977 321.68 C 869.4715090553977 326.473832064 865.5856667304523 330.36 860.792236328125 330.36 C 855.9988059257977 330.36 852.1129636008523 326.473832064 852.1129636008523 321.68 Z"/></g><g transform="translate(-94,-30) scale(1,1)"><path fill="none" stroke="#000000" d="M 852.1129636008523 321.68 C 852.1129636008523 316.886167936 855.9988059257977 313 860.792236328125 313 C 865.5856667304523 313 869.4715090553977 316.886167936 869.4715090553977 321.68 C 869.4715090553977 326.473832064 865.5856667304523 330.36 860.792236328125 330.36 C 855.9988059257977 330.36 852.1129636008523 326.473832064 852.1129636008523 321.68 Z" stroke-miterlimit="10"/></g><g transform="translate(-94,-30) scale(1,1)"><path fill="none" stroke="#000000" d="M 860.792236328125 330.36 L 860.792236328125 347.64" stroke-miterlimit="10"/></g><g transform="translate(-94,-30) scale(1,1)"><path fill="none" stroke="#000000" d="M 851.6024181463068 336.84 L 869.9820545099432 336.84" stroke-miterlimit="10"/></g><g transform="translate(-94,-30) scale(1,1)"><path fill="none" stroke="#000000" d="M 860.792236328125 347.64 L 848.0285999644886 365" stroke-miterlimit="10"/></g><g transform="translate(-94,-30) scale(1,1)"><path fill="none" stroke="#000000" d="M 860.792236328125 347.64 L 873.5558726917614 365" stroke-miterlimit="10"/></g><g transform="translate(-94,-30) scale(1,1)"><g><path fill="none" stroke="none"/><text fill="#000000" stroke="none" font-family="Arial" font-size="13px" font-style="normal" font-weight="normal" text-decoration="none" x="810.20458984375" y="383.5">«logiciel externe»</text></g></g><g transform="translate(-94,-30) scale(1,1)"><g><path fill="none" stroke="none"/><text fill="#000000" stroke="none" font-family="Arial" font-size="13px" font-style="normal" font-weight="bold" text-decoration="none" x="802.622314453125" y="398.5">logiciel_comptabilité</text></g></g><g transform="translate(-94,-30) scale(1,1)"><path fill="#C0C0C0" stroke="none" d="M 247 376 C 247 366.6111584 290.8760896 359 345 359 C 399.1239104 359 443 366.6111584 443 376 C 443 385.3888416 399.1239104 393 345 393 C 290.8760896 393 247 385.3888416 247 376 Z" opacity="0.2"/></g><g transform="translate(-94,-30) scale(1,1)"><path fill="#ffffff" stroke="none" d="M 240 369 C 240 359.6111584 283.8760896 352 338 352 C 392.1239104 352 436 359.6111584 436 369 C 436 378.3888416 392.1239104 386 338 386 C 283.8760896 386 240 378.3888416 240 369 Z"/></g><g transform="translate(-94,-30) scale(1,1)"><path fill="none" stroke="#000000" d="M 240 369 C 240 359.6111584 283.8760896 352 338 352 C 392.1239104 352 436 359.6111584 436 369 C 436 378.3888416 392.1239104 386 338 386 C 283.8760896 386 240 378.3888416 240 369 Z" stroke-miterlimit="10"/></g><g transform="translate(-94,-30) scale(1,1)"><g><path fill="none" stroke="none"/><text fill="#000000" stroke="none" font-family="Arial" font-size="13px" font-style="normal" font-weight="bold" text-decoration="none" x="278.7509765625" y="376">enregistrer livre neuf</text></g></g><g transform="translate(-94,-30) scale(1,1)"><path fill="#C0C0C0" stroke="none" d="M 495 416 C 495 406.6111584 541.5623808 399 599 399 C 656.4376192 399 703 406.6111584 703 416 C 703 425.3888416 656.4376192 433 599 433 C 541.5623808 433 495 425.3888416 495 416 Z" opacity="0.2"/></g><g transform="translate(-94,-30) scale(1,1)"><path fill="#ffffff" stroke="none" d="M 488 409 C 488 399.6111584 534.5623808 392 592 392 C 649.4376192 392 696 399.6111584 696 409 C 696 418.3888416 649.4376192 426 592 426 C 534.5623808 426 488 418.3888416 488 409 Z"/></g><g transform="translate(-94,-30) scale(1,1)"><path fill="none" stroke="#000000" d="M 488 409 C 488 399.6111584 534.5623808 392 592 392 C 649.4376192 392 696 399.6111584 696 409 C 696 418.3888416 649.4376192 426 592 426 C 534.5623808 426 488 418.3888416 488 409 Z" stroke-miterlimit="10"/></g><g transform="translate(-94,-30) scale(1,1)"><g><path fill="none" stroke="none"/><text fill="#000000" stroke="none" font-family="Arial" font-size="13px" font-style="normal" font-weight="bold" text-decoration="none" x="529.142333984375" y="416">avertir logiciel compta</text></g></g><g transform="translate(-94,-30) scale(1,1)"><path fill="none" stroke="#000000" d="M 170 271 L 192 320 L 284 351" stroke-miterlimit="10"/></g><g transform="translate(-94,-30) scale(1,1)"><path fill="none" stroke="#000000" d="M 273.0251919278552 351.7440347972946 L 284 351 L 275.7135267393598 343.76575084057134" stroke-miterlimit="10"/></g><g transform="translate(-94,-30) scale(1,1)"><path fill="none" stroke="#000000" d="M 687 391 L 791 371" stroke-miterlimit="10"/></g><g transform="translate(-94,-30) scale(1,1)"><path fill="none" stroke="#000000" d="M 781.8151442279925 377.05296823446315 L 791 371 L 780.2252313144974 368.78542108428877" stroke-miterlimit="10"/></g><g transform="translate(-94,-30) scale(1,1)"><path fill="none" stroke="#000000" d="M 437 385 L 487 392" stroke-miterlimit="10" stroke-dasharray="3"/></g><g transform="translate(-94,-30) scale(1,1)"><path fill="none" stroke="#000000" d="M 476.3518382672163 394.7598282034359 L 487 392 L 477.5191193940181 386.42210586913694" stroke-miterlimit="10"/></g><g transform="translate(-94,-30) scale(1,1)"><g><path fill="none" stroke="none"/><text fill="#000000" stroke="none" font-family="Arial" font-size="13px" font-style="normal" font-weight="normal" text-decoration="none" x="438.5" y="364.5">«include»</text></g></g><g transform="translate(-94,-30) scale(1,1)"><path fill="none" stroke="#000000" d="M 200 196 L 330 107" stroke-miterlimit="10"/></g><g transform="translate(-94,-30) scale(1,1)"><path fill="none" stroke="#000000" d="M 323.9922579167984 116.21450134634144 L 330 107 L 319.2362484460977 109.26752122059894" stroke-miterlimit="10"/></g><g transform="translate(-94,-30) scale(1,1)"><path fill="#C0C0C0" stroke="none" d="M 255 184 C 255 174.6111584 309.1735392 167 376 167 C 442.8264608 167 497 174.6111584 497 184 C 497 193.3888416 442.8264608 201 376 201 C 309.1735392 201 255 193.3888416 255 184 Z" opacity="0.2"/></g><g transform="translate(-94,-30) scale(1,1)"><path fill="#a3e0ff" stroke="none" d="M 248 177 C 248 167.6111584 302.1735392 160 369 160 C 435.8264608 160 490 167.6111584 490 177 C 490 186.3888416 435.8264608 194 369 194 C 302.1735392 194 248 186.3888416 248 177 Z"/></g><g transform="translate(-94,-30) scale(1,1)"><path fill="none" stroke="#000000" d="M 248 177 C 248 167.6111584 302.1735392 160 369 160 C 435.8264608 160 490 167.6111584 490 177 C 490 186.3888416 435.8264608 194 369 194 C 302.1735392 194 248 186.3888416 248 177 Z" stroke-miterlimit="10"/></g><g transform="translate(-94,-30) scale(1,1)"><g><path fill="none" stroke="none"/><text fill="#000000" stroke="none" font-family="Arial" font-size="13px" font-style="normal" font-weight="bold" text-decoration="none" x="294.208740234375" y="184">enregistrer debut emprunt</text></g></g><g transform="translate(-94,-30) scale(1,1)"><path fill="#C0C0C0" stroke="none" d="M 527 112 C 527 102.6111584 564.3842192 95 610.5 95 C 656.6157808 95 694 102.6111584 694 112 C 694 121.3888416 656.6157808 129 610.5 129 C 564.3842192 129 527 121.3888416 527 112 Z" opacity="0.2"/></g><g transform="translate(-94,-30) scale(1,1)"><path fill="#ffffff" stroke="none" d="M 520 105 C 520 95.6111584 557.3842192 88 603.5 88 C 649.6157808 88 687 95.6111584 687 105 C 687 114.3888416 649.6157808 122 603.5 122 C 557.3842192 122 520 114.3888416 520 105 Z"/></g><g transform="translate(-94,-30) scale(1,1)"><path fill="none" stroke="#000000" d="M 520 105 C 520 95.6111584 557.3842192 88 603.5 88 C 649.6157808 88 687 95.6111584 687 105 C 687 114.3888416 649.6157808 122 603.5 122 C 557.3842192 122 520 114.3888416 520 105 Z" stroke-miterlimit="10"/></g><g transform="translate(-94,-30) scale(1,1)"><g><path fill="none" stroke="none"/><text fill="#000000" stroke="none" font-family="Arial" font-size="13px" font-style="normal" font-weight="bold" text-decoration="none" x="553.6455078125" y="112">enregistrer retour</text></g></g><g transform="translate(-94,-30) scale(1,1)"><path fill="none" stroke="#000000" d="M 366 159 L 359 107" stroke-miterlimit="10"/></g><g transform="translate(-94,-30) scale(1,1)"><path fill="#FFFFFF" stroke="none" d="M 370.0554207077725 126.02045406855879 L 359 107 L 353.367870898211 128.26685500446132"/></g><g transform="translate(-94,-30) scale(1,1)"><path fill="none" stroke="#000000" d="M 370.0554207077725 126.02045406855879 L 359 107 L 353.367870898211 128.26685500446132 L 370.0554207077725 126.02045406855879" stroke-miterlimit="10"/></g><g transform="translate(-94,-30) scale(1,1)"><path fill="none" stroke="#000000" d="M 519 100 L 426 94" stroke-miterlimit="10"/></g><g transform="translate(-94,-30) scale(1,1)"><path fill="#FFFFFF" stroke="none" d="M 446.8252175792915 86.90702370121204 L 426 94 L 445.7411442096708 103.7101609303339"/></g><g transform="translate(-94,-30) scale(1,1)"><path fill="none" stroke="#000000" d="M 446.8252175792915 86.90702370121204 L 426 94 L 445.7411442096708 103.7101609303339 L 446.8252175792915 86.90702370121204" stroke-miterlimit="10"/></g><g transform="translate(-94,-30) scale(1,1)"><path fill="#C0C0C0" stroke="none" d="M 231 248 C 231 238.6111584 275.3238048 231 330 231 C 384.6761952 231 429 238.6111584 429 248 C 429 257.3888416 384.6761952 265 330 265 C 275.3238048 265 231 257.3888416 231 248 Z" opacity="0.2"/></g><g transform="translate(-94,-30) scale(1,1)"><path fill="#a3e0ff" stroke="none" d="M 224 241 C 224 231.6111584 268.3238048 224 323 224 C 377.6761952 224 422 231.6111584 422 241 C 422 250.3888416 377.6761952 258 323 258 C 268.3238048 258 224 250.3888416 224 241 Z"/></g><g transform="translate(-94,-30) scale(1,1)"><path fill="none" stroke="#000000" d="M 224 241 C 224 231.6111584 268.3238048 224 323 224 C 377.6761952 224 422 231.6111584 422 241 C 422 250.3888416 377.6761952 258 323 258 C 268.3238048 258 224 250.3888416 224 241 Z" stroke-miterlimit="10"/></g><g transform="translate(-94,-30) scale(1,1)"><g><path fill="none" stroke="none"/><text fill="#000000" stroke="none" font-family="Arial" font-size="13px" font-style="normal" font-weight="bold" text-decoration="none" x="263.385986328125" y="248">identifier emprunteur</text></g></g><g transform="translate(-94,-30) scale(1,1)"><path fill="#C0C0C0" stroke="none" d="M 375 296 C 375 286.6111584 429.1735392 279 496 279 C 562.8264608 279 617 286.6111584 617 296 C 617 305.3888416 562.8264608 313 496 313 C 429.1735392 313 375 305.3888416 375 296 Z" opacity="0.2"/></g><g transform="translate(-94,-30) scale(1,1)"><path fill="#a3e0ff" stroke="none" d="M 368 289 C 368 279.6111584 422.1735392 272 489 272 C 555.8264608 272 610 279.6111584 610 289 C 610 298.3888416 555.8264608 306 489 306 C 422.1735392 306 368 298.3888416 368 289 Z"/></g><g transform="translate(-94,-30) scale(1,1)"><path fill="none" stroke="#000000" d="M 368 289 C 368 279.6111584 422.1735392 272 489 272 C 555.8264608 272 610 279.6111584 610 289 C 610 298.3888416 555.8264608 306 489 306 C 422.1735392 306 368 298.3888416 368 289 Z" stroke-miterlimit="10"/></g><g transform="translate(-94,-30) scale(1,1)"><g><path fill="none" stroke="none"/><text fill="#000000" stroke="none" font-family="Arial" font-size="13px" font-style="normal" font-weight="bold" text-decoration="none" x="414.945068359375" y="296">vérifier droits à emprunter</text></g></g><g transform="translate(-94,-30) scale(1,1)"><path fill="none" stroke="#000000" d="M 356 195 L 336 223" stroke-miterlimit="10" stroke-dasharray="3"/></g><g transform="translate(-94,-30) scale(1,1)"><path fill="none" stroke="#000000" d="M 338.4815092818907 212.28355881442488 L 336 223 L 345.33236027330923 217.17702380829527" stroke-miterlimit="10"/></g><g transform="translate(-94,-30) scale(1,1)"><g><path fill="none" stroke="none"/><text fill="#000000" stroke="none" font-family="Arial" font-size="13px" font-style="normal" font-weight="normal" text-decoration="none" x="345.5" y="218.5">«include»</text></g></g><g transform="translate(-94,-30) scale(1,1)"><path fill="none" stroke="#000000" d="M 398 195 L 432 216 L 475 271" stroke-miterlimit="10" stroke-dasharray="3"/></g><g transform="translate(-94,-30) scale(1,1)"><path fill="none" stroke="#000000" d="M 465.4242970628824 265.5865063720296 L 475 271 L 472.05687357278424 260.4010374642881" stroke-miterlimit="10"/></g><g transform="translate(-94,-30) scale(1,1)"><g><path fill="none" stroke="none"/><text fill="#000000" stroke="none" font-family="Arial" font-size="13px" font-style="normal" font-weight="normal" text-decoration="none" x="436.5" y="232.5">«include»</text></g></g><g transform="translate(-94,-30) scale(1,1)"><path fill="#C0C0C0" stroke="none" d="M 487 208 C 487 198.6111584 521.697928 191 564.5 191 C 607.302072 191 642 198.6111584 642 208 C 642 217.3888416 607.302072 225 564.5 225 C 521.697928 225 487 217.3888416 487 208 Z" opacity="0.2"/></g><g transform="translate(-94,-30) scale(1,1)"><path fill="#ffffff" stroke="none" d="M 480 201 C 480 191.6111584 514.697928 184 557.5 184 C 600.302072 184 635 191.6111584 635 201 C 635 210.3888416 600.302072 218 557.5 218 C 514.697928 218 480 210.3888416 480 201 Z"/></g><g transform="translate(-94,-30) scale(1,1)"><path fill="none" stroke="#000000" d="M 480 201 C 480 191.6111584 514.697928 184 557.5 184 C 600.302072 184 635 191.6111584 635 201 C 635 210.3888416 600.302072 218 557.5 218 C 514.697928 218 480 210.3888416 480 201 Z" stroke-miterlimit="10"/></g><g transform="translate(-94,-30) scale(1,1)"><g><path fill="none" stroke="none"/><text fill="#000000" stroke="none" font-family="Arial" font-size="13px" font-style="normal" font-weight="bold" text-decoration="none" x="511.62548828125" y="208">vérifier état livre</text></g></g><g transform="translate(-94,-30) scale(1,1)"><path fill="none" stroke="#000000" d="M 594 123 L 566 183" stroke-miterlimit="10" stroke-dasharray="3"/></g><g transform="translate(-94,-30) scale(1,1)"><path fill="none" stroke="#000000" d="M 566.4830534681629 172.01061151169475 L 566 183 L 574.1122415041878 175.57089926183966" stroke-miterlimit="10"/></g><g transform="translate(-94,-30) scale(1,1)"><g><path fill="none" stroke="none"/><text fill="#000000" stroke="none" font-family="Arial" font-size="13px" font-style="normal" font-weight="normal" text-decoration="none" x="579.5" y="171.5">«include»</text></g></g><g transform="translate(-94,-30) scale(1,1)"><path fill="#C0C0C0" stroke="none" d="M 583 256 C 583 246.6111584 622.8466528 239 672 239 C 721.1533472 239 761 246.6111584 761 256 C 761 265.3888416 721.1533472 273 672 273 C 622.8466528 273 583 265.3888416 583 256 Z" opacity="0.2"/></g><g transform="translate(-94,-30) scale(1,1)"><path fill="#ffffff" stroke="none" d="M 576 249 C 576 239.6111584 615.8466528 232 665 232 C 714.1533472 232 754 239.6111584 754 249 C 754 258.3888416 714.1533472 266 665 266 C 615.8466528 266 576 258.3888416 576 249 Z"/></g><g transform="translate(-94,-30) scale(1,1)"><path fill="none" stroke="#000000" d="M 576 249 C 576 239.6111584 615.8466528 232 665 232 C 714.1533472 232 754 239.6111584 754 249 C 754 258.3888416 714.1533472 266 665 266 C 615.8466528 266 576 258.3888416 576 249 Z" stroke-miterlimit="10"/></g><g transform="translate(-94,-30) scale(1,1)"><g><path fill="none" stroke="none"/><text fill="#000000" stroke="none" font-family="Arial" font-size="13px" font-style="normal" font-weight="bold" text-decoration="none" x="611.16552734375" y="256">lancer restauration</text></g></g><g transform="translate(-94,-30) scale(1,1)"><path fill="none" stroke="#000000" d="M 667 231 L 672 192 L 617 123" stroke-miterlimit="10" stroke-dasharray="3"/></g><g transform="translate(-94,-30) scale(1,1)"><path fill="none" stroke="#000000" d="M 626.6262474538474 128.32309683899285 L 617 123 L 620.0427869802307 133.57078272375978" stroke-miterlimit="10"/></g><g transform="translate(-94,-30) scale(1,1)"><g><path fill="none" stroke="none"/><text fill="#000000" stroke="none" font-family="Arial" font-size="13px" font-style="normal" font-weight="normal" text-decoration="none" x="678.5" y="195.5">«extend»</text></g></g><g transform="translate(-94,-30) scale(1,1)"><path fill="#ffffff" stroke="none" d="M 736 152 L 794 152 L 804 162 L 804 190 L 736 190 L 736 152"/></g><g transform="translate(-94,-30) scale(1,1)"><path fill="none" stroke="#000000" d="M 736 152 L 794 152 L 804 162 L 804 190 L 736 190 L 736 152 L 736 152" stroke-miterlimit="10"/></g><g transform="translate(-94,-30) scale(1,1)"><path fill="none" stroke="#000000" d="M 794 152 L 794 162 L 804 162 L 794 152" stroke-miterlimit="10"/></g><g transform="translate(-94,-30) scale(1,1)"><g><path fill="none" stroke="none"/><text fill="#000000" stroke="none" font-family="Arial" font-size="13px" font-style="normal" font-weight="normal" text-decoration="none" x="741" y="170">si abimé</text></g></g><g transform="translate(-94,-30) scale(1,1)"><path fill="none" stroke="#000000" d="M 735 167 L 712 165 L 644 157" stroke-miterlimit="10" stroke-dasharray="3"/></g><g transform="translate(-94,-30) scale(1,1)"><path fill="#C0C0C0" stroke="none" d="M 255 440 C 255 430.6111584 300.4430928 423 356.5 423 C 412.5569072 423 458 430.6111584 458 440 C 458 449.3888416 412.5569072 457 356.5 457 C 300.4430928 457 255 449.3888416 255 440 Z" opacity="0.2"/></g><g transform="translate(-94,-30) scale(1,1)"><path fill="#ffffff" stroke="none" d="M 248 433 C 248 423.6111584 293.4430928 416 349.5 416 C 405.5569072 416 451 423.6111584 451 433 C 451 442.3888416 405.5569072 450 349.5 450 C 293.4430928 450 248 442.3888416 248 433 Z"/></g><g transform="translate(-94,-30) scale(1,1)"><path fill="none" stroke="#000000" d="M 248 433 C 248 423.6111584 293.4430928 416 349.5 416 C 405.5569072 416 451 423.6111584 451 433 C 451 442.3888416 405.5569072 450 349.5 450 C 293.4430928 450 248 442.3888416 248 433 Z" stroke-miterlimit="10"/></g><g transform="translate(-94,-30) scale(1,1)"><g><path fill="none" stroke="none"/><text fill="#000000" stroke="none" font-family="Arial" font-size="13px" font-style="normal" font-weight="bold" text-decoration="none" x="287.36279296875" y="440">réintégrer livre réparé</text></g></g><g transform="translate(-94,-30) scale(1,1)"><path fill="none" stroke="#000000" d="M 158 271 L 184 416 L 247 422" stroke-miterlimit="10"/></g><g transform="translate(-94,-30) scale(1,1)"><path fill="none" stroke="#000000" d="M 236.48400263094146 425.22704188599306 L 247 422 L 237.2822037486401 416.8459301501575" stroke-miterlimit="10"/></g></g></svg>