<svg version="1.1" xmlns="http://www.w3.org/2000/svg" xmlns:xlink="http://www.w3.org/1999/xlink" width="567" height="428"><defs/><g><text fill="#eeeeee" stroke="none" font-family="Arial" font-size="24px" font-style="normal" font-weight="normal" text-decoration="none" x="0" y="0">UNREGISTERED</text><text fill="#eeeeee" stroke="none" font-family="Arial" font-size="24px" font-style="normal" font-weight="normal" text-decoration="none" x="0" y="30">UNREGISTERED</text><text fill="#eeeeee" stroke="none" font-family="Arial" font-size="24px" font-style="normal" font-weight="normal" text-decoration="none" x="0" y="60">UNREGISTERED</text><text fill="#eeeeee" stroke="none" font-family="Arial" font-size="24px" font-style="normal" font-weight="normal" text-decoration="none" x="0" y="90">UNREGISTERED</text><text fill="#eeeeee" stroke="none" font-family="Arial" font-size="24px" font-style="normal" font-weight="normal" text-decoration="none" x="0" y="120">UNREGISTERED</text><text fill="#eeeeee" stroke="none" font-family="Arial" font-size="24px" font-style="normal" font-weight="normal" text-decoration="none" x="0" y="150">UNREGISTERED</text><text fill="#eeeeee" stroke="none" font-family="Arial" font-size="24px" font-style="normal" font-weight="normal" text-decoration="none" x="0" y="180">UNREGISTERED</text><text fill="#eeeeee" stroke="none" font-family="Arial" font-size="24px" font-style="normal" font-weight="normal" text-decoration="none" x="0" y="210">UNREGISTERED</text><text fill="#eeeeee" stroke="none" font-family="Arial" font-size="24px" font-style="normal" font-weight="normal" text-decoration="none" x="0" y="240">UNREGISTERED</text><text fill="#eeeeee" stroke="none" font-family="Arial" font-size="24px" font-style="normal" font-weight="normal" text-decoration="none" x="0" y="270">UNREGISTERED</text><text fill="#eeeeee" stroke="none" font-family="Arial" font-size="24px" font-style="normal" font-weight="normal" text-decoration="none" x="0" y="300">UNREGISTERED</text><text fill="#eeeeee" stroke="none" font-family="Arial" font-size="24px" font-style="normal" font-weight="normal" text-decoration="none" x="0" y="330">UNREGISTERED</text><text fill="#eeeeee" stroke="none" font-family="Arial" font-size="24px" font-style="normal" font-weight="normal" text-decoration="none" x="0" y="360">UNREGISTERED</text><text fill="#eeeeee" stroke="none" font-family="Arial" font-size="24px" font-style="normal" font-weight="normal" text-decoration="none" x="0" y="390">UNREGISTERED</text><text fill="#eeeeee" stroke="none" font-family="Arial" font-size="24px" font-style="normal" font-weight="normal" text-decoration="none" x="0" y="420">UNREGISTERED</text><text fill="#eeeeee" stroke="none" font-family="Arial" font-size="24px" font-style="normal" font-weight="normal" text-decoration="none" x="200" y="0">UNREGISTERED</text><text fill="#eeeeee" stroke="none" font-family="Arial" font-size="24px" font-style="normal" font-weight="normal" text-decoration="none" x="200" y="30">UNREGISTERED</text><text fill="#eeeeee" stroke="none" font-family="Arial" font-size="24px" font-style="normal" font-weight="normal" text-decoration="none" x="200" y="60">UNREGISTERED</text><text fill="#eeeeee" stroke="none" font-family="Arial" font-size="24px" font-style="normal" font-weight="normal" text-decoration="none" x="200" y="90">UNREGISTERED</text><text fill="#eeeeee" stroke="none" font-family="Arial" font-size="24px" font-style="normal" font-weight="normal" text-decoration="none" x="200" y="120">UNREGISTERED</text><text fill="#eeeeee" stroke="none" font-family="Arial" font-size="24px" font-style="normal" font-weight="normal" text-decoration="none" x="200" y="150">UNREGISTERED</text><text fill="#eeeeee" stroke="none" font-family="Arial" font-size="24px" font-style="normal" font-weight="normal" text-decoration="none" x="200" y="180">UNREGISTERED</text><text fill="#eeeeee" stroke="none" font-family="Arial" font-size="24px" font-style="normal" font-weight="normal" text-decoration="none" x="200" y="210">UNREGISTERED</text><text fill="#eeeeee" stroke="none" font-family="Arial" font-size="24px" font-style="normal" font-weight="normal" text-decoration="none" x="200" y="240">UNREGISTERED</text><text fill="#eeeeee" stroke="none" font-family="Arial" font-size="24px" font-style="normal" font-weight="normal" text-decoration="none" x="200" y="270">UNREGISTERED</text><text fill="#eeeeee" stroke="none" font-family="Arial" font-size="24px" font-style="normal" font-weight="normal" text-decoration="none" x="200" y="300">UNREGISTERED</text><text fill="#eeeeee" stroke="none" font-family="Arial" font-size="24px" font-style="normal" font-weight="normal" text-decoration="none" x="200" y="330">UNREGISTERED</text><text fill="#eeeeee" stroke="none" font-family="Arial" font-size="24px" font-style="normal" font-weight="normal" text-decoration="none" x="200" y="360">UNREGISTERED</text><text fill="#eeeeee" stroke="none" font-family="Arial" font-size="24px" font-style="normal" font-weight="normal" text-decoration="none" x="200" y="390">UNREGISTERED</text><text fill="#eeeeee" stroke="none" font-family="Arial" font-size="24px" font-style="normal" font-weight="normal" text-decoration="none" x="200" y="420">UNREGISTERED</text><text fill="#eeeeee" stroke="none" font-family="Arial" font-size="24px" font-style="normal" font-weight="normal" text-decoration="none" x="400" y="0">UNREGISTERED</text><text fill="#eeeeee" stroke="none" font-family="Arial" font-size="24px" font-style="normal" font-weight="normal" text-decoration="none" x="400" y="30">UNREGISTERED</text><text fill="#eeeeee" stroke="none" font-family="Arial" font-size="24px" font-style="normal" font-weight="normal" text-decoration="none" x="400" y="60">UNREGISTERED</text><text fill="#eeeeee" stroke="none" font-family="Arial" font-size="24px" font-style="normal" font-weight="normal" text-decoration="none" x="400" y="90">UNREGISTERED</text><text fill="#eeeeee" stroke="none" font-family="Arial" font-size="24px" font-style="normal" font-weight="normal" text-decoration="none" x="400" y="120">UNREGISTERED</text><text fill="#eeeeee" stroke="none" font-family="Arial" font-size="24px" font-style="normal" font-weight="normal" text-decoration="none" x="400" y="150">UNREGISTERED</text><text fill="#eeeeee" stroke="none" font-family="Arial" font-size="24px" font-style="normal" font-weight="normal" text-decoration="none" x="400" y="180">UNREGISTERED</text><text fill="#eeeeee" stroke="none" font-family="Arial" font-size="24px" font-style="normal" font-weight="normal" text-decoration="none" x="400" y="210">UNREGISTERED</text><text fill="#eeeeee" stroke="none" font-family="Arial" font-size="24px" font-style="normal" font-weight="normal" text-decoration="none" x="400" y="240">UNREGISTERED</text><text fill="#eeeeee" stroke="none" font-family="Arial" font-size="24px" font-style="normal" font-weight="normal" text-decoration="none" x="400" y="270">UNREGISTERED</text><text fill="#eeeeee" stroke="none" font-family="Arial" font-size="24px" font-style="normal" font-weight="normal" text-decoration="none" x="400" y="300">UNREGISTERED</text><text fill="#eeeeee" stroke="none" font-family="Arial" font-size="24px" font-style="normal" font-weight="normal" text-decoration="none" x="400" y="330">UNREGISTERED</text><text fill="#eeeeee" stroke="none" font-family="Arial" font-size="24px" font-style="normal" font-weight="normal" text-decoration="none" x="400" y="360">UNREGISTERED</text><text fill="#eeeeee" stroke="none" font-family="Arial" font-size="24px" font-style="normal" font-weight="normal" text-decoration="none" x="400" y="390">UNREGISTERED</text><text fill="#eeeeee" stroke="none" font-family="Arial" font-size="24px" font-style="normal" font-weight="normal" text-decoration="none" x="400" y="420">UNREGISTERED</text><g transform="translate(-94,-30) scale(1,1)"><rect fill="#C0C0C0" stroke="none" x="263" y="47" width="395" height="408" opacity="0.2"/></g><g transform="translate(-94,-30) scale(1,1)"><rect fill="#ffffff" stroke="none" x="256" y="40" width="395" height="408"/></g><g transform="translate(-94,-30) scale(1,1)"><path fill="none" stroke="#000000" d="M 256 40 L 651 40 L 651 448 L 256 448 L 256 40 Z Z" stroke-miterlimit="10"/></g><g transform="translate(-94,-30) scale(1,1)"><g><path fill="none" stroke="none"/><text fill="#000000" stroke="none" font-family="Arial" font-size="13px" font-style="normal" font-weight="bold" text-decoration="none" x="394.95556640625" y="59.5">logiciel_bibliotheque</text></g></g><g transform="translate(-94,-30) scale(1,1)"><path fill="#ffffff" stroke="none" d="M 179.99797336647728 113.68 C 179.99797336647728 108.886167936 183.88381569142274 105 188.67724609375 105 C 193.47067649607726 105 197.35651882102272 108.886167936 197.35651882102272 113.68 C 197.35651882102272 118.473832064 193.47067649607726 122.36 188.67724609375 122.36 C 183.88381569142274 122.36 179.99797336647728 118.473832064 179.99797336647728 113.68 Z"/></g><g transform="translate(-94,-30) scale(1,1)"><path fill="none" stroke="#000000" d="M 179.99797336647728 113.68 C 179.99797336647728 108.886167936 183.88381569142274 105 188.67724609375 105 C 193.47067649607726 105 197.35651882102272 108.886167936 197.35651882102272 113.68 C 197.35651882102272 118.473832064 193.47067649607726 122.36 188.67724609375 122.36 C 183.88381569142274 122.36 179.99797336647728 118.473832064 179.99797336647728 113.68 Z" stroke-miterlimit="10"/></g><g transform="translate(-94,-30) scale(1,1)"><path fill="none" stroke="#000000" d="M 188.67724609375 122.36 L 188.67724609375 139.64" stroke-miterlimit="10"/></g><g transform="translate(-94,-30) scale(1,1)"><path fill="none" stroke="#000000" d="M 179.48742791193183 128.84 L 197.86706427556817 128.84" stroke-miterlimit="10"/></g><g transform="translate(-94,-30) scale(1,1)"><path fill="none" stroke="#000000" d="M 188.67724609375 139.64 L 175.91360973011365 157" stroke-miterlimit="10"/></g><g transform="translate(-94,-30) scale(1,1)"><path fill="none" stroke="#000000" d="M 188.67724609375 139.64 L 201.44088245738635 157" stroke-miterlimit="10"/></g><g transform="translate(-94,-30) scale(1,1)"><g><path fill="none" stroke="none"/><text fill="#000000" stroke="none" font-family="Arial" font-size="13px" font-style="normal" font-weight="bold" text-decoration="none" x="113.873291015625" y="177.5">ResponsableAbonnement</text></g></g><g transform="translate(-94,-30) scale(1,1)"><path fill="#C0C0C0" stroke="none" d="M 391 112 C 391 102.6111584 429.7273648 95 477.5 95 C 525.2726352 95 564 102.6111584 564 112 C 564 121.3888416 525.2726352 129 477.5 129 C 429.7273648 129 391 121.3888416 391 112 Z" opacity="0.2"/></g><g transform="translate(-94,-30) scale(1,1)"><path fill="#ffffff" stroke="none" d="M 384 105 C 384 95.6111584 422.7273648 88 470.5 88 C 518.2726352 88 557 95.6111584 557 105 C 557 114.3888416 518.2726352 122 470.5 122 C 422.7273648 122 384 114.3888416 384 105 Z"/></g><g transform="translate(-94,-30) scale(1,1)"><path fill="none" stroke="#000000" d="M 384 105 C 384 95.6111584 422.7273648 88 470.5 88 C 518.2726352 88 557 95.6111584 557 105 C 557 114.3888416 518.2726352 122 470.5 122 C 422.7273648 122 384 114.3888416 384 105 Z" stroke-miterlimit="10"/></g><g transform="translate(-94,-30) scale(1,1)"><g><path fill="none" stroke="none"/><text fill="#000000" stroke="none" font-family="Arial" font-size="13px" font-style="normal" font-weight="bold" text-decoration="none" x="417.379638671875" y="112">gérer abonnement</text></g></g><g transform="translate(-94,-30) scale(1,1)"><path fill="#C0C0C0" stroke="none" d="M 351 200 C 351 190.6111584 388.3842192 183 434.5 183 C 480.6157808 183 518 190.6111584 518 200 C 518 209.3888416 480.6157808 217 434.5 217 C 388.3842192 217 351 209.3888416 351 200 Z" opacity="0.2"/></g><g transform="translate(-94,-30) scale(1,1)"><path fill="#ffffff" stroke="none" d="M 344 193 C 344 183.6111584 381.3842192 176 427.5 176 C 473.6157808 176 511 183.6111584 511 193 C 511 202.3888416 473.6157808 210 427.5 210 C 381.3842192 210 344 202.3888416 344 193 Z"/></g><g transform="translate(-94,-30) scale(1,1)"><path fill="none" stroke="#000000" d="M 344 193 C 344 183.6111584 381.3842192 176 427.5 176 C 473.6157808 176 511 183.6111584 511 193 C 511 202.3888416 473.6157808 210 427.5 210 C 381.3842192 210 344 202.3888416 344 193 Z" stroke-miterlimit="10"/></g><g transform="translate(-94,-30) scale(1,1)"><g><path fill="none" stroke="none"/><text fill="#000000" stroke="none" font-family="Arial" font-size="13px" font-style="normal" font-weight="bold" text-decoration="none" x="377.274169921875" y="200">gérer contentieux</text></g></g><g transform="translate(-94,-30) scale(1,1)"><path fill="none" stroke="#000000" d="M 274 131 L 383 117" stroke-miterlimit="10"/></g><g transform="translate(-94,-30) scale(1,1)"><path fill="none" stroke="#000000" d="M 373.4563952183568 122.46988187914489 L 383 117 L 372.383861772903 114.11944291096853" stroke-miterlimit="10"/></g><g transform="translate(-94,-30) scale(1,1)"><path fill="none" stroke="#000000" d="M 274 161 L 343 175" stroke-miterlimit="10"/></g><g transform="translate(-94,-30) scale(1,1)"><path fill="none" stroke="#000000" d="M 332.2032186949776 177.10464093173115 L 343 175 L 333.8773168494406 168.85372859902037" stroke-miterlimit="10"/></g><g transform="translate(-94,-30) scale(1,1)"><path fill="#C0C0C0" stroke="none" d="M 335 288 C 335 278.6111584 369.0263552 271 411 271 C 452.9736448 271 487 278.6111584 487 288 C 487 297.3888416 452.9736448 305 411 305 C 369.0263552 305 335 297.3888416 335 288 Z" opacity="0.2"/></g><g transform="translate(-94,-30) scale(1,1)"><path fill="#ffffff" stroke="none" d="M 328 281 C 328 271.6111584 362.0263552 264 404 264 C 445.9736448 264 480 271.6111584 480 281 C 480 290.3888416 445.9736448 298 404 298 C 362.0263552 298 328 290.3888416 328 281 Z"/></g><g transform="translate(-94,-30) scale(1,1)"><path fill="none" stroke="#000000" d="M 328 281 C 328 271.6111584 362.0263552 264 404 264 C 445.9736448 264 480 271.6111584 480 281 C 480 290.3888416 445.9736448 298 404 298 C 362.0263552 298 328 290.3888416 328 281 Z" stroke-miterlimit="10"/></g><g transform="translate(-94,-30) scale(1,1)"><g><path fill="none" stroke="none"/><text fill="#000000" stroke="none" font-family="Arial" font-size="13px" font-style="normal" font-weight="bold" text-decoration="none" x="358.477783203125" y="288">détecter retards</text></g></g><g transform="translate(-94,-30) scale(1,1)"><path fill="none" stroke="#000000" d="M 422 211 L 409 263" stroke-miterlimit="10" stroke-dasharray="3"/></g><g transform="translate(-94,-30) scale(1,1)"><path fill="none" stroke="#000000" d="M 407.38097861840737 252.1197991854035 L 409 263 L 415.5486427788624 254.16171522551727" stroke-miterlimit="10"/></g><g transform="translate(-94,-30) scale(1,1)"><g><path fill="none" stroke="none"/><text fill="#000000" stroke="none" font-family="Arial" font-size="13px" font-style="normal" font-weight="normal" text-decoration="none" x="422.5" y="244.5">«include»</text></g></g><g transform="translate(-94,-30) scale(1,1)"><path fill="#ffffff" stroke="none" d="M 164.01164524147728 350.68 C 164.01164524147728 345.886167936 167.89748756642274 342 172.69091796875 342 C 177.48434837107726 342 181.37019069602272 345.886167936 181.37019069602272 350.68 C 181.37019069602272 355.473832064 177.48434837107726 359.36 172.69091796875 359.36 C 167.89748756642274 359.36 164.01164524147728 355.473832064 164.01164524147728 350.68 Z"/></g><g transform="translate(-94,-30) scale(1,1)"><path fill="none" stroke="#000000" d="M 164.01164524147728 350.68 C 164.01164524147728 345.886167936 167.89748756642274 342 172.69091796875 342 C 177.48434837107726 342 181.37019069602272 345.886167936 181.37019069602272 350.68 C 181.37019069602272 355.473832064 177.48434837107726 359.36 172.69091796875 359.36 C 167.89748756642274 359.36 164.01164524147728 355.473832064 164.01164524147728 350.68 Z" stroke-miterlimit="10"/></g><g transform="translate(-94,-30) scale(1,1)"><path fill="none" stroke="#000000" d="M 172.69091796875 359.36 L 172.69091796875 376.64" stroke-miterlimit="10"/></g><g transform="translate(-94,-30) scale(1,1)"><path fill="none" stroke="#000000" d="M 163.50109978693183 365.84 L 181.88073615056817 365.84" stroke-miterlimit="10"/></g><g transform="translate(-94,-30) scale(1,1)"><path fill="none" stroke="#000000" d="M 172.69091796875 376.64 L 159.92728160511365 394" stroke-miterlimit="10"/></g><g transform="translate(-94,-30) scale(1,1)"><path fill="none" stroke="#000000" d="M 172.69091796875 376.64 L 185.45455433238635 394" stroke-miterlimit="10"/></g><g transform="translate(-94,-30) scale(1,1)"><g><path fill="none" stroke="none"/><text fill="#000000" stroke="none" font-family="Arial" font-size="13px" font-style="normal" font-weight="bold" text-decoration="none" x="150.280517578125" y="414.5">Abonné</text></g></g><g transform="translate(-94,-30) scale(1,1)"><path fill="#C0C0C0" stroke="none" d="M 311 360 C 311 350.6111584 353.532944 343 406 343 C 458.467056 343 501 350.6111584 501 360 C 501 369.3888416 458.467056 377 406 377 C 353.532944 377 311 369.3888416 311 360 Z" opacity="0.2"/></g><g transform="translate(-94,-30) scale(1,1)"><path fill="#ffffff" stroke="none" d="M 304 353 C 304 343.6111584 346.532944 336 399 336 C 451.467056 336 494 343.6111584 494 353 C 494 362.3888416 451.467056 370 399 370 C 346.532944 370 304 362.3888416 304 353 Z"/></g><g transform="translate(-94,-30) scale(1,1)"><path fill="none" stroke="#000000" d="M 304 353 C 304 343.6111584 346.532944 336 399 336 C 451.467056 336 494 343.6111584 494 353 C 494 362.3888416 451.467056 370 399 370 C 346.532944 370 304 362.3888416 304 353 Z" stroke-miterlimit="10"/></g><g transform="translate(-94,-30) scale(1,1)"><g><path fill="none" stroke="none"/><text fill="#000000" stroke="none" font-family="Arial" font-size="13px" font-style="normal" font-weight="bold" text-decoration="none" x="342.286865234375" y="360">consulter liste livres</text></g></g><g transform="translate(-94,-30) scale(1,1)"><path fill="none" stroke="#000000" d="M 202 376 L 303 364" stroke-miterlimit="10"/></g><g transform="translate(-94,-30) scale(1,1)"><path fill="none" stroke="#000000" d="M 293.4049516522142 369.37913071077963 L 303 364 L 292.41165644498676 361.018896049949" stroke-miterlimit="10"/></g><g transform="translate(-94,-30) scale(1,1)"><path fill="#C0C0C0" stroke="none" d="M 431 432 C 431 422.6111584 474.652232 415 528.5 415 C 582.347768 415 626 422.6111584 626 432 C 626 441.3888416 582.347768 449 528.5 449 C 474.652232 449 431 441.3888416 431 432 Z" opacity="0.2"/></g><g transform="translate(-94,-30) scale(1,1)"><path fill="#ffffff" stroke="none" d="M 424 425 C 424 415.6111584 467.652232 408 521.5 408 C 575.347768 408 619 415.6111584 619 425 C 619 434.3888416 575.347768 442 521.5 442 C 467.652232 442 424 434.3888416 424 425 Z"/></g><g transform="translate(-94,-30) scale(1,1)"><path fill="none" stroke="#000000" d="M 424 425 C 424 415.6111584 467.652232 408 521.5 408 C 575.347768 408 619 415.6111584 619 425 C 619 434.3888416 575.347768 442 521.5 442 C 467.652232 442 424 434.3888416 424 425 Z" stroke-miterlimit="10"/></g><g transform="translate(-94,-30) scale(1,1)"><g><path fill="none" stroke="none"/><text fill="#000000" stroke="none" font-family="Arial" font-size="13px" font-style="normal" font-weight="bold" text-decoration="none" x="462.365234375" y="432">effectuer réservation</text></g></g><g transform="translate(-94,-30) scale(1,1)"><path fill="none" stroke="#000000" d="M 491 407 L 430 371" stroke-miterlimit="10" stroke-dasharray="3"/></g><g transform="translate(-94,-30) scale(1,1)"><path fill="none" stroke="#000000" d="M 440.8916739170106 372.53994781908676 L 430 371 L 436.6126689396412 379.7904840307406" stroke-miterlimit="10"/></g><g transform="translate(-94,-30) scale(1,1)"><g><path fill="none" stroke="none"/><text fill="#000000" stroke="none" font-family="Arial" font-size="13px" font-style="normal" font-weight="normal" text-decoration="none" x="478.5" y="387.5">«extend»</text></g></g><g transform="translate(-94,-30) scale(1,1)"><path fill="#C0C0C0" stroke="none" d="M 487 160 C 487 150.6111584 520.57864 143 562 143 C 603.42136 143 637 150.6111584 637 160 C 637 169.3888416 603.42136 177 562 177 C 520.57864 177 487 169.3888416 487 160 Z" opacity="0.2"/></g><g transform="translate(-94,-30) scale(1,1)"><path fill="#a3e0ff" stroke="none" d="M 480 153 C 480 143.6111584 513.57864 136 555 136 C 596.42136 136 630 143.6111584 630 153 C 630 162.3888416 596.42136 170 555 170 C 513.57864 170 480 162.3888416 480 153 Z"/></g><g transform="translate(-94,-30) scale(1,1)"><path fill="none" stroke="#000000" d="M 480 153 C 480 143.6111584 513.57864 136 555 136 C 596.42136 136 630 143.6111584 630 153 C 630 162.3888416 596.42136 170 555 170 C 513.57864 170 480 162.3888416 480 153 Z" stroke-miterlimit="10"/></g><g transform="translate(-94,-30) scale(1,1)"><g><path fill="none" stroke="none"/><text fill="#000000" stroke="none" font-family="Arial" font-size="13px" font-style="normal" font-weight="bold" text-decoration="none" x="510.556884765625" y="160">inscrire abonné</text></g></g><g transform="translate(-94,-30) scale(1,1)"><path fill="none" stroke="#000000" d="M 523 135 L 502 123" stroke-miterlimit="10"/></g><g transform="translate(-94,-30) scale(1,1)"><path fill="#FFFFFF" stroke="none" d="M 523.8243568424737 125.77442758283063 L 502 123 L 515.4703341606177 140.3939672760787"/></g><g transform="translate(-94,-30) scale(1,1)"><path fill="none" stroke="#000000" d="M 523.8243568424737 125.77442758283063 L 502 123 L 515.4703341606177 140.3939672760787 L 523.8243568424737 125.77442758283063" stroke-miterlimit="10"/></g></g></svg>