<svg version="1.1" xmlns="http://www.w3.org/2000/svg" xmlns:xlink="http://www.w3.org/1999/xlink" width="658.68994140625" height="261"><defs/><g><text fill="#eeeeee" stroke="none" font-family="Arial" font-size="24px" font-style="normal" font-weight="normal" text-decoration="none" x="0" y="0">UNREGISTERED</text><text fill="#eeeeee" stroke="none" font-family="Arial" font-size="24px" font-style="normal" font-weight="normal" text-decoration="none" x="0" y="30">UNREGISTERED</text><text fill="#eeeeee" stroke="none" font-family="Arial" font-size="24px" font-style="normal" font-weight="normal" text-decoration="none" x="0" y="60">UNREGISTERED</text><text fill="#eeeeee" stroke="none" font-family="Arial" font-size="24px" font-style="normal" font-weight="normal" text-decoration="none" x="0" y="90">UNREGISTERED</text><text fill="#eeeeee" stroke="none" font-family="Arial" font-size="24px" font-style="normal" font-weight="normal" text-decoration="none" x="0" y="120">UNREGISTERED</text><text fill="#eeeeee" stroke="none" font-family="Arial" font-size="24px" font-style="normal" font-weight="normal" text-decoration="none" x="0" y="150">UNREGISTERED</text><text fill="#eeeeee" stroke="none" font-family="Arial" font-size="24px" font-style="normal" font-weight="normal" text-decoration="none" x="0" y="180">UNREGISTERED</text><text fill="#eeeeee" stroke="none" font-family="Arial" font-size="24px" font-style="normal" font-weight="normal" text-decoration="none" x="0" y="210">UNREGISTERED</text><text fill="#eeeeee" stroke="none" font-family="Arial" font-size="24px" font-style="normal" font-weight="normal" text-decoration="none" x="0" y="240">UNREGISTERED</text><text fill="#eeeeee" stroke="none" font-family="Arial" font-size="24px" font-style="normal" font-weight="normal" text-decoration="none" x="200" y="0">UNREGISTERED</text><text fill="#eeeeee" stroke="none" font-family="Arial" font-size="24px" font-style="normal" font-weight="normal" text-decoration="none" x="200" y="30">UNREGISTERED</text><text fill="#eeeeee" stroke="none" font-family="Arial" font-size="24px" font-style="normal" font-weight="normal" text-decoration="none" x="200" y="60">UNREGISTERED</text><text fill="#eeeeee" stroke="none" font-family="Arial" font-size="24px" font-style="normal" font-weight="normal" text-decoration="none" x="200" y="90">UNREGISTERED</text><text fill="#eeeeee" stroke="none" font-family="Arial" font-size="24px" font-style="normal" font-weight="normal" text-decoration="none" x="200" y="120">UNREGISTERED</text><text fill="#eeeeee" stroke="none" font-family="Arial" font-size="24px" font-style="normal" font-weight="normal" text-decoration="none" x="200" y="150">UNREGISTERED</text><text fill="#eeeeee" stroke="none" font-family="Arial" font-size="24px" font-style="normal" font-weight="normal" text-decoration="none" x="200" y="180">UNREGISTERED</text><text fill="#eeeeee" stroke="none" font-family="Arial" font-size="24px" font-style="normal" font-weight="normal" text-decoration="none" x="200" y="210">UNREGISTERED</text><text fill="#eeeeee" stroke="none" font-family="Arial" font-size="24px" font-style="normal" font-weight="normal" text-decoration="none" x="200" y="240">UNREGISTERED</text><text fill="#eeeeee" stroke="none" font-family="Arial" font-size="24px" font-style="normal" font-weight="normal" text-decoration="none" x="400" y="0">UNREGISTERED</text><text fill="#eeeeee" stroke="none" font-family="Arial" font-size="24px" font-style="normal" font-weight="normal" text-decoration="none" x="400" y="30">UNREGISTERED</text><text fill="#eeeeee" stroke="none" font-family="Arial" font-size="24px" font-style="normal" font-weight="normal" text-decoration="none" x="400" y="60">UNREGISTERED</text><text fill="#eeeeee" stroke="none" font-family="Arial" font-size="24px" font-style="normal" font-weight="normal" text-decoration="none" x="400" y="90">UNREGISTERED</text><text fill="#eeeeee" stroke="none" font-family="Arial" font-size="24px" font-style="normal" font-weight="normal" text-decoration="none" x="400" y="120">UNREGISTERED</text><text fill="#eeeeee" stroke="none" font-family="Arial" font-size="24px" font-style="normal" font-weight="normal" text-decoration="none" x="400" y="150">UNREGISTERED</text><text fill="#eeeeee" stroke="none" font-family="Arial" font-size="24px" font-style="normal" font-weight="normal" text-decoration="none" x="400" y="180">UNREGISTERED</text><text fill="#eeeeee" stroke="none" font-family="Arial" font-size="24px" font-style="normal" font-weight="normal" text-decoration="none" x="400" y="210">UNREGISTERED</text><text fill="#eeeeee" stroke="none" font-family="Arial" font-size="24px" font-style="normal" font-weight="normal" text-decoration="none" x="400" y="240">UNREGISTERED</text><text fill="#eeeeee" stroke="none" font-family="Arial" font-size="24px" font-style="normal" font-weight="normal" text-decoration="none" x="600" y="0">UNREGISTERED</text><text fill="#eeeeee" stroke="none" font-family="Arial" font-size="24px" font-style="normal" font-weight="normal" text-decoration="none" x="600" y="30">UNREGISTERED</text><text fill="#eeeeee" stroke="none" font-family="Arial" font-size="24px" font-style="normal" font-weight="normal" text-decoration="none" x="600" y="60">UNREGISTERED</text><text fill="#eeeeee" stroke="none" font-family="Arial" font-size="24px" font-style="normal" font-weight="normal" text-decoration="none" x="600" y="90">UNREGISTERED</text><text fill="#eeeeee" stroke="none" font-family="Arial" font-size="24px" font-style="normal" font-weight="normal" text-decoration="none" x="600" y="120">UNREGISTERED</text><text fill="#eeeeee" stroke="none" font-family="Arial" font-size="24px" font-style="normal" font-weight="normal" text-decoration="none" x="600" y="150">UNREGISTERED</text><text fill="#eeeeee" stroke="none" font-family="Arial" font-size="24px" font-style="normal" font-weight="normal" text-decoration="none" x="600" y="180">UNREGISTERED</text><text fill="#eeeeee" stroke="none" font-family="Arial" font-size="24px" font-style="normal" font-weight="normal" text-decoration="none" x="600" y="210">UNREGISTERED</text><text fill="#eeeeee" stroke="none" font-family="Arial" font-size="24px" font-style="normal" font-weight="normal" text-decoration="none" x="600" y="240">UNREGISTERED</text><g transform="translate(-302,-430) scale(1,1)"><rect fill="#C0C0C0" stroke="none" x="607" y="455" width="224.72705078125" height="91" opacity="0.2"/></g><g transform="translate(-302,-430) scale(1,1)"><rect fill="#ffffff" stroke="none" x="600" y="448" width="224.72705078125" height="91"/></g><g transform="translate(-302,-430) scale(1,1)"><path fill="none" stroke="#000000" d="M 600 448 L 824.72705078125 448 L 824.72705078125 539 L 600 539 L 600 448 Z Z" stroke-miterlimit="10"/></g><g transform="translate(-302,-430) scale(1,1)"><path fill="none" stroke="#000000" d="M 600 486 L 824.72705078125 486" stroke-miterlimit="10"/></g><g transform="translate(-302,-430) scale(1,1)"><g><path fill="none" stroke="none"/><text fill="#000000" stroke="none" font-family="Arial" font-size="13px" font-style="normal" font-weight="normal" text-decoration="none" x="680.203125" y="465.5">«interface»</text></g></g><g transform="translate(-302,-430) scale(1,1)"><g><path fill="none" stroke="none"/><text fill="#000000" stroke="none" font-family="Arial" font-size="13px" font-style="normal" font-weight="bold" text-decoration="none" x="681.17431640625" y="480.5">Traducteur</text></g></g><g transform="translate(-302,-430) scale(1,1)"><g><path fill="none" stroke="none"/><text fill="#000000" stroke="none" font-family="Arial" font-size="13px" font-style="normal" font-weight="normal" text-decoration="none" x="605" y="503.5">+traduire(texte: String): String</text></g></g><g transform="translate(-302,-430) scale(1,1)"><g><path fill="none" stroke="none"/><text fill="#000000" stroke="none" font-family="Arial" font-size="13px" font-style="normal" font-weight="normal" text-decoration="none" x="605" y="518.5">+traduireEnMaj(texte: String): String</text></g></g><g transform="translate(-302,-430) scale(1,1)"><rect fill="#C0C0C0" stroke="none" x="559" y="623" width="129.65625" height="57" opacity="0.2"/></g><g transform="translate(-302,-430) scale(1,1)"><rect fill="#ffffff" stroke="none" x="552" y="616" width="129.65625" height="57"/></g><g transform="translate(-302,-430) scale(1,1)"><path fill="none" stroke="#000000" d="M 552 616 L 681.65625 616 L 681.65625 673 L 552 673 L 552 616 Z Z" stroke-miterlimit="10"/></g><g transform="translate(-302,-430) scale(1,1)"><path fill="none" stroke="#000000" d="M 552 641 L 681.65625 641" stroke-miterlimit="10"/></g><g transform="translate(-302,-430) scale(1,1)"><path fill="none" stroke="#000000" d="M 552 664 L 681.65625 664" stroke-miterlimit="10"/></g><g transform="translate(-302,-430) scale(1,1)"><g><path fill="none" stroke="none"/><text fill="#000000" stroke="none" font-family="Arial" font-size="13px" font-style="normal" font-weight="bold" text-decoration="none" x="560.71484375" y="635.5">TraducteurFrancais</text></g></g><g transform="translate(-302,-430) scale(1,1)"><g><path fill="none" stroke="none"/><text fill="#000000" stroke="none" font-family="Arial" font-size="13px" font-style="normal" font-weight="normal" text-decoration="none" x="557" y="658.5">-mapTradFr</text></g></g><g transform="translate(-302,-430) scale(1,1)"><rect fill="#C0C0C0" stroke="none" x="823" y="631" width="134.68994140625" height="57" opacity="0.2"/></g><g transform="translate(-302,-430) scale(1,1)"><rect fill="#ffffff" stroke="none" x="816" y="624" width="134.68994140625" height="57"/></g><g transform="translate(-302,-430) scale(1,1)"><path fill="none" stroke="#000000" d="M 816 624 L 950.68994140625 624 L 950.68994140625 681 L 816 681 L 816 624 Z Z" stroke-miterlimit="10"/></g><g transform="translate(-302,-430) scale(1,1)"><path fill="none" stroke="#000000" d="M 816 649 L 950.68994140625 649" stroke-miterlimit="10"/></g><g transform="translate(-302,-430) scale(1,1)"><path fill="none" stroke="#000000" d="M 816 672 L 950.68994140625 672" stroke-miterlimit="10"/></g><g transform="translate(-302,-430) scale(1,1)"><g><path fill="none" stroke="none"/><text fill="#000000" stroke="none" font-family="Arial" font-size="13px" font-style="normal" font-weight="bold" text-decoration="none" x="825.05126953125" y="643.5">TraducteurEspagnol</text></g></g><g transform="translate(-302,-430) scale(1,1)"><g><path fill="none" stroke="none"/><text fill="#000000" stroke="none" font-family="Arial" font-size="13px" font-style="normal" font-weight="normal" text-decoration="none" x="821" y="666.5">-mapTradEs</text></g></g><g transform="translate(-302,-430) scale(1,1)"><path fill="none" stroke="#000000" d="M 634 615 L 682 540" stroke-miterlimit="10" stroke-dasharray="3"/></g><g transform="translate(-302,-430) scale(1,1)"><path fill="#FFFFFF" stroke="none" d="M 678.134657937836 561.6577729866776 L 682 540 L 663.9524322719595 552.5811485605168"/></g><g transform="translate(-302,-430) scale(1,1)"><path fill="none" stroke="#000000" d="M 678.134657937836 561.6577729866776 L 682 540 L 663.9524322719595 552.5811485605168 L 678.134657937836 561.6577729866776" stroke-miterlimit="10"/></g><g transform="translate(-302,-430) scale(1,1)"><path fill="none" stroke="#000000" d="M 852 623 L 763 540" stroke-miterlimit="10" stroke-dasharray="3"/></g><g transform="translate(-302,-430) scale(1,1)"><path fill="#FFFFFF" stroke="none" d="M 783.6065030536973 547.705324905412 L 763 540 L 772.1225105539482 560.0194855376732"/></g><g transform="translate(-302,-430) scale(1,1)"><path fill="none" stroke="#000000" d="M 783.6065030536973 547.705324905412 L 763 540 L 772.1225105539482 560.0194855376732 L 783.6065030536973 547.705324905412" stroke-miterlimit="10"/></g><g transform="translate(-302,-430) scale(1,1)"><rect fill="#C0C0C0" stroke="none" x="319" y="447" width="149.78466796875" height="85" opacity="0.2"/></g><g transform="translate(-302,-430) scale(1,1)"><rect fill="#ffffff" stroke="none" x="312" y="440" width="149.78466796875" height="85"/></g><g transform="translate(-302,-430) scale(1,1)"><path fill="none" stroke="#000000" d="M 312 440 L 461.78466796875 440 L 461.78466796875 525 L 312 525 L 312 440 Z Z" stroke-miterlimit="10"/></g><g transform="translate(-302,-430) scale(1,1)"><path fill="none" stroke="#000000" d="M 312 465 L 461.78466796875 465" stroke-miterlimit="10"/></g><g transform="translate(-302,-430) scale(1,1)"><path fill="none" stroke="#000000" d="M 312 503 L 461.78466796875 503" stroke-miterlimit="10"/></g><g transform="translate(-302,-430) scale(1,1)"><g><path fill="none" stroke="none"/><text fill="#000000" stroke="none" font-family="Arial" font-size="13px" font-style="normal" font-weight="bold" text-decoration="none" x="338.472412109375" y="459.5">Texte_a_traduire</text></g></g><g transform="translate(-302,-430) scale(1,1)"><g><path fill="none" stroke="none"/><text fill="#000000" stroke="none" font-family="Arial" font-size="13px" font-style="normal" font-weight="normal" text-decoration="none" x="317" y="482.5">-texteEnAnglais: String</text></g></g><g transform="translate(-302,-430) scale(1,1)"><g><path fill="none" stroke="none"/><text fill="#000000" stroke="none" font-family="Arial" font-size="13px" font-style="normal" font-weight="normal" text-decoration="none" x="317" y="497.5">-texteTraduit: String</text></g></g><g transform="translate(-302,-430) scale(1,1)"><g><path fill="none" stroke="none"/><text fill="#000000" stroke="none" font-family="Arial" font-size="13px" font-style="normal" font-weight="normal" text-decoration="none" x="317" y="520.5">+declencherTraduction()</text></g></g><g transform="translate(-302,-430) scale(1,1)"><path fill="none" stroke="#000000" d="M 463 485 L 599 489" stroke-miterlimit="10" stroke-dasharray="3"/></g><g transform="translate(-302,-430) scale(1,1)"><path fill="none" stroke="#000000" d="M 588.7179620834851 492.9089252082062 L 599 489 L 588.9654737429415 484.4935287866887" stroke-miterlimit="10"/></g></g></svg>