<svg version="1.1" xmlns="http://www.w3.org/2000/svg" xmlns:xlink="http://www.w3.org/1999/xlink" width="672.708984375" height="522"><defs/><g><text fill="#eeeeee" stroke="none" font-family="Arial" font-size="24px" font-style="normal" font-weight="normal" text-decoration="none" x="0" y="0">UNREGISTERED</text><text fill="#eeeeee" stroke="none" font-family="Arial" font-size="24px" font-style="normal" font-weight="normal" text-decoration="none" x="0" y="30">UNREGISTERED</text><text fill="#eeeeee" stroke="none" font-family="Arial" font-size="24px" font-style="normal" font-weight="normal" text-decoration="none" x="0" y="60">UNREGISTERED</text><text fill="#eeeeee" stroke="none" font-family="Arial" font-size="24px" font-style="normal" font-weight="normal" text-decoration="none" x="0" y="90">UNREGISTERED</text><text fill="#eeeeee" stroke="none" font-family="Arial" font-size="24px" font-style="normal" font-weight="normal" text-decoration="none" x="0" y="120">UNREGISTERED</text><text fill="#eeeeee" stroke="none" font-family="Arial" font-size="24px" font-style="normal" font-weight="normal" text-decoration="none" x="0" y="150">UNREGISTERED</text><text fill="#eeeeee" stroke="none" font-family="Arial" font-size="24px" font-style="normal" font-weight="normal" text-decoration="none" x="0" y="180">UNREGISTERED</text><text fill="#eeeeee" stroke="none" font-family="Arial" font-size="24px" font-style="normal" font-weight="normal" text-decoration="none" x="0" y="210">UNREGISTERED</text><text fill="#eeeeee" stroke="none" font-family="Arial" font-size="24px" font-style="normal" font-weight="normal" text-decoration="none" x="0" y="240">UNREGISTERED</text><text fill="#eeeeee" stroke="none" font-family="Arial" font-size="24px" font-style="normal" font-weight="normal" text-decoration="none" x="0" y="270">UNREGISTERED</text><text fill="#eeeeee" stroke="none" font-family="Arial" font-size="24px" font-style="normal" font-weight="normal" text-decoration="none" x="0" y="300">UNREGISTERED</text><text fill="#eeeeee" stroke="none" font-family="Arial" font-size="24px" font-style="normal" font-weight="normal" text-decoration="none" x="0" y="330">UNREGISTERED</text><text fill="#eeeeee" stroke="none" font-family="Arial" font-size="24px" font-style="normal" font-weight="normal" text-decoration="none" x="0" y="360">UNREGISTERED</text><text fill="#eeeeee" stroke="none" font-family="Arial" font-size="24px" font-style="normal" font-weight="normal" text-decoration="none" x="0" y="390">UNREGISTERED</text><text fill="#eeeeee" stroke="none" font-family="Arial" font-size="24px" font-style="normal" font-weight="normal" text-decoration="none" x="0" y="420">UNREGISTERED</text><text fill="#eeeeee" stroke="none" font-family="Arial" font-size="24px" font-style="normal" font-weight="normal" text-decoration="none" x="0" y="450">UNREGISTERED</text><text fill="#eeeeee" stroke="none" font-family="Arial" font-size="24px" font-style="normal" font-weight="normal" text-decoration="none" x="0" y="480">UNREGISTERED</text><text fill="#eeeeee" stroke="none" font-family="Arial" font-size="24px" font-style="normal" font-weight="normal" text-decoration="none" x="0" y="510">UNREGISTERED</text><text fill="#eeeeee" stroke="none" font-family="Arial" font-size="24px" font-style="normal" font-weight="normal" text-decoration="none" x="200" y="0">UNREGISTERED</text><text fill="#eeeeee" stroke="none" font-family="Arial" font-size="24px" font-style="normal" font-weight="normal" text-decoration="none" x="200" y="30">UNREGISTERED</text><text fill="#eeeeee" stroke="none" font-family="Arial" font-size="24px" font-style="normal" font-weight="normal" text-decoration="none" x="200" y="60">UNREGISTERED</text><text fill="#eeeeee" stroke="none" font-family="Arial" font-size="24px" font-style="normal" font-weight="normal" text-decoration="none" x="200" y="90">UNREGISTERED</text><text fill="#eeeeee" stroke="none" font-family="Arial" font-size="24px" font-style="normal" font-weight="normal" text-decoration="none" x="200" y="120">UNREGISTERED</text><text fill="#eeeeee" stroke="none" font-family="Arial" font-size="24px" font-style="normal" font-weight="normal" text-decoration="none" x="200" y="150">UNREGISTERED</text><text fill="#eeeeee" stroke="none" font-family="Arial" font-size="24px" font-style="normal" font-weight="normal" text-decoration="none" x="200" y="180">UNREGISTERED</text><text fill="#eeeeee" stroke="none" font-family="Arial" font-size="24px" font-style="normal" font-weight="normal" text-decoration="none" x="200" y="210">UNREGISTERED</text><text fill="#eeeeee" stroke="none" font-family="Arial" font-size="24px" font-style="normal" font-weight="normal" text-decoration="none" x="200" y="240">UNREGISTERED</text><text fill="#eeeeee" stroke="none" font-family="Arial" font-size="24px" font-style="normal" font-weight="normal" text-decoration="none" x="200" y="270">UNREGISTERED</text><text fill="#eeeeee" stroke="none" font-family="Arial" font-size="24px" font-style="normal" font-weight="normal" text-decoration="none" x="200" y="300">UNREGISTERED</text><text fill="#eeeeee" stroke="none" font-family="Arial" font-size="24px" font-style="normal" font-weight="normal" text-decoration="none" x="200" y="330">UNREGISTERED</text><text fill="#eeeeee" stroke="none" font-family="Arial" font-size="24px" font-style="normal" font-weight="normal" text-decoration="none" x="200" y="360">UNREGISTERED</text><text fill="#eeeeee" stroke="none" font-family="Arial" font-size="24px" font-style="normal" font-weight="normal" text-decoration="none" x="200" y="390">UNREGISTERED</text><text fill="#eeeeee" stroke="none" font-family="Arial" font-size="24px" font-style="normal" font-weight="normal" text-decoration="none" x="200" y="420">UNREGISTERED</text><text fill="#eeeeee" stroke="none" font-family="Arial" font-size="24px" font-style="normal" font-weight="normal" text-decoration="none" x="200" y="450">UNREGISTERED</text><text fill="#eeeeee" stroke="none" font-family="Arial" font-size="24px" font-style="normal" font-weight="normal" text-decoration="none" x="200" y="480">UNREGISTERED</text><text fill="#eeeeee" stroke="none" font-family="Arial" font-size="24px" font-style="normal" font-weight="normal" text-decoration="none" x="200" y="510">UNREGISTERED</text><text fill="#eeeeee" stroke="none" font-family="Arial" font-size="24px" font-style="normal" font-weight="normal" text-decoration="none" x="400" y="0">UNREGISTERED</text><text fill="#eeeeee" stroke="none" font-family="Arial" font-size="24px" font-style="normal" font-weight="normal" text-decoration="none" x="400" y="30">UNREGISTERED</text><text fill="#eeeeee" stroke="none" font-family="Arial" font-size="24px" font-style="normal" font-weight="normal" text-decoration="none" x="400" y="60">UNREGISTERED</text><text fill="#eeeeee" stroke="none" font-family="Arial" font-size="24px" font-style="normal" font-weight="normal" text-decoration="none" x="400" y="90">UNREGISTERED</text><text fill="#eeeeee" stroke="none" font-family="Arial" font-size="24px" font-style="normal" font-weight="normal" text-decoration="none" x="400" y="120">UNREGISTERED</text><text fill="#eeeeee" stroke="none" font-family="Arial" font-size="24px" font-style="normal" font-weight="normal" text-decoration="none" x="400" y="150">UNREGISTERED</text><text fill="#eeeeee" stroke="none" font-family="Arial" font-size="24px" font-style="normal" font-weight="normal" text-decoration="none" x="400" y="180">UNREGISTERED</text><text fill="#eeeeee" stroke="none" font-family="Arial" font-size="24px" font-style="normal" font-weight="normal" text-decoration="none" x="400" y="210">UNREGISTERED</text><text fill="#eeeeee" stroke="none" font-family="Arial" font-size="24px" font-style="normal" font-weight="normal" text-decoration="none" x="400" y="240">UNREGISTERED</text><text fill="#eeeeee" stroke="none" font-family="Arial" font-size="24px" font-style="normal" font-weight="normal" text-decoration="none" x="400" y="270">UNREGISTERED</text><text fill="#eeeeee" stroke="none" font-family="Arial" font-size="24px" font-style="normal" font-weight="normal" text-decoration="none" x="400" y="300">UNREGISTERED</text><text fill="#eeeeee" stroke="none" font-family="Arial" font-size="24px" font-style="normal" font-weight="normal" text-decoration="none" x="400" y="330">UNREGISTERED</text><text fill="#eeeeee" stroke="none" font-family="Arial" font-size="24px" font-style="normal" font-weight="normal" text-decoration="none" x="400" y="360">UNREGISTERED</text><text fill="#eeeeee" stroke="none" font-family="Arial" font-size="24px" font-style="normal" font-weight="normal" text-decoration="none" x="400" y="390">UNREGISTERED</text><text fill="#eeeeee" stroke="none" font-family="Arial" font-size="24px" font-style="normal" font-weight="normal" text-decoration="none" x="400" y="420">UNREGISTERED</text><text fill="#eeeeee" stroke="none" font-family="Arial" font-size="24px" font-style="normal" font-weight="normal" text-decoration="none" x="400" y="450">UNREGISTERED</text><text fill="#eeeeee" stroke="none" font-family="Arial" font-size="24px" font-style="normal" font-weight="normal" text-decoration="none" x="400" y="480">UNREGISTERED</text><text fill="#eeeeee" stroke="none" font-family="Arial" font-size="24px" font-style="normal" font-weight="normal" text-decoration="none" x="400" y="510">UNREGISTERED</text><text fill="#eeeeee" stroke="none" font-family="Arial" font-size="24px" font-style="normal" font-weight="normal" text-decoration="none" x="600" y="0">UNREGISTERED</text><text fill="#eeeeee" stroke="none" font-family="Arial" font-size="24px" font-style="normal" font-weight="normal" text-decoration="none" x="600" y="30">UNREGISTERED</text><text fill="#eeeeee" stroke="none" font-family="Arial" font-size="24px" font-style="normal" font-weight="normal" text-decoration="none" x="600" y="60">UNREGISTERED</text><text fill="#eeeeee" stroke="none" font-family="Arial" font-size="24px" font-style="normal" font-weight="normal" text-decoration="none" x="600" y="90">UNREGISTERED</text><text fill="#eeeeee" stroke="none" font-family="Arial" font-size="24px" font-style="normal" font-weight="normal" text-decoration="none" x="600" y="120">UNREGISTERED</text><text fill="#eeeeee" stroke="none" font-family="Arial" font-size="24px" font-style="normal" font-weight="normal" text-decoration="none" x="600" y="150">UNREGISTERED</text><text fill="#eeeeee" stroke="none" font-family="Arial" font-size="24px" font-style="normal" font-weight="normal" text-decoration="none" x="600" y="180">UNREGISTERED</text><text fill="#eeeeee" stroke="none" font-family="Arial" font-size="24px" font-style="normal" font-weight="normal" text-decoration="none" x="600" y="210">UNREGISTERED</text><text fill="#eeeeee" stroke="none" font-family="Arial" font-size="24px" font-style="normal" font-weight="normal" text-decoration="none" x="600" y="240">UNREGISTERED</text><text fill="#eeeeee" stroke="none" font-family="Arial" font-size="24px" font-style="normal" font-weight="normal" text-decoration="none" x="600" y="270">UNREGISTERED</text><text fill="#eeeeee" stroke="none" font-family="Arial" font-size="24px" font-style="normal" font-weight="normal" text-decoration="none" x="600" y="300">UNREGISTERED</text><text fill="#eeeeee" stroke="none" font-family="Arial" font-size="24px" font-style="normal" font-weight="normal" text-decoration="none" x="600" y="330">UNREGISTERED</text><text fill="#eeeeee" stroke="none" font-family="Arial" font-size="24px" font-style="normal" font-weight="normal" text-decoration="none" x="600" y="360">UNREGISTERED</text><text fill="#eeeeee" stroke="none" font-family="Arial" font-size="24px" font-style="normal" font-weight="normal" text-decoration="none" x="600" y="390">UNREGISTERED</text><text fill="#eeeeee" stroke="none" font-family="Arial" font-size="24px" font-style="normal" font-weight="normal" text-decoration="none" x="600" y="420">UNREGISTERED</text><text fill="#eeeeee" stroke="none" font-family="Arial" font-size="24px" font-style="normal" font-weight="normal" text-decoration="none" x="600" y="450">UNREGISTERED</text><text fill="#eeeeee" stroke="none" font-family="Arial" font-size="24px" font-style="normal" font-weight="normal" text-decoration="none" x="600" y="480">UNREGISTERED</text><text fill="#eeeeee" stroke="none" font-family="Arial" font-size="24px" font-style="normal" font-weight="normal" text-decoration="none" x="600" y="510">UNREGISTERED</text><g transform="translate(-30,-134) scale(1,1)"><path fill="#C0C0C0" stroke="none" d="M 55 249 L 130.18994140625 249 L 130.18994140625 282 L 55 282" opacity="0.2"/></g><g transform="translate(-30,-134) scale(1,1)"><path fill="#C0C0C0" stroke="none" d="M 55 249 L 65 239 L 140.18994140625 239 L 130.18994140625 249" opacity="0.2"/></g><g transform="translate(-30,-134) scale(1,1)"><path fill="#C0C0C0" stroke="none" d="M 140.18994140625 239 L 130.18994140625 249 L 130.18994140625 282 L 140.18994140625 272" opacity="0.2"/></g><g transform="translate(-30,-134) scale(1,1)"><path fill="#ffffff" stroke="none" d="M 48 242 L 123.18994140625 242 L 123.18994140625 275 L 48 275"/></g><g transform="translate(-30,-134) scale(1,1)"><path fill="#ffffff" stroke="none" d="M 48 242 L 58 232 L 133.18994140625 232 L 123.18994140625 242"/></g><g transform="translate(-30,-134) scale(1,1)"><path fill="#ffffff" stroke="none" d="M 133.18994140625 232 L 123.18994140625 242 L 123.18994140625 275 L 133.18994140625 265"/></g><g transform="translate(-30,-134) scale(1,1)"><path fill="none" stroke="#000000" d="M 48 242 L 123.18994140625 242 L 123.18994140625 275 L 48 275 L 48 242" stroke-miterlimit="10"/></g><g transform="translate(-30,-134) scale(1,1)"><path fill="none" stroke="#000000" d="M 48 242 L 58 232 L 133.18994140625 232 L 123.18994140625 242 L 48 242" stroke-miterlimit="10"/></g><g transform="translate(-30,-134) scale(1,1)"><path fill="none" stroke="#000000" d="M 133.18994140625 232 L 123.18994140625 242 L 123.18994140625 275 L 133.18994140625 265 L 133.18994140625 232" stroke-miterlimit="10"/></g><g transform="translate(-30,-134) scale(1,1)"><g><path fill="none" stroke="none"/><text fill="#000000" stroke="none" font-family="Arial" font-size="13px" font-style="normal" font-weight="bold" text-decoration="none" x="54.661376953125" y="261.5">Navigateur</text></g></g><g transform="translate(-30,-134) scale(1,1)"><path fill="#C0C0C0" stroke="none" d="M 151 345 L 248.5908203125 345 L 248.5908203125 378 L 151 378" opacity="0.2"/></g><g transform="translate(-30,-134) scale(1,1)"><path fill="#C0C0C0" stroke="none" d="M 151 345 L 161 335 L 258.5908203125 335 L 248.5908203125 345" opacity="0.2"/></g><g transform="translate(-30,-134) scale(1,1)"><path fill="#C0C0C0" stroke="none" d="M 258.5908203125 335 L 248.5908203125 345 L 248.5908203125 378 L 258.5908203125 368" opacity="0.2"/></g><g transform="translate(-30,-134) scale(1,1)"><path fill="#ffffff" stroke="none" d="M 144 338 L 241.5908203125 338 L 241.5908203125 371 L 144 371"/></g><g transform="translate(-30,-134) scale(1,1)"><path fill="#ffffff" stroke="none" d="M 144 338 L 154 328 L 251.5908203125 328 L 241.5908203125 338"/></g><g transform="translate(-30,-134) scale(1,1)"><path fill="#ffffff" stroke="none" d="M 251.5908203125 328 L 241.5908203125 338 L 241.5908203125 371 L 251.5908203125 361"/></g><g transform="translate(-30,-134) scale(1,1)"><path fill="none" stroke="#000000" d="M 144 338 L 241.5908203125 338 L 241.5908203125 371 L 144 371 L 144 338" stroke-miterlimit="10"/></g><g transform="translate(-30,-134) scale(1,1)"><path fill="none" stroke="#000000" d="M 144 338 L 154 328 L 251.5908203125 328 L 241.5908203125 338 L 144 338" stroke-miterlimit="10"/></g><g transform="translate(-30,-134) scale(1,1)"><path fill="none" stroke="#000000" d="M 251.5908203125 328 L 241.5908203125 338 L 241.5908203125 371 L 251.5908203125 361 L 251.5908203125 328" stroke-miterlimit="10"/></g><g transform="translate(-30,-134) scale(1,1)"><g><path fill="none" stroke="none"/><text fill="#000000" stroke="none" font-family="Arial" font-size="13px" font-style="normal" font-weight="bold" text-decoration="none" x="149.950439453125" y="357.5">Serveur_HTTP</text></g></g><g transform="translate(-30,-134) scale(1,1)"><path fill="none" stroke="#000000" d="M 117 277 L 172 327" stroke-miterlimit="10"/></g><g transform="translate(-30,-134) scale(1,1)"><g><path fill="none" stroke="none"/><text fill="#000000" stroke="none" font-family="Arial" font-size="13px" font-style="normal" font-weight="normal" text-decoration="none" x="143.5" y="296.5">+http ou https</text></g></g><g transform="translate(-30,-134) scale(1,1)"><path fill="#C0C0C0" stroke="none" d="M 148.579443359375 455 L 176.01944335937503 455 L 187.77944335937502 466.76 L 187.77944335937502 504 L 148.579443359375 504" opacity="0.2"/></g><g transform="translate(-30,-134) scale(1,1)"><path fill="#ffffff" stroke="none" d="M 141.57944335937498 448 L 169.019443359375 448 L 180.77944335937502 459.76 L 180.77944335937502 497 L 141.57944335937498 497"/></g><g transform="translate(-30,-134) scale(1,1)"><path fill="none" stroke="#000000" d="M 141.57944335937498 448 L 169.019443359375 448 L 180.77944335937502 459.76 L 180.77944335937502 497 L 141.57944335937498 497 L 141.57944335937498 448" stroke-miterlimit="10"/></g><g transform="translate(-30,-134) scale(1,1)"><path fill="none" stroke="#000000" d="M 169.019443359375 448 L 169.019443359375 459.76 L 180.77944335937502 459.76 L 169.019443359375 448" stroke-miterlimit="10"/></g><g transform="translate(-30,-134) scale(1,1)"><g><path fill="none" stroke="none"/><text fill="#000000" stroke="none" font-family="Arial" font-size="13px" font-style="normal" font-weight="bold" text-decoration="none" x="53.50732421875" y="516.5">index.html et bundle javascipt_et_css</text></g></g><g transform="translate(-30,-134) scale(1,1)"><path fill="none" stroke="#000000" d="M 171 447 L 192 373" stroke-miterlimit="10" stroke-dasharray="3"/></g><g transform="translate(-30,-134) scale(1,1)"><path fill="none" stroke="#000000" d="M 193.2751630599735 383.92583906024976 L 192 373 L 185.1759415571704 381.6274113364813" stroke-miterlimit="10"/></g><g transform="translate(-30,-134) scale(1,1)"><g><path fill="none" stroke="none"/><text fill="#000000" stroke="none" font-family="Arial" font-size="13px" font-style="normal" font-weight="normal" text-decoration="none" x="118.5" y="407.5">«deploy»</text></g></g><g transform="translate(-30,-134) scale(1,1)"><path fill="#ffffff" stroke="none" d="M 232 144 L 405 144 L 415 154 L 415 268 L 232 268 L 232 144"/></g><g transform="translate(-30,-134) scale(1,1)"><path fill="none" stroke="#000000" d="M 232 144 L 405 144 L 415 154 L 415 268 L 232 268 L 232 144 L 232 144" stroke-miterlimit="10"/></g><g transform="translate(-30,-134) scale(1,1)"><path fill="none" stroke="#000000" d="M 405 144 L 405 154 L 415 154 L 405 144" stroke-miterlimit="10"/></g><g transform="translate(-30,-134) scale(1,1)"><g><path fill="none" stroke="none"/><text fill="#000000" stroke="none" font-family="Arial" font-size="13px" font-style="normal" font-weight="normal" text-decoration="none" x="237" y="162">exemples:</text></g></g><g transform="translate(-30,-134) scale(1,1)"><g><path fill="none" stroke="none"/><text fill="#000000" stroke="none" font-family="Arial" font-size="13px" font-style="normal" font-weight="normal" text-decoration="none" x="237" y="177">- lite-server (pour tests)</text></g></g><g transform="translate(-30,-134) scale(1,1)"><g><path fill="none" stroke="none"/><text fill="#000000" stroke="none" font-family="Arial" font-size="13px" font-style="normal" font-weight="normal" text-decoration="none" x="237" y="192">- apache </text></g></g><g transform="translate(-30,-134) scale(1,1)"><g><path fill="none" stroke="none"/><text fill="#000000" stroke="none" font-family="Arial" font-size="13px" font-style="normal" font-weight="normal" text-decoration="none" x="237" y="207">- nginx</text></g></g><g transform="translate(-30,-134) scale(1,1)"><g><path fill="none" stroke="none"/><text fill="#000000" stroke="none" font-family="Arial" font-size="13px" font-style="normal" font-weight="normal" text-decoration="none" x="237" y="222">- ....</text></g></g><g transform="translate(-30,-134) scale(1,1)"><g><path fill="none" stroke="none"/><text fill="#000000" stroke="none" font-family="Arial" font-size="13px" font-style="normal" font-weight="normal" text-decoration="none" x="237" y="237">avec config "reverse_proxy"</text><text fill="#000000" stroke="none" font-family="Arial" font-size="13px" font-style="normal" font-weight="normal" text-decoration="none" x="237" y="250">pour rediriger vers des WS en</text><text fill="#000000" stroke="none" font-family="Arial" font-size="13px" font-style="normal" font-weight="normal" text-decoration="none" x="237" y="263">arrière plan</text></g></g><g transform="translate(-30,-134) scale(1,1)"><path fill="none" stroke="#000000" d="M 268 270 L 218 327" stroke-miterlimit="10" stroke-dasharray="3"/></g><g transform="translate(-30,-134) scale(1,1)"><path fill="#C0C0C0" stroke="none" d="M 343 345 L 437.71533203125 345 L 437.71533203125 378 L 343 378" opacity="0.2"/></g><g transform="translate(-30,-134) scale(1,1)"><path fill="#C0C0C0" stroke="none" d="M 343 345 L 353 335 L 447.71533203125 335 L 437.71533203125 345" opacity="0.2"/></g><g transform="translate(-30,-134) scale(1,1)"><path fill="#C0C0C0" stroke="none" d="M 447.71533203125 335 L 437.71533203125 345 L 437.71533203125 378 L 447.71533203125 368" opacity="0.2"/></g><g transform="translate(-30,-134) scale(1,1)"><path fill="#ffffff" stroke="none" d="M 336 338 L 430.71533203125 338 L 430.71533203125 371 L 336 371"/></g><g transform="translate(-30,-134) scale(1,1)"><path fill="#ffffff" stroke="none" d="M 336 338 L 346 328 L 440.71533203125 328 L 430.71533203125 338"/></g><g transform="translate(-30,-134) scale(1,1)"><path fill="#ffffff" stroke="none" d="M 440.71533203125 328 L 430.71533203125 338 L 430.71533203125 371 L 440.71533203125 361"/></g><g transform="translate(-30,-134) scale(1,1)"><path fill="none" stroke="#000000" d="M 336 338 L 430.71533203125 338 L 430.71533203125 371 L 336 371 L 336 338" stroke-miterlimit="10"/></g><g transform="translate(-30,-134) scale(1,1)"><path fill="none" stroke="#000000" d="M 336 338 L 346 328 L 440.71533203125 328 L 430.71533203125 338 L 336 338" stroke-miterlimit="10"/></g><g transform="translate(-30,-134) scale(1,1)"><path fill="none" stroke="#000000" d="M 440.71533203125 328 L 430.71533203125 338 L 430.71533203125 371 L 440.71533203125 361 L 440.71533203125 328" stroke-miterlimit="10"/></g><g transform="translate(-30,-134) scale(1,1)"><g><path fill="none" stroke="none"/><text fill="#000000" stroke="none" font-family="Arial" font-size="13px" font-style="normal" font-weight="bold" text-decoration="none" x="343.023193359375" y="357.5">backEnd_java</text></g></g><g transform="translate(-30,-134) scale(1,1)"><path fill="#C0C0C0" stroke="none" d="M 406.12900390625 471 L 433.56900390625 471 L 445.32900390624997 482.76 L 445.32900390624997 520 L 406.12900390625 520" opacity="0.2"/></g><g transform="translate(-30,-134) scale(1,1)"><path fill="#ffffff" stroke="none" d="M 399.12900390625 464 L 426.56900390625003 464 L 438.32900390625 475.76 L 438.32900390625 513 L 399.12900390625 513"/></g><g transform="translate(-30,-134) scale(1,1)"><path fill="none" stroke="#000000" d="M 399.12900390625 464 L 426.56900390625003 464 L 438.32900390625 475.76 L 438.32900390625 513 L 399.12900390625 513 L 399.12900390625 464" stroke-miterlimit="10"/></g><g transform="translate(-30,-134) scale(1,1)"><path fill="none" stroke="#000000" d="M 426.56900390625003 464 L 426.56900390625003 475.76 L 438.32900390625 475.76 L 426.56900390625003 464" stroke-miterlimit="10"/></g><g transform="translate(-30,-134) scale(1,1)"><g><path fill="none" stroke="none"/><text fill="#000000" stroke="none" font-family="Arial" font-size="13px" font-style="normal" font-weight="bold" text-decoration="none" x="324.0537109375" y="532.5">api_xxx_bibliotheque.jar_ou_war</text></g></g><g transform="translate(-30,-134) scale(1,1)"><path fill="none" stroke="#000000" d="M 410 463 L 393 373" stroke-miterlimit="10" stroke-dasharray="3"/></g><g transform="translate(-30,-134) scale(1,1)"><path fill="none" stroke="#000000" d="M 399.0226349066673 382.2047742384587 L 393 373 L 390.7498876998099 383.7674042664206" stroke-miterlimit="10"/></g><g transform="translate(-30,-134) scale(1,1)"><g><path fill="none" stroke="none"/><text fill="#000000" stroke="none" font-family="Arial" font-size="13px" font-style="normal" font-weight="normal" text-decoration="none" x="344.5" y="429.5">«deploy»</text></g></g><g transform="translate(-30,-134) scale(1,1)"><path fill="none" stroke="#000000" d="M 254 350 L 335 350" stroke-miterlimit="10"/></g><g transform="translate(-30,-134) scale(1,1)"><g><path fill="none" stroke="none"/><text fill="#000000" stroke="none" font-family="Arial" font-size="13px" font-style="normal" font-weight="normal" text-decoration="none" x="279.5" y="341.5">+http</text></g></g><g transform="translate(-30,-134) scale(1,1)"><path fill="#C0C0C0" stroke="none" d="M 511 377 L 663.5234375 377 L 663.5234375 410 L 511 410" opacity="0.2"/></g><g transform="translate(-30,-134) scale(1,1)"><path fill="#C0C0C0" stroke="none" d="M 511 377 L 521 367 L 673.5234375 367 L 663.5234375 377" opacity="0.2"/></g><g transform="translate(-30,-134) scale(1,1)"><path fill="#C0C0C0" stroke="none" d="M 673.5234375 367 L 663.5234375 377 L 663.5234375 410 L 673.5234375 400" opacity="0.2"/></g><g transform="translate(-30,-134) scale(1,1)"><path fill="#ffffff" stroke="none" d="M 504 370 L 656.5234375 370 L 656.5234375 403 L 504 403"/></g><g transform="translate(-30,-134) scale(1,1)"><path fill="#ffffff" stroke="none" d="M 504 370 L 514 360 L 666.5234375 360 L 656.5234375 370"/></g><g transform="translate(-30,-134) scale(1,1)"><path fill="#ffffff" stroke="none" d="M 666.5234375 360 L 656.5234375 370 L 656.5234375 403 L 666.5234375 393"/></g><g transform="translate(-30,-134) scale(1,1)"><path fill="none" stroke="#000000" d="M 504 370 L 656.5234375 370 L 656.5234375 403 L 504 403 L 504 370" stroke-miterlimit="10"/></g><g transform="translate(-30,-134) scale(1,1)"><path fill="none" stroke="#000000" d="M 504 370 L 514 360 L 666.5234375 360 L 656.5234375 370 L 504 370" stroke-miterlimit="10"/></g><g transform="translate(-30,-134) scale(1,1)"><path fill="none" stroke="#000000" d="M 666.5234375 360 L 656.5234375 370 L 656.5234375 403 L 666.5234375 393 L 666.5234375 360" stroke-miterlimit="10"/></g><g transform="translate(-30,-134) scale(1,1)"><g><path fill="none" stroke="none"/><text fill="#000000" stroke="none" font-family="Arial" font-size="13px" font-style="normal" font-weight="bold" text-decoration="none" x="512.82275390625" y="389.5">serveur_base_données</text></g></g><g transform="translate(-30,-134) scale(1,1)"><path fill="none" stroke="#000000" d="M 443 359 L 503 369" stroke-miterlimit="10"/></g><g transform="translate(-30,-134) scale(1,1)"><g><path fill="none" stroke="none"/><text fill="#000000" stroke="none" font-family="Arial" font-size="13px" font-style="normal" font-weight="normal" text-decoration="none" x="456.5" y="351.5">+tcp_ip sql</text></g></g><g transform="translate(-30,-134) scale(1,1)"><path fill="#C0C0C0" stroke="none" d="M 583.27451171875 471 L 610.71451171875 471 L 622.47451171875 482.76 L 622.47451171875 520 L 583.27451171875 520" opacity="0.2"/></g><g transform="translate(-30,-134) scale(1,1)"><path fill="#ffffff" stroke="none" d="M 576.27451171875 464 L 603.71451171875 464 L 615.47451171875 475.76 L 615.47451171875 513 L 576.27451171875 513"/></g><g transform="translate(-30,-134) scale(1,1)"><path fill="none" stroke="#000000" d="M 576.27451171875 464 L 603.71451171875 464 L 615.47451171875 475.76 L 615.47451171875 513 L 576.27451171875 513 L 576.27451171875 464" stroke-miterlimit="10"/></g><g transform="translate(-30,-134) scale(1,1)"><path fill="none" stroke="#000000" d="M 603.71451171875 464 L 603.71451171875 475.76 L 615.47451171875 475.76 L 603.71451171875 464" stroke-miterlimit="10"/></g><g transform="translate(-30,-134) scale(1,1)"><g><path fill="none" stroke="none"/><text fill="#000000" stroke="none" font-family="Arial" font-size="13px" font-style="normal" font-weight="bold" text-decoration="none" x="559.740478515625" y="532.5">init_base.sql</text></g></g><g transform="translate(-30,-134) scale(1,1)"><path fill="none" stroke="#000000" d="M 592 463 L 587 405" stroke-miterlimit="10" stroke-dasharray="3"/></g><g transform="translate(-30,-134) scale(1,1)"><path fill="none" stroke="#000000" d="M 592.0668179107648 414.7635729248648 L 587 405 L 583.678892679958 415.48666992752055" stroke-miterlimit="10"/></g><g transform="translate(-30,-134) scale(1,1)"><g><path fill="none" stroke="none"/><text fill="#000000" stroke="none" font-family="Arial" font-size="13px" font-style="normal" font-weight="normal" text-decoration="none" x="532.5" y="442.5">«deploy»</text></g></g><g transform="translate(-30,-134) scale(1,1)"><path fill="#ffffff" stroke="none" d="M 600 192 L 681.708984375 192 L 691.708984375 202 L 691.708984375 230 L 600 230 L 600 192"/></g><g transform="translate(-30,-134) scale(1,1)"><path fill="none" stroke="#000000" d="M 600 192 L 681.708984375 192 L 691.708984375 202 L 691.708984375 230 L 600 230 L 600 192 L 600 192" stroke-miterlimit="10"/></g><g transform="translate(-30,-134) scale(1,1)"><path fill="none" stroke="#000000" d="M 681.708984375 192 L 681.708984375 202 L 691.708984375 202 L 681.708984375 192" stroke-miterlimit="10"/></g><g transform="translate(-30,-134) scale(1,1)"><g><path fill="none" stroke="none"/><text fill="#000000" stroke="none" font-family="Arial" font-size="13px" font-style="normal" font-weight="normal" text-decoration="none" x="605" y="210">exemple:</text><text fill="#000000" stroke="none" font-family="Arial" font-size="13px" font-style="normal" font-weight="normal" text-decoration="none" x="605" y="223">postgres_sql</text></g></g><g transform="translate(-30,-134) scale(1,1)"><path fill="none" stroke="#000000" d="M 639 232 L 593 359" stroke-miterlimit="10" stroke-dasharray="3"/></g><g transform="translate(-30,-134) scale(1,1)"><path fill="#ffffff" stroke="none" d="M 200 568 L 477 568 L 487 578 L 487 645 L 200 645 L 200 568"/></g><g transform="translate(-30,-134) scale(1,1)"><path fill="none" stroke="#000000" d="M 200 568 L 477 568 L 487 578 L 487 645 L 200 645 L 200 568 L 200 568" stroke-miterlimit="10"/></g><g transform="translate(-30,-134) scale(1,1)"><path fill="none" stroke="#000000" d="M 477 568 L 477 578 L 487 578 L 477 568" stroke-miterlimit="10"/></g><g transform="translate(-30,-134) scale(1,1)"><g><path fill="none" stroke="none"/><text fill="#000000" stroke="none" font-family="Arial" font-size="13px" font-style="normal" font-weight="normal" text-decoration="none" x="205" y="586">exemple:</text></g></g><g transform="translate(-30,-134) scale(1,1)"><g><path fill="none" stroke="none"/><text fill="#000000" stroke="none" font-family="Arial" font-size="13px" font-style="normal" font-weight="normal" text-decoration="none" x="205" y="601">- AppliSpringBoot comportant des WS REST</text></g></g><g transform="translate(-30,-134) scale(1,1)"><g><path fill="none" stroke="none"/><text fill="#000000" stroke="none" font-family="Arial" font-size="13px" font-style="normal" font-weight="normal" text-decoration="none" x="205" y="616">- AppliJavaEE comportant des WS REST</text></g></g><g transform="translate(-30,-134) scale(1,1)"><path fill="none" stroke="#000000" d="M 372 567 L 391 539" stroke-miterlimit="10" stroke-dasharray="3"/></g><g transform="translate(-30,-134) scale(1,1)"><path fill="#ffffff" stroke="none" d="M 456 192 L 541 192 L 551 202 L 551 280 L 456 280 L 456 192"/></g><g transform="translate(-30,-134) scale(1,1)"><path fill="none" stroke="#000000" d="M 456 192 L 541 192 L 551 202 L 551 280 L 456 280 L 456 192 L 456 192" stroke-miterlimit="10"/></g><g transform="translate(-30,-134) scale(1,1)"><path fill="none" stroke="#000000" d="M 541 192 L 541 202 L 551 202 L 541 192" stroke-miterlimit="10"/></g><g transform="translate(-30,-134) scale(1,1)"><g><path fill="none" stroke="none"/><text fill="#000000" stroke="none" font-family="Arial" font-size="13px" font-style="normal" font-weight="normal" text-decoration="none" x="461" y="210">Machine</text><text fill="#000000" stroke="none" font-family="Arial" font-size="13px" font-style="normal" font-weight="normal" text-decoration="none" x="461" y="223">virtuelle java</text><text fill="#000000" stroke="none" font-family="Arial" font-size="13px" font-style="normal" font-weight="normal" text-decoration="none" x="461" y="236">et un éventuel </text><text fill="#000000" stroke="none" font-family="Arial" font-size="13px" font-style="normal" font-weight="normal" text-decoration="none" x="461" y="249">serveur JEE</text><text fill="#000000" stroke="none" font-family="Arial" font-size="13px" font-style="normal" font-weight="normal" text-decoration="none" x="461" y="262">(ex: tomcat)</text></g></g><g transform="translate(-30,-134) scale(1,1)"><path fill="none" stroke="#000000" d="M 457 282 L 411 327" stroke-miterlimit="10" stroke-dasharray="3"/></g></g></svg>