<svg version="1.1" xmlns="http://www.w3.org/2000/svg" xmlns:xlink="http://www.w3.org/1999/xlink" width="545.021484375" height="526"><defs/><g><text fill="#eeeeee" stroke="none" font-family="Arial" font-size="24px" font-style="normal" font-weight="normal" text-decoration="none" x="0" y="0">UNREGISTERED</text><text fill="#eeeeee" stroke="none" font-family="Arial" font-size="24px" font-style="normal" font-weight="normal" text-decoration="none" x="0" y="30">UNREGISTERED</text><text fill="#eeeeee" stroke="none" font-family="Arial" font-size="24px" font-style="normal" font-weight="normal" text-decoration="none" x="0" y="60">UNREGISTERED</text><text fill="#eeeeee" stroke="none" font-family="Arial" font-size="24px" font-style="normal" font-weight="normal" text-decoration="none" x="0" y="90">UNREGISTERED</text><text fill="#eeeeee" stroke="none" font-family="Arial" font-size="24px" font-style="normal" font-weight="normal" text-decoration="none" x="0" y="120">UNREGISTERED</text><text fill="#eeeeee" stroke="none" font-family="Arial" font-size="24px" font-style="normal" font-weight="normal" text-decoration="none" x="0" y="150">UNREGISTERED</text><text fill="#eeeeee" stroke="none" font-family="Arial" font-size="24px" font-style="normal" font-weight="normal" text-decoration="none" x="0" y="180">UNREGISTERED</text><text fill="#eeeeee" stroke="none" font-family="Arial" font-size="24px" font-style="normal" font-weight="normal" text-decoration="none" x="0" y="210">UNREGISTERED</text><text fill="#eeeeee" stroke="none" font-family="Arial" font-size="24px" font-style="normal" font-weight="normal" text-decoration="none" x="0" y="240">UNREGISTERED</text><text fill="#eeeeee" stroke="none" font-family="Arial" font-size="24px" font-style="normal" font-weight="normal" text-decoration="none" x="0" y="270">UNREGISTERED</text><text fill="#eeeeee" stroke="none" font-family="Arial" font-size="24px" font-style="normal" font-weight="normal" text-decoration="none" x="0" y="300">UNREGISTERED</text><text fill="#eeeeee" stroke="none" font-family="Arial" font-size="24px" font-style="normal" font-weight="normal" text-decoration="none" x="0" y="330">UNREGISTERED</text><text fill="#eeeeee" stroke="none" font-family="Arial" font-size="24px" font-style="normal" font-weight="normal" text-decoration="none" x="0" y="360">UNREGISTERED</text><text fill="#eeeeee" stroke="none" font-family="Arial" font-size="24px" font-style="normal" font-weight="normal" text-decoration="none" x="0" y="390">UNREGISTERED</text><text fill="#eeeeee" stroke="none" font-family="Arial" font-size="24px" font-style="normal" font-weight="normal" text-decoration="none" x="0" y="420">UNREGISTERED</text><text fill="#eeeeee" stroke="none" font-family="Arial" font-size="24px" font-style="normal" font-weight="normal" text-decoration="none" x="0" y="450">UNREGISTERED</text><text fill="#eeeeee" stroke="none" font-family="Arial" font-size="24px" font-style="normal" font-weight="normal" text-decoration="none" x="0" y="480">UNREGISTERED</text><text fill="#eeeeee" stroke="none" font-family="Arial" font-size="24px" font-style="normal" font-weight="normal" text-decoration="none" x="0" y="510">UNREGISTERED</text><text fill="#eeeeee" stroke="none" font-family="Arial" font-size="24px" font-style="normal" font-weight="normal" text-decoration="none" x="200" y="0">UNREGISTERED</text><text fill="#eeeeee" stroke="none" font-family="Arial" font-size="24px" font-style="normal" font-weight="normal" text-decoration="none" x="200" y="30">UNREGISTERED</text><text fill="#eeeeee" stroke="none" font-family="Arial" font-size="24px" font-style="normal" font-weight="normal" text-decoration="none" x="200" y="60">UNREGISTERED</text><text fill="#eeeeee" stroke="none" font-family="Arial" font-size="24px" font-style="normal" font-weight="normal" text-decoration="none" x="200" y="90">UNREGISTERED</text><text fill="#eeeeee" stroke="none" font-family="Arial" font-size="24px" font-style="normal" font-weight="normal" text-decoration="none" x="200" y="120">UNREGISTERED</text><text fill="#eeeeee" stroke="none" font-family="Arial" font-size="24px" font-style="normal" font-weight="normal" text-decoration="none" x="200" y="150">UNREGISTERED</text><text fill="#eeeeee" stroke="none" font-family="Arial" font-size="24px" font-style="normal" font-weight="normal" text-decoration="none" x="200" y="180">UNREGISTERED</text><text fill="#eeeeee" stroke="none" font-family="Arial" font-size="24px" font-style="normal" font-weight="normal" text-decoration="none" x="200" y="210">UNREGISTERED</text><text fill="#eeeeee" stroke="none" font-family="Arial" font-size="24px" font-style="normal" font-weight="normal" text-decoration="none" x="200" y="240">UNREGISTERED</text><text fill="#eeeeee" stroke="none" font-family="Arial" font-size="24px" font-style="normal" font-weight="normal" text-decoration="none" x="200" y="270">UNREGISTERED</text><text fill="#eeeeee" stroke="none" font-family="Arial" font-size="24px" font-style="normal" font-weight="normal" text-decoration="none" x="200" y="300">UNREGISTERED</text><text fill="#eeeeee" stroke="none" font-family="Arial" font-size="24px" font-style="normal" font-weight="normal" text-decoration="none" x="200" y="330">UNREGISTERED</text><text fill="#eeeeee" stroke="none" font-family="Arial" font-size="24px" font-style="normal" font-weight="normal" text-decoration="none" x="200" y="360">UNREGISTERED</text><text fill="#eeeeee" stroke="none" font-family="Arial" font-size="24px" font-style="normal" font-weight="normal" text-decoration="none" x="200" y="390">UNREGISTERED</text><text fill="#eeeeee" stroke="none" font-family="Arial" font-size="24px" font-style="normal" font-weight="normal" text-decoration="none" x="200" y="420">UNREGISTERED</text><text fill="#eeeeee" stroke="none" font-family="Arial" font-size="24px" font-style="normal" font-weight="normal" text-decoration="none" x="200" y="450">UNREGISTERED</text><text fill="#eeeeee" stroke="none" font-family="Arial" font-size="24px" font-style="normal" font-weight="normal" text-decoration="none" x="200" y="480">UNREGISTERED</text><text fill="#eeeeee" stroke="none" font-family="Arial" font-size="24px" font-style="normal" font-weight="normal" text-decoration="none" x="200" y="510">UNREGISTERED</text><text fill="#eeeeee" stroke="none" font-family="Arial" font-size="24px" font-style="normal" font-weight="normal" text-decoration="none" x="400" y="0">UNREGISTERED</text><text fill="#eeeeee" stroke="none" font-family="Arial" font-size="24px" font-style="normal" font-weight="normal" text-decoration="none" x="400" y="30">UNREGISTERED</text><text fill="#eeeeee" stroke="none" font-family="Arial" font-size="24px" font-style="normal" font-weight="normal" text-decoration="none" x="400" y="60">UNREGISTERED</text><text fill="#eeeeee" stroke="none" font-family="Arial" font-size="24px" font-style="normal" font-weight="normal" text-decoration="none" x="400" y="90">UNREGISTERED</text><text fill="#eeeeee" stroke="none" font-family="Arial" font-size="24px" font-style="normal" font-weight="normal" text-decoration="none" x="400" y="120">UNREGISTERED</text><text fill="#eeeeee" stroke="none" font-family="Arial" font-size="24px" font-style="normal" font-weight="normal" text-decoration="none" x="400" y="150">UNREGISTERED</text><text fill="#eeeeee" stroke="none" font-family="Arial" font-size="24px" font-style="normal" font-weight="normal" text-decoration="none" x="400" y="180">UNREGISTERED</text><text fill="#eeeeee" stroke="none" font-family="Arial" font-size="24px" font-style="normal" font-weight="normal" text-decoration="none" x="400" y="210">UNREGISTERED</text><text fill="#eeeeee" stroke="none" font-family="Arial" font-size="24px" font-style="normal" font-weight="normal" text-decoration="none" x="400" y="240">UNREGISTERED</text><text fill="#eeeeee" stroke="none" font-family="Arial" font-size="24px" font-style="normal" font-weight="normal" text-decoration="none" x="400" y="270">UNREGISTERED</text><text fill="#eeeeee" stroke="none" font-family="Arial" font-size="24px" font-style="normal" font-weight="normal" text-decoration="none" x="400" y="300">UNREGISTERED</text><text fill="#eeeeee" stroke="none" font-family="Arial" font-size="24px" font-style="normal" font-weight="normal" text-decoration="none" x="400" y="330">UNREGISTERED</text><text fill="#eeeeee" stroke="none" font-family="Arial" font-size="24px" font-style="normal" font-weight="normal" text-decoration="none" x="400" y="360">UNREGISTERED</text><text fill="#eeeeee" stroke="none" font-family="Arial" font-size="24px" font-style="normal" font-weight="normal" text-decoration="none" x="400" y="390">UNREGISTERED</text><text fill="#eeeeee" stroke="none" font-family="Arial" font-size="24px" font-style="normal" font-weight="normal" text-decoration="none" x="400" y="420">UNREGISTERED</text><text fill="#eeeeee" stroke="none" font-family="Arial" font-size="24px" font-style="normal" font-weight="normal" text-decoration="none" x="400" y="450">UNREGISTERED</text><text fill="#eeeeee" stroke="none" font-family="Arial" font-size="24px" font-style="normal" font-weight="normal" text-decoration="none" x="400" y="480">UNREGISTERED</text><text fill="#eeeeee" stroke="none" font-family="Arial" font-size="24px" font-style="normal" font-weight="normal" text-decoration="none" x="400" y="510">UNREGISTERED</text><g transform="translate(-102,-6) scale(1,1)"><path fill="#C0C0C0" stroke="none" d="M 247 32.5 C 247 27.2532944 251.2532944 23 256.5 23 C 261.7467056 23 266 27.2532944 266 32.5 C 266 37.7467056 261.7467056 42 256.5 42 C 251.2532944 42 247 37.7467056 247 32.5 Z" opacity="0.2"/></g><g transform="translate(-102,-6) scale(1,1)"><path fill="#000000" stroke="none" d="M 240 25.5 C 240 20.2532944 244.2532944 16 249.5 16 C 254.7467056 16 259 20.2532944 259 25.5 C 259 30.7467056 254.7467056 35 249.5 35 C 244.2532944 35 240 30.7467056 240 25.5 Z"/></g><g transform="translate(-102,-6) scale(1,1)"><path fill="#C0C0C0" stroke="none" d="M 151 459.5 C 151 452.59644 156.59644 447 163.5 447 C 170.40356 447 176 452.59644 176 459.5 C 176 466.40356 170.40356 472 163.5 472 C 156.59644 472 151 466.40356 151 459.5 Z" opacity="0.2"/></g><g transform="translate(-102,-6) scale(1,1)"><path fill="none" stroke="#000000" d="M 144 452.5 C 144 445.59644 149.59644 440 156.5 440 C 163.40356 440 169 445.59644 169 452.5 C 169 459.40356 163.40356 465 156.5 465 C 149.59644 465 144 459.40356 144 452.5 Z" stroke-miterlimit="10"/></g><g transform="translate(-102,-6) scale(1,1)"><path fill="#000000" stroke="none" d="M 149 452.5 C 149 448.357864 152.357864 445 156.5 445 C 160.642136 445 164 448.357864 164 452.5 C 164 456.642136 160.642136 460 156.5 460 C 152.357864 460 149 456.642136 149 452.5 Z"/></g><g transform="translate(-102,-6) scale(1,1)"><path fill="#C0C0C0" stroke="none" d="M 135 243.5 C 135 236.59644 140.59644 231 147.5 231 C 154.40356 231 160 236.59644 160 243.5 C 160 250.40356 154.40356 256 147.5 256 C 140.59644 256 135 250.40356 135 243.5 Z" opacity="0.2"/></g><g transform="translate(-102,-6) scale(1,1)"><path fill="none" stroke="#000000" d="M 128 236.5 C 128 229.59644 133.59644 224 140.5 224 C 147.40356 224 153 229.59644 153 236.5 C 153 243.40356 147.40356 249 140.5 249 C 133.59644 249 128 243.40356 128 236.5 Z" stroke-miterlimit="10"/></g><g transform="translate(-102,-6) scale(1,1)"><path fill="#000000" stroke="none" d="M 133 236.5 C 133 232.357864 136.357864 229 140.5 229 C 144.642136 229 148 232.357864 148 236.5 C 148 240.642136 144.642136 244 140.5 244 C 136.357864 244 133 240.642136 133 236.5 Z"/></g><g transform="translate(-102,-6) scale(1,1)"><g><path fill="none" stroke="none"/><text fill="#000000" stroke="none" font-family="Arial" font-size="13px" font-style="normal" font-weight="normal" text-decoration="none" x="117" y="274">Refus</text><text fill="#000000" stroke="none" font-family="Arial" font-size="13px" font-style="normal" font-weight="normal" text-decoration="none" x="117" y="287">explicité</text></g></g><g transform="translate(-102,-6) scale(1,1)"><g><path fill="none" stroke="none"/><text fill="#000000" stroke="none" font-family="Arial" font-size="13px" font-style="normal" font-weight="normal" text-decoration="none" x="141" y="490">Debut</text><text fill="#000000" stroke="none" font-family="Arial" font-size="13px" font-style="normal" font-weight="normal" text-decoration="none" x="141" y="503">emprunt</text><text fill="#000000" stroke="none" font-family="Arial" font-size="13px" font-style="normal" font-weight="normal" text-decoration="none" x="141" y="516">réalisé</text></g></g><g transform="translate(-102,-6) scale(1,1)"><path fill="#C0C0C0" stroke="none" d="M 241 63 L 360.736328125 63 Q 370.736328125 63 370.736328125 73 L 370.736328125 93 Q 370.736328125 103 360.736328125 103 L 241 103 Q 231 103 231 93 L 231 73 Q 231 63 241 63 Z" opacity="0.2"/></g><g transform="translate(-102,-6) scale(1,1)"><path fill="#ffffff" stroke="none" d="M 234 56 L 353.736328125 56 Q 363.736328125 56 363.736328125 66 L 363.736328125 86 Q 363.736328125 96 353.736328125 96 L 234 96 Q 224 96 224 86 L 224 66 Q 224 56 234 56 Z"/></g><g transform="translate(-102,-6) scale(1,1)"><path fill="none" stroke="#000000" d="M 234 56 L 353.736328125 56 Q 363.736328125 56 363.736328125 66 L 363.736328125 86 Q 363.736328125 96 353.736328125 96 L 234 96 Q 224 96 224 86 L 224 66 Q 224 56 234 56 Z" stroke-miterlimit="10"/></g><g transform="translate(-102,-6) scale(1,1)"><g><path fill="none" stroke="none"/><text fill="#000000" stroke="none" font-family="Arial" font-size="13px" font-style="normal" font-weight="bold" text-decoration="none" x="234.254150390625" y="75.5">identifier emprunteur</text></g></g><g transform="translate(-102,-6) scale(1,1)"><path fill="#C0C0C0" stroke="none" d="M 313 191 L 627.15869140625 191 Q 637.15869140625 191 637.15869140625 201 L 637.15869140625 221 Q 637.15869140625 231 627.15869140625 231 L 313 231 Q 303 231 303 221 L 303 201 Q 303 191 313 191 Z" opacity="0.2"/></g><g transform="translate(-102,-6) scale(1,1)"><path fill="#ffffff" stroke="none" d="M 306 184 L 620.15869140625 184 Q 630.15869140625 184 630.15869140625 194 L 630.15869140625 214 Q 630.15869140625 224 620.15869140625 224 L 306 224 Q 296 224 296 214 L 296 194 Q 296 184 306 184 Z"/></g><g transform="translate(-102,-6) scale(1,1)"><path fill="none" stroke="#000000" d="M 306 184 L 620.15869140625 184 Q 630.15869140625 184 630.15869140625 194 L 630.15869140625 214 Q 630.15869140625 224 620.15869140625 224 L 306 224 Q 296 224 296 214 L 296 194 Q 296 184 306 184 Z" stroke-miterlimit="10"/></g><g transform="translate(-102,-6) scale(1,1)"><g><path fill="none" stroke="none"/><text fill="#000000" stroke="none" font-family="Arial" font-size="13px" font-style="normal" font-weight="bold" text-decoration="none" x="311.69091796875" y="203.5">calculer_nombre_exemplaires_autorisés_a_emprunt</text></g></g><g transform="translate(-102,-6) scale(1,1)"><path fill="#C0C0C0" stroke="none" d="M 345 295 L 461.8798828125 295 Q 471.8798828125 295 471.8798828125 305 L 471.8798828125 325 Q 471.8798828125 335 461.8798828125 335 L 345 335 Q 335 335 335 325 L 335 305 Q 335 295 345 295 Z" opacity="0.2"/></g><g transform="translate(-102,-6) scale(1,1)"><path fill="#ffffff" stroke="none" d="M 338 288 L 454.8798828125 288 Q 464.8798828125 288 464.8798828125 298 L 464.8798828125 318 Q 464.8798828125 328 454.8798828125 328 L 338 328 Q 328 328 328 318 L 328 298 Q 328 288 338 288 Z"/></g><g transform="translate(-102,-6) scale(1,1)"><path fill="none" stroke="#000000" d="M 338 288 L 454.8798828125 288 Q 464.8798828125 288 464.8798828125 298 L 464.8798828125 318 Q 464.8798828125 328 454.8798828125 328 L 338 328 Q 328 328 328 318 L 328 298 Q 328 288 338 288 Z" stroke-miterlimit="10"/></g><g transform="translate(-102,-6) scale(1,1)"><g><path fill="none" stroke="none"/><text fill="#000000" stroke="none" font-family="Arial" font-size="13px" font-style="normal" font-weight="bold" text-decoration="none" x="337.552734375" y="307.5">renseigner num livre</text></g></g><g transform="translate(-102,-6) scale(1,1)"><path fill="#C0C0C0" stroke="none" d="M 449 359 L 565.14990234375 359 Q 575.14990234375 359 575.14990234375 369 L 575.14990234375 389 Q 575.14990234375 399 565.14990234375 399 L 449 399 Q 439 399 439 389 L 439 369 Q 439 359 449 359 Z" opacity="0.2"/></g><g transform="translate(-102,-6) scale(1,1)"><path fill="#ffffff" stroke="none" d="M 442 352 L 558.14990234375 352 Q 568.14990234375 352 568.14990234375 362 L 568.14990234375 382 Q 568.14990234375 392 558.14990234375 392 L 442 392 Q 432 392 432 382 L 432 362 Q 432 352 442 352 Z"/></g><g transform="translate(-102,-6) scale(1,1)"><path fill="none" stroke="#000000" d="M 442 352 L 558.14990234375 352 Q 568.14990234375 352 568.14990234375 362 L 568.14990234375 382 Q 568.14990234375 392 558.14990234375 392 L 442 392 Q 432 392 432 382 L 432 362 Q 432 352 442 352 Z" stroke-miterlimit="10"/></g><g transform="translate(-102,-6) scale(1,1)"><g><path fill="none" stroke="none"/><text fill="#000000" stroke="none" font-family="Arial" font-size="13px" font-style="normal" font-weight="bold" text-decoration="none" x="441.54638671875" y="371.5">enregistrer_emprunt</text></g></g><g transform="translate(-102,-6) scale(1,1)"><path fill="none" stroke="#000000" d="M 258 36 L 275 55" stroke-miterlimit="10"/></g><g transform="translate(-102,-6) scale(1,1)"><path fill="none" stroke="#000000" d="M 265.0864741046724 50.23323964073409 L 275 55 L 271.3606871882736 44.619470039617255" stroke-miterlimit="10"/></g><g transform="translate(-102,-6) scale(1,1)"><path fill="#C0C0C0" stroke="none" d="M 263 144.5 L 274.5 135 L 285 144.5 L 274.5 153 L 263 144.5" opacity="0.2"/></g><g transform="translate(-102,-6) scale(1,1)"><path fill="#ffffff" stroke="none" d="M 256 137 L 267 128 L 278 137 L 267 146 L 256 137"/></g><g transform="translate(-102,-6) scale(1,1)"><path fill="none" stroke="#000000" d="M 256 137 L 267 128 L 278 137 L 267 146 L 256 137 L 256 137" stroke-miterlimit="10"/></g><g transform="translate(-102,-6) scale(1,1)"><path fill="none" stroke="#000000" d="M 284 97 L 271 127" stroke-miterlimit="10"/></g><g transform="translate(-102,-6) scale(1,1)"><path fill="none" stroke="#000000" d="M 271.178288412776 116.00144494754562 L 271 127 L 278.9032218065249 119.34891608483683" stroke-miterlimit="10"/></g><g transform="translate(-102,-6) scale(1,1)"><g><path fill="none" stroke="none"/><text fill="#000000" stroke="none" font-family="Arial" font-size="13px" font-style="normal" font-weight="normal" text-decoration="none" x="294.5" y="124.5">emprunteur identifié ?</text></g></g><g transform="translate(-102,-6) scale(1,1)"><path fill="none" stroke="#000000" d="M 279 141 L 402 183" stroke-miterlimit="10"/></g><g transform="translate(-102,-6) scale(1,1)"><path fill="none" stroke="#000000" d="M 391.0222743230435 183.69967060928 L 402 183 L 393.7428338993996 175.73231756423718" stroke-miterlimit="10"/></g><g transform="translate(-102,-6) scale(1,1)"><g><path fill="none" stroke="none"/><text fill="#000000" stroke="none" font-family="Arial" font-size="13px" font-style="normal" font-weight="normal" text-decoration="none" x="329.668212890625" y="153.5"> [oui]</text></g></g><g transform="translate(-102,-6) scale(1,1)"><path fill="none" stroke="#000000" d="M 255 146 L 154 225" stroke-miterlimit="10"/></g><g transform="translate(-102,-6) scale(1,1)"><path fill="none" stroke="#000000" d="M 159.4113541491003 215.4230878529134 L 154 225 L 164.59830473626354 222.05450569219803" stroke-miterlimit="10"/></g><g transform="translate(-102,-6) scale(1,1)"><g><path fill="none" stroke="none"/><text fill="#000000" stroke="none" font-family="Arial" font-size="13px" font-style="normal" font-weight="normal" text-decoration="none" x="196.5" y="202.5"> [non]</text></g></g><g transform="translate(-102,-6) scale(1,1)"><path fill="#C0C0C0" stroke="none" d="M 375 256.5 L 386.5 247 L 397 256.5 L 386.5 265 L 375 256.5" opacity="0.2"/></g><g transform="translate(-102,-6) scale(1,1)"><path fill="#ffffff" stroke="none" d="M 368 249 L 379 240 L 390 249 L 379 258 L 368 249"/></g><g transform="translate(-102,-6) scale(1,1)"><path fill="none" stroke="#000000" d="M 368 249 L 379 240 L 390 249 L 379 258 L 368 249 L 368 249" stroke-miterlimit="10"/></g><g transform="translate(-102,-6) scale(1,1)"><path fill="none" stroke="#000000" d="M 424 225 L 391 243" stroke-miterlimit="10"/></g><g transform="translate(-102,-6) scale(1,1)"><path fill="none" stroke="#000000" d="M 397.9060307198706 234.43806448890186 L 391 243 L 401.9375038130825 241.82909849312372" stroke-miterlimit="10"/></g><g transform="translate(-102,-6) scale(1,1)"><g><path fill="none" stroke="none"/><text fill="#000000" stroke="none" font-family="Arial" font-size="13px" font-style="normal" font-weight="normal" text-decoration="none" x="421.5" y="253.5">au moins droit à 1 emprunt</text></g></g><g transform="translate(-102,-6) scale(1,1)"><path fill="none" stroke="#000000" d="M 382 259 L 390 287" stroke-miterlimit="10"/></g><g transform="translate(-102,-6) scale(1,1)"><path fill="none" stroke="#000000" d="M 383.1605463702305 278.38478821814385 L 390 287 L 391.2556506310878 276.07190128647034" stroke-miterlimit="10"/></g><g transform="translate(-102,-6) scale(1,1)"><g><path fill="none" stroke="none"/><text fill="#000000" stroke="none" font-family="Arial" font-size="13px" font-style="normal" font-weight="normal" text-decoration="none" x="385.668212890625" y="274.5"> [oui]</text></g></g><g transform="translate(-102,-6) scale(1,1)"><path fill="none" stroke="#000000" d="M 367 248 L 154 237" stroke-miterlimit="10"/></g><g transform="translate(-102,-6) scale(1,1)"><path fill="none" stroke="#000000" d="M 164.366253498763 233.3202189739899 L 154 237 L 163.93204626124742 241.72805002770076" stroke-miterlimit="10"/></g><g transform="translate(-102,-6) scale(1,1)"><g><path fill="none" stroke="none"/><text fill="#000000" stroke="none" font-family="Arial" font-size="13px" font-style="normal" font-weight="normal" text-decoration="none" x="242.5" y="262.5"> [non]</text></g></g><g transform="translate(-102,-6) scale(1,1)"><path fill="#C0C0C0" stroke="none" d="M 225 431 L 265.30810546875 431 Q 275.30810546875 431 275.30810546875 441 L 275.30810546875 461 Q 275.30810546875 471 265.30810546875 471 L 225 471 Q 215 471 215 461 L 215 441 Q 215 431 225 431 Z" opacity="0.2"/></g><g transform="translate(-102,-6) scale(1,1)"><path fill="#ffffff" stroke="none" d="M 218 424 L 258.30810546875 424 Q 268.30810546875 424 268.30810546875 434 L 268.30810546875 454 Q 268.30810546875 464 258.30810546875 464 L 218 464 Q 208 464 208 454 L 208 434 Q 208 424 218 424 Z"/></g><g transform="translate(-102,-6) scale(1,1)"><path fill="none" stroke="#000000" d="M 218 424 L 258.30810546875 424 Q 268.30810546875 424 268.30810546875 434 L 268.30810546875 454 Q 268.30810546875 464 258.30810546875 464 L 218 464 Q 208 464 208 454 L 208 434 Q 208 424 218 424 Z" stroke-miterlimit="10"/></g><g transform="translate(-102,-6) scale(1,1)"><g><path fill="none" stroke="none"/><text fill="#000000" stroke="none" font-family="Arial" font-size="13px" font-style="normal" font-weight="bold" text-decoration="none" x="216.47998046875" y="443.5">resumé</text></g></g><g transform="translate(-102,-6) scale(1,1)"><path fill="none" stroke="#000000" d="M 430 329 L 466 351" stroke-miterlimit="10"/></g><g transform="translate(-102,-6) scale(1,1)"><path fill="none" stroke="#000000" d="M 455.1333210890066 349.29257812905803 L 466 351 L 459.523427236349 342.1087680697704" stroke-miterlimit="10"/></g><g transform="translate(-102,-6) scale(1,1)"><path fill="#C0C0C0" stroke="none" d="M 367 424.5 L 378.5 415 L 389 424.5 L 378.5 433 L 367 424.5" opacity="0.2"/></g><g transform="translate(-102,-6) scale(1,1)"><path fill="#ffffff" stroke="none" d="M 360 417 L 371 408 L 382 417 L 371 426 L 360 417"/></g><g transform="translate(-102,-6) scale(1,1)"><path fill="none" stroke="#000000" d="M 360 417 L 371 408 L 382 417 L 371 426 L 360 417 L 360 417" stroke-miterlimit="10"/></g><g transform="translate(-102,-6) scale(1,1)"><path fill="none" stroke="#000000" d="M 440 393 L 383 413" stroke-miterlimit="10"/></g><g transform="translate(-102,-6) scale(1,1)"><path fill="none" stroke="#000000" d="M 391.1957802072818 405.6631623437664 L 383 413 L 393.9832194208711 413.6073641024958" stroke-miterlimit="10"/></g><g transform="translate(-102,-6) scale(1,1)"><g><path fill="none" stroke="none"/><text fill="#000000" stroke="none" font-family="Arial" font-size="13px" font-style="normal" font-weight="normal" text-decoration="none" x="413.5" y="420.5">encore droit et envie à autre emprunt ?</text></g></g><g transform="translate(-102,-6) scale(1,1)"><path fill="none" stroke="#000000" d="M 359 419 L 269 438" stroke-miterlimit="10"/></g><g transform="translate(-102,-6) scale(1,1)"><path fill="none" stroke="#000000" d="M 278.07399846261796 431.7820781686799 L 269 438 L 279.81302053720776 440.01955115357913" stroke-miterlimit="10"/></g><g transform="translate(-102,-6) scale(1,1)"><g><path fill="none" stroke="none"/><text fill="#000000" stroke="none" font-family="Arial" font-size="13px" font-style="normal" font-weight="normal" text-decoration="none" x="300.5" y="448.5"> [non]</text></g></g><g transform="translate(-102,-6) scale(1,1)"><path fill="none" stroke="#000000" d="M 207 447 L 170 451" stroke-miterlimit="10"/></g><g transform="translate(-102,-6) scale(1,1)"><path fill="none" stroke="#000000" d="M 179.65135623909617 445.7225647568104 L 170 451 L 180.55624969204422 454.09282919657977" stroke-miterlimit="10"/></g><g transform="translate(-102,-6) scale(1,1)"><path fill="none" stroke="#000000" d="M 359 415 L 184 384 L 200 328 L 327 315" stroke-miterlimit="10"/></g><g transform="translate(-102,-6) scale(1,1)"><path fill="none" stroke="#000000" d="M 317.3188083557562 320.2225021155978 L 327 315 L 316.46149707768836 311.84723039908897" stroke-miterlimit="10"/></g><g transform="translate(-102,-6) scale(1,1)"><g><path fill="none" stroke="none"/><text fill="#000000" stroke="none" font-family="Arial" font-size="13px" font-style="normal" font-weight="normal" text-decoration="none" x="162.668212890625" y="357.5"> [oui]</text></g></g></g></svg>