<svg version="1.1" xmlns="http://www.w3.org/2000/svg" xmlns:xlink="http://www.w3.org/1999/xlink" width="758.25537109375" height="454"><defs/><g><text fill="#eeeeee" stroke="none" font-family="Arial" font-size="24px" font-style="normal" font-weight="normal" text-decoration="none" x="0" y="0">UNREGISTERED</text><text fill="#eeeeee" stroke="none" font-family="Arial" font-size="24px" font-style="normal" font-weight="normal" text-decoration="none" x="0" y="30">UNREGISTERED</text><text fill="#eeeeee" stroke="none" font-family="Arial" font-size="24px" font-style="normal" font-weight="normal" text-decoration="none" x="0" y="60">UNREGISTERED</text><text fill="#eeeeee" stroke="none" font-family="Arial" font-size="24px" font-style="normal" font-weight="normal" text-decoration="none" x="0" y="90">UNREGISTERED</text><text fill="#eeeeee" stroke="none" font-family="Arial" font-size="24px" font-style="normal" font-weight="normal" text-decoration="none" x="0" y="120">UNREGISTERED</text><text fill="#eeeeee" stroke="none" font-family="Arial" font-size="24px" font-style="normal" font-weight="normal" text-decoration="none" x="0" y="150">UNREGISTERED</text><text fill="#eeeeee" stroke="none" font-family="Arial" font-size="24px" font-style="normal" font-weight="normal" text-decoration="none" x="0" y="180">UNREGISTERED</text><text fill="#eeeeee" stroke="none" font-family="Arial" font-size="24px" font-style="normal" font-weight="normal" text-decoration="none" x="0" y="210">UNREGISTERED</text><text fill="#eeeeee" stroke="none" font-family="Arial" font-size="24px" font-style="normal" font-weight="normal" text-decoration="none" x="0" y="240">UNREGISTERED</text><text fill="#eeeeee" stroke="none" font-family="Arial" font-size="24px" font-style="normal" font-weight="normal" text-decoration="none" x="0" y="270">UNREGISTERED</text><text fill="#eeeeee" stroke="none" font-family="Arial" font-size="24px" font-style="normal" font-weight="normal" text-decoration="none" x="0" y="300">UNREGISTERED</text><text fill="#eeeeee" stroke="none" font-family="Arial" font-size="24px" font-style="normal" font-weight="normal" text-decoration="none" x="0" y="330">UNREGISTERED</text><text fill="#eeeeee" stroke="none" font-family="Arial" font-size="24px" font-style="normal" font-weight="normal" text-decoration="none" x="0" y="360">UNREGISTERED</text><text fill="#eeeeee" stroke="none" font-family="Arial" font-size="24px" font-style="normal" font-weight="normal" text-decoration="none" x="0" y="390">UNREGISTERED</text><text fill="#eeeeee" stroke="none" font-family="Arial" font-size="24px" font-style="normal" font-weight="normal" text-decoration="none" x="0" y="420">UNREGISTERED</text><text fill="#eeeeee" stroke="none" font-family="Arial" font-size="24px" font-style="normal" font-weight="normal" text-decoration="none" x="0" y="450">UNREGISTERED</text><text fill="#eeeeee" stroke="none" font-family="Arial" font-size="24px" font-style="normal" font-weight="normal" text-decoration="none" x="200" y="0">UNREGISTERED</text><text fill="#eeeeee" stroke="none" font-family="Arial" font-size="24px" font-style="normal" font-weight="normal" text-decoration="none" x="200" y="30">UNREGISTERED</text><text fill="#eeeeee" stroke="none" font-family="Arial" font-size="24px" font-style="normal" font-weight="normal" text-decoration="none" x="200" y="60">UNREGISTERED</text><text fill="#eeeeee" stroke="none" font-family="Arial" font-size="24px" font-style="normal" font-weight="normal" text-decoration="none" x="200" y="90">UNREGISTERED</text><text fill="#eeeeee" stroke="none" font-family="Arial" font-size="24px" font-style="normal" font-weight="normal" text-decoration="none" x="200" y="120">UNREGISTERED</text><text fill="#eeeeee" stroke="none" font-family="Arial" font-size="24px" font-style="normal" font-weight="normal" text-decoration="none" x="200" y="150">UNREGISTERED</text><text fill="#eeeeee" stroke="none" font-family="Arial" font-size="24px" font-style="normal" font-weight="normal" text-decoration="none" x="200" y="180">UNREGISTERED</text><text fill="#eeeeee" stroke="none" font-family="Arial" font-size="24px" font-style="normal" font-weight="normal" text-decoration="none" x="200" y="210">UNREGISTERED</text><text fill="#eeeeee" stroke="none" font-family="Arial" font-size="24px" font-style="normal" font-weight="normal" text-decoration="none" x="200" y="240">UNREGISTERED</text><text fill="#eeeeee" stroke="none" font-family="Arial" font-size="24px" font-style="normal" font-weight="normal" text-decoration="none" x="200" y="270">UNREGISTERED</text><text fill="#eeeeee" stroke="none" font-family="Arial" font-size="24px" font-style="normal" font-weight="normal" text-decoration="none" x="200" y="300">UNREGISTERED</text><text fill="#eeeeee" stroke="none" font-family="Arial" font-size="24px" font-style="normal" font-weight="normal" text-decoration="none" x="200" y="330">UNREGISTERED</text><text fill="#eeeeee" stroke="none" font-family="Arial" font-size="24px" font-style="normal" font-weight="normal" text-decoration="none" x="200" y="360">UNREGISTERED</text><text fill="#eeeeee" stroke="none" font-family="Arial" font-size="24px" font-style="normal" font-weight="normal" text-decoration="none" x="200" y="390">UNREGISTERED</text><text fill="#eeeeee" stroke="none" font-family="Arial" font-size="24px" font-style="normal" font-weight="normal" text-decoration="none" x="200" y="420">UNREGISTERED</text><text fill="#eeeeee" stroke="none" font-family="Arial" font-size="24px" font-style="normal" font-weight="normal" text-decoration="none" x="200" y="450">UNREGISTERED</text><text fill="#eeeeee" stroke="none" font-family="Arial" font-size="24px" font-style="normal" font-weight="normal" text-decoration="none" x="400" y="0">UNREGISTERED</text><text fill="#eeeeee" stroke="none" font-family="Arial" font-size="24px" font-style="normal" font-weight="normal" text-decoration="none" x="400" y="30">UNREGISTERED</text><text fill="#eeeeee" stroke="none" font-family="Arial" font-size="24px" font-style="normal" font-weight="normal" text-decoration="none" x="400" y="60">UNREGISTERED</text><text fill="#eeeeee" stroke="none" font-family="Arial" font-size="24px" font-style="normal" font-weight="normal" text-decoration="none" x="400" y="90">UNREGISTERED</text><text fill="#eeeeee" stroke="none" font-family="Arial" font-size="24px" font-style="normal" font-weight="normal" text-decoration="none" x="400" y="120">UNREGISTERED</text><text fill="#eeeeee" stroke="none" font-family="Arial" font-size="24px" font-style="normal" font-weight="normal" text-decoration="none" x="400" y="150">UNREGISTERED</text><text fill="#eeeeee" stroke="none" font-family="Arial" font-size="24px" font-style="normal" font-weight="normal" text-decoration="none" x="400" y="180">UNREGISTERED</text><text fill="#eeeeee" stroke="none" font-family="Arial" font-size="24px" font-style="normal" font-weight="normal" text-decoration="none" x="400" y="210">UNREGISTERED</text><text fill="#eeeeee" stroke="none" font-family="Arial" font-size="24px" font-style="normal" font-weight="normal" text-decoration="none" x="400" y="240">UNREGISTERED</text><text fill="#eeeeee" stroke="none" font-family="Arial" font-size="24px" font-style="normal" font-weight="normal" text-decoration="none" x="400" y="270">UNREGISTERED</text><text fill="#eeeeee" stroke="none" font-family="Arial" font-size="24px" font-style="normal" font-weight="normal" text-decoration="none" x="400" y="300">UNREGISTERED</text><text fill="#eeeeee" stroke="none" font-family="Arial" font-size="24px" font-style="normal" font-weight="normal" text-decoration="none" x="400" y="330">UNREGISTERED</text><text fill="#eeeeee" stroke="none" font-family="Arial" font-size="24px" font-style="normal" font-weight="normal" text-decoration="none" x="400" y="360">UNREGISTERED</text><text fill="#eeeeee" stroke="none" font-family="Arial" font-size="24px" font-style="normal" font-weight="normal" text-decoration="none" x="400" y="390">UNREGISTERED</text><text fill="#eeeeee" stroke="none" font-family="Arial" font-size="24px" font-style="normal" font-weight="normal" text-decoration="none" x="400" y="420">UNREGISTERED</text><text fill="#eeeeee" stroke="none" font-family="Arial" font-size="24px" font-style="normal" font-weight="normal" text-decoration="none" x="400" y="450">UNREGISTERED</text><text fill="#eeeeee" stroke="none" font-family="Arial" font-size="24px" font-style="normal" font-weight="normal" text-decoration="none" x="600" y="0">UNREGISTERED</text><text fill="#eeeeee" stroke="none" font-family="Arial" font-size="24px" font-style="normal" font-weight="normal" text-decoration="none" x="600" y="30">UNREGISTERED</text><text fill="#eeeeee" stroke="none" font-family="Arial" font-size="24px" font-style="normal" font-weight="normal" text-decoration="none" x="600" y="60">UNREGISTERED</text><text fill="#eeeeee" stroke="none" font-family="Arial" font-size="24px" font-style="normal" font-weight="normal" text-decoration="none" x="600" y="90">UNREGISTERED</text><text fill="#eeeeee" stroke="none" font-family="Arial" font-size="24px" font-style="normal" font-weight="normal" text-decoration="none" x="600" y="120">UNREGISTERED</text><text fill="#eeeeee" stroke="none" font-family="Arial" font-size="24px" font-style="normal" font-weight="normal" text-decoration="none" x="600" y="150">UNREGISTERED</text><text fill="#eeeeee" stroke="none" font-family="Arial" font-size="24px" font-style="normal" font-weight="normal" text-decoration="none" x="600" y="180">UNREGISTERED</text><text fill="#eeeeee" stroke="none" font-family="Arial" font-size="24px" font-style="normal" font-weight="normal" text-decoration="none" x="600" y="210">UNREGISTERED</text><text fill="#eeeeee" stroke="none" font-family="Arial" font-size="24px" font-style="normal" font-weight="normal" text-decoration="none" x="600" y="240">UNREGISTERED</text><text fill="#eeeeee" stroke="none" font-family="Arial" font-size="24px" font-style="normal" font-weight="normal" text-decoration="none" x="600" y="270">UNREGISTERED</text><text fill="#eeeeee" stroke="none" font-family="Arial" font-size="24px" font-style="normal" font-weight="normal" text-decoration="none" x="600" y="300">UNREGISTERED</text><text fill="#eeeeee" stroke="none" font-family="Arial" font-size="24px" font-style="normal" font-weight="normal" text-decoration="none" x="600" y="330">UNREGISTERED</text><text fill="#eeeeee" stroke="none" font-family="Arial" font-size="24px" font-style="normal" font-weight="normal" text-decoration="none" x="600" y="360">UNREGISTERED</text><text fill="#eeeeee" stroke="none" font-family="Arial" font-size="24px" font-style="normal" font-weight="normal" text-decoration="none" x="600" y="390">UNREGISTERED</text><text fill="#eeeeee" stroke="none" font-family="Arial" font-size="24px" font-style="normal" font-weight="normal" text-decoration="none" x="600" y="420">UNREGISTERED</text><text fill="#eeeeee" stroke="none" font-family="Arial" font-size="24px" font-style="normal" font-weight="normal" text-decoration="none" x="600" y="450">UNREGISTERED</text><g transform="translate(-14,-134) scale(1,1)"><rect fill="#C0C0C0" stroke="none" x="561" y="239" width="208.25537109375" height="44" opacity="0.2"/></g><g transform="translate(-14,-134) scale(1,1)"><rect fill="#ffffff" stroke="none" x="554" y="232" width="208.25537109375" height="44"/></g><g transform="translate(-14,-134) scale(1,1)"><path fill="none" stroke="#000000" d="M 554 232 L 762.25537109375 232 L 762.25537109375 276 L 554 276 L 554 232 Z Z" stroke-miterlimit="10"/></g><g transform="translate(-14,-134) scale(1,1)"><rect fill="#ffffff" stroke="none" x="544" y="239" width="20" height="10"/></g><g transform="translate(-14,-134) scale(1,1)"><path fill="none" stroke="#000000" d="M 544 239 L 564 239 L 564 249 L 544 249 L 544 239 Z Z" stroke-miterlimit="10"/></g><g transform="translate(-14,-134) scale(1,1)"><rect fill="#ffffff" stroke="none" x="544" y="259" width="20" height="10"/></g><g transform="translate(-14,-134) scale(1,1)"><path fill="none" stroke="#000000" d="M 544 259 L 564 259 L 564 269 L 544 269 L 544 259 Z Z" stroke-miterlimit="10"/></g><g transform="translate(-14,-134) scale(1,1)"><g><path fill="none" stroke="none"/><text fill="#000000" stroke="none" font-family="Arial" font-size="13px" font-style="normal" font-weight="bold" text-decoration="none" x="574.946044921875" y="251.5">Base de données Bibilotheque</text></g></g><g transform="translate(-14,-134) scale(1,1)"><rect fill="#C0C0C0" stroke="none" x="337" y="151" width="106.42626953125" height="44" opacity="0.2"/></g><g transform="translate(-14,-134) scale(1,1)"><rect fill="#ffffff" stroke="none" x="330" y="144" width="106.42626953125" height="44"/></g><g transform="translate(-14,-134) scale(1,1)"><path fill="none" stroke="#000000" d="M 330 144 L 436.42626953125 144 L 436.42626953125 188 L 330 188 L 330 144 Z Z" stroke-miterlimit="10"/></g><g transform="translate(-14,-134) scale(1,1)"><rect fill="#ffffff" stroke="none" x="320" y="151" width="20" height="10"/></g><g transform="translate(-14,-134) scale(1,1)"><path fill="none" stroke="#000000" d="M 320 151 L 340 151 L 340 161 L 320 161 L 320 151 Z Z" stroke-miterlimit="10"/></g><g transform="translate(-14,-134) scale(1,1)"><rect fill="#ffffff" stroke="none" x="320" y="171" width="20" height="10"/></g><g transform="translate(-14,-134) scale(1,1)"><path fill="none" stroke="#000000" d="M 320 171 L 340 171 L 340 181 L 320 181 L 320 171 Z Z" stroke-miterlimit="10"/></g><g transform="translate(-14,-134) scale(1,1)"><g><path fill="none" stroke="none"/><text fill="#000000" stroke="none" font-family="Arial" font-size="13px" font-style="normal" font-weight="bold" text-decoration="none" x="348.11181640625" y="163.5">module_livres</text></g></g><g transform="translate(-14,-134) scale(1,1)"><rect fill="#C0C0C0" stroke="none" x="329" y="351" width="138.1962890625" height="44" opacity="0.2"/></g><g transform="translate(-14,-134) scale(1,1)"><rect fill="#ffffff" stroke="none" x="322" y="344" width="138.1962890625" height="44"/></g><g transform="translate(-14,-134) scale(1,1)"><path fill="none" stroke="#000000" d="M 322 344 L 460.1962890625 344 L 460.1962890625 388 L 322 388 L 322 344 Z Z" stroke-miterlimit="10"/></g><g transform="translate(-14,-134) scale(1,1)"><rect fill="#ffffff" stroke="none" x="312" y="351" width="20" height="10"/></g><g transform="translate(-14,-134) scale(1,1)"><path fill="none" stroke="#000000" d="M 312 351 L 332 351 L 332 361 L 312 361 L 312 351 Z Z" stroke-miterlimit="10"/></g><g transform="translate(-14,-134) scale(1,1)"><rect fill="#ffffff" stroke="none" x="312" y="371" width="20" height="10"/></g><g transform="translate(-14,-134) scale(1,1)"><path fill="none" stroke="#000000" d="M 312 371 L 332 371 L 332 381 L 312 381 L 312 371 Z Z" stroke-miterlimit="10"/></g><g transform="translate(-14,-134) scale(1,1)"><g><path fill="none" stroke="none"/><text fill="#000000" stroke="none" font-family="Arial" font-size="13px" font-style="normal" font-weight="bold" text-decoration="none" x="340.81005859375" y="363.5">module_personnes</text></g></g><g transform="translate(-14,-134) scale(1,1)"><rect fill="#C0C0C0" stroke="none" x="369" y="255" width="130.95361328125" height="44" opacity="0.2"/></g><g transform="translate(-14,-134) scale(1,1)"><rect fill="#ffffff" stroke="none" x="362" y="248" width="130.95361328125" height="44"/></g><g transform="translate(-14,-134) scale(1,1)"><path fill="none" stroke="#000000" d="M 362 248 L 492.95361328125 248 L 492.95361328125 292 L 362 292 L 362 248 Z Z" stroke-miterlimit="10"/></g><g transform="translate(-14,-134) scale(1,1)"><rect fill="#ffffff" stroke="none" x="352" y="255" width="20" height="10"/></g><g transform="translate(-14,-134) scale(1,1)"><path fill="none" stroke="#000000" d="M 352 255 L 372 255 L 372 265 L 352 265 L 352 255 Z Z" stroke-miterlimit="10"/></g><g transform="translate(-14,-134) scale(1,1)"><rect fill="#ffffff" stroke="none" x="352" y="275" width="20" height="10"/></g><g transform="translate(-14,-134) scale(1,1)"><path fill="none" stroke="#000000" d="M 352 275 L 372 275 L 372 285 L 352 285 L 352 275 Z Z" stroke-miterlimit="10"/></g><g transform="translate(-14,-134) scale(1,1)"><g><path fill="none" stroke="none"/><text fill="#000000" stroke="none" font-family="Arial" font-size="13px" font-style="normal" font-weight="bold" text-decoration="none" x="380.4482421875" y="267.5">Module_emprunts</text></g></g><g transform="translate(-14,-134) scale(1,1)"><rect fill="#C0C0C0" stroke="none" x="41" y="255" width="162.7109375" height="44" opacity="0.2"/></g><g transform="translate(-14,-134) scale(1,1)"><rect fill="#ffffff" stroke="none" x="34" y="248" width="162.7109375" height="44"/></g><g transform="translate(-14,-134) scale(1,1)"><path fill="none" stroke="#000000" d="M 34 248 L 196.7109375 248 L 196.7109375 292 L 34 292 L 34 248 Z Z" stroke-miterlimit="10"/></g><g transform="translate(-14,-134) scale(1,1)"><rect fill="#ffffff" stroke="none" x="24" y="255" width="20" height="10"/></g><g transform="translate(-14,-134) scale(1,1)"><path fill="none" stroke="#000000" d="M 24 255 L 44 255 L 44 265 L 24 265 L 24 255 Z Z" stroke-miterlimit="10"/></g><g transform="translate(-14,-134) scale(1,1)"><rect fill="#ffffff" stroke="none" x="24" y="275" width="20" height="10"/></g><g transform="translate(-14,-134) scale(1,1)"><path fill="none" stroke="#000000" d="M 24 275 L 44 275 L 44 285 L 24 285 L 24 275 Z Z" stroke-miterlimit="10"/></g><g transform="translate(-14,-134) scale(1,1)"><g><path fill="none" stroke="none"/><text fill="#000000" stroke="none" font-family="Arial" font-size="13px" font-style="normal" font-weight="bold" text-decoration="none" x="54.2255859375" y="267.5">FrontEnd_Bibliotheque</text></g></g><g transform="translate(-14,-134) scale(1,1)"><path fill="none" stroke="#000000" d="M 437 185 L 581 231" stroke-miterlimit="10" stroke-dasharray="3"/></g><g transform="translate(-14,-134) scale(1,1)"><path fill="none" stroke="#000000" d="M 570.0383252549411 231.91743489335076 L 581 231 L 572.600201020222 223.89764988899302" stroke-miterlimit="10"/></g><g transform="translate(-14,-134) scale(1,1)"><path fill="none" stroke="#000000" d="M 494 265 L 543 262" stroke-miterlimit="10" stroke-dasharray="3"/></g><g transform="translate(-14,-134) scale(1,1)"><path fill="none" stroke="#000000" d="M 533.1135627370187 266.8226920122618 L 543 262 L 532.599074944126 258.41939139501505" stroke-miterlimit="10"/></g><g transform="translate(-14,-134) scale(1,1)"><path fill="none" stroke="#000000" d="M 441 343 L 598 277" stroke-miterlimit="10" stroke-dasharray="3"/></g><g transform="translate(-14,-134) scale(1,1)"><path fill="none" stroke="#000000" d="M 590.2627969600236 284.81893145629124 L 598 277 L 587.0001518086392 277.05779071739187" stroke-miterlimit="10"/></g><g transform="translate(-14,-134) scale(1,1)"><path fill="none" stroke="#000000" d="M 169 247 L 319 189" stroke-miterlimit="10" stroke-dasharray="3"/></g><g transform="translate(-14,-134) scale(1,1)"><path fill="none" stroke="#000000" d="M 311.0393841510633 196.59135003182294 L 319 189 L 308.00309946493303 188.73888963665848" stroke-miterlimit="10"/></g><g transform="translate(-14,-134) scale(1,1)"><path fill="none" stroke="#000000" d="M 176 293 L 320 343" stroke-miterlimit="10" stroke-dasharray="3"/></g><g transform="translate(-14,-134) scale(1,1)"><path fill="none" stroke="#000000" d="M 309.0188176749197 343.64314441873057 L 320 343 L 311.7803597327232 335.68990329225653" stroke-miterlimit="10"/></g><g transform="translate(-14,-134) scale(1,1)"><path fill="#C0C0C0" stroke="none" d="M 290.621337890625 266.5 C 290.621337890625 260.1487248 295.770062690625 255 302.121337890625 255 C 308.472613090625 255 313.621337890625 260.1487248 313.621337890625 266.5 C 313.621337890625 272.8512752 308.472613090625 278 302.121337890625 278 C 295.770062690625 278 290.621337890625 272.8512752 290.621337890625 266.5 Z" opacity="0.2"/></g><g transform="translate(-14,-134) scale(1,1)"><path fill="none" stroke="#000000" d="M 297.78915968791785 270.1566387516713 A 11.5 11.5 0 0 1 292.21084031208215 247.84336124832868" stroke-miterlimit="10"/></g><g transform="translate(-14,-134) scale(1,1)"><path fill="#ffffff" stroke="none" d="M 286.621337890625 259.5 C 286.621337890625 254.8055792 290.426917090625 251 295.121337890625 251 C 299.815758690625 251 303.621337890625 254.8055792 303.621337890625 259.5 C 303.621337890625 264.1944208 299.815758690625 268 295.121337890625 268 C 290.426917090625 268 286.621337890625 264.1944208 286.621337890625 259.5 Z"/></g><g transform="translate(-14,-134) scale(1,1)"><path fill="none" stroke="#000000" d="M 286.621337890625 259.5 C 286.621337890625 254.8055792 290.426917090625 251 295.121337890625 251 C 299.815758690625 251 303.621337890625 254.8055792 303.621337890625 259.5 C 303.621337890625 264.1944208 299.815758690625 268 295.121337890625 268 C 290.426917090625 268 286.621337890625 264.1944208 286.621337890625 259.5 Z" stroke-miterlimit="10"/></g><g transform="translate(-14,-134) scale(1,1)"><g><path fill="none" stroke="none"/><text fill="#000000" stroke="none" font-family="Arial" font-size="13px" font-style="normal" font-weight="bold" text-decoration="none" x="255.7373046875" y="290.5">api_emprunts</text></g></g><g transform="translate(-14,-134) scale(1,1)"><path fill="none" stroke="#000000" d="M 351 271 L 306.621337890625 261.90533447265625" stroke-miterlimit="10"/></g><g transform="translate(-14,-134) scale(1,1)"><path fill="none" stroke="#000000" d="M 198 271 L 283.621337890625 261.84466552734375" stroke-miterlimit="10"/></g><g transform="translate(-14,-134) scale(1,1)"><path fill="#ffffff" stroke="none" d="M 72 344 L 134.9072265625 344 L 144.9072265625 354 L 144.9072265625 382 L 72 382 L 72 344"/></g><g transform="translate(-14,-134) scale(1,1)"><path fill="none" stroke="#000000" d="M 72 344 L 134.9072265625 344 L 144.9072265625 354 L 144.9072265625 382 L 72 382 L 72 344 L 72 344" stroke-miterlimit="10"/></g><g transform="translate(-14,-134) scale(1,1)"><path fill="none" stroke="#000000" d="M 134.9072265625 344 L 134.9072265625 354 L 144.9072265625 354 L 134.9072265625 344" stroke-miterlimit="10"/></g><g transform="translate(-14,-134) scale(1,1)"><g><path fill="none" stroke="none"/><text fill="#000000" stroke="none" font-family="Arial" font-size="13px" font-style="normal" font-weight="normal" text-decoration="none" x="77" y="362">en</text><text fill="#000000" stroke="none" font-family="Arial" font-size="13px" font-style="normal" font-weight="normal" text-decoration="none" x="77" y="375">javascript</text></g></g><g transform="translate(-14,-134) scale(1,1)"><path fill="none" stroke="#000000" d="M 108 343 L 110 293" stroke-miterlimit="10" stroke-dasharray="3"/></g><g transform="translate(-14,-134) scale(1,1)"><path fill="#ffffff" stroke="none" d="M 376 448 L 434 448 L 444 458 L 444 486 L 376 486 L 376 448"/></g><g transform="translate(-14,-134) scale(1,1)"><path fill="none" stroke="#000000" d="M 376 448 L 434 448 L 444 458 L 444 486 L 376 486 L 376 448 L 376 448" stroke-miterlimit="10"/></g><g transform="translate(-14,-134) scale(1,1)"><path fill="none" stroke="#000000" d="M 434 448 L 434 458 L 444 458 L 434 448" stroke-miterlimit="10"/></g><g transform="translate(-14,-134) scale(1,1)"><g><path fill="none" stroke="none"/><text fill="#000000" stroke="none" font-family="Arial" font-size="13px" font-style="normal" font-weight="normal" text-decoration="none" x="381" y="466">en java</text></g></g><g transform="translate(-14,-134) scale(1,1)"><path fill="none" stroke="#000000" d="M 405 447 L 391 389" stroke-miterlimit="10" stroke-dasharray="3"/></g><g transform="translate(-14,-134) scale(1,1)"><path fill="#C0C0C0" stroke="none" d="M 316.99814453125 511 L 344.43814453125 511 L 356.19814453124997 522.76 L 356.19814453124997 560 L 316.99814453125 560" opacity="0.2"/></g><g transform="translate(-14,-134) scale(1,1)"><path fill="#ffffff" stroke="none" d="M 309.99814453125 504 L 337.43814453125003 504 L 349.19814453125 515.76 L 349.19814453125 553 L 309.99814453125 553"/></g><g transform="translate(-14,-134) scale(1,1)"><path fill="none" stroke="#000000" d="M 309.99814453125 504 L 337.43814453125003 504 L 349.19814453125 515.76 L 349.19814453125 553 L 309.99814453125 553 L 309.99814453125 504" stroke-miterlimit="10"/></g><g transform="translate(-14,-134) scale(1,1)"><path fill="none" stroke="#000000" d="M 337.43814453125003 504 L 337.43814453125003 515.76 L 349.19814453125 515.76 L 337.43814453125003 504" stroke-miterlimit="10"/></g><g transform="translate(-14,-134) scale(1,1)"><g><path fill="none" stroke="none"/><text fill="#000000" stroke="none" font-family="Arial" font-size="13px" font-style="normal" font-weight="bold" text-decoration="none" x="280.819580078125" y="572.5">personnesApi.jar</text></g></g><g transform="translate(-14,-134) scale(1,1)"><path fill="none" stroke="#000000" d="M 341 503 L 379 389" stroke-miterlimit="10" stroke-dasharray="3"/></g></g></svg>