<svg version="1.1" xmlns="http://www.w3.org/2000/svg" xmlns:xlink="http://www.w3.org/1999/xlink" width="677.58447265625" height="451"><defs/><g><text fill="#eeeeee" stroke="none" font-family="Arial" font-size="24px" font-style="normal" font-weight="normal" text-decoration="none" x="0" y="0">UNREGISTERED</text><text fill="#eeeeee" stroke="none" font-family="Arial" font-size="24px" font-style="normal" font-weight="normal" text-decoration="none" x="0" y="30">UNREGISTERED</text><text fill="#eeeeee" stroke="none" font-family="Arial" font-size="24px" font-style="normal" font-weight="normal" text-decoration="none" x="0" y="60">UNREGISTERED</text><text fill="#eeeeee" stroke="none" font-family="Arial" font-size="24px" font-style="normal" font-weight="normal" text-decoration="none" x="0" y="90">UNREGISTERED</text><text fill="#eeeeee" stroke="none" font-family="Arial" font-size="24px" font-style="normal" font-weight="normal" text-decoration="none" x="0" y="120">UNREGISTERED</text><text fill="#eeeeee" stroke="none" font-family="Arial" font-size="24px" font-style="normal" font-weight="normal" text-decoration="none" x="0" y="150">UNREGISTERED</text><text fill="#eeeeee" stroke="none" font-family="Arial" font-size="24px" font-style="normal" font-weight="normal" text-decoration="none" x="0" y="180">UNREGISTERED</text><text fill="#eeeeee" stroke="none" font-family="Arial" font-size="24px" font-style="normal" font-weight="normal" text-decoration="none" x="0" y="210">UNREGISTERED</text><text fill="#eeeeee" stroke="none" font-family="Arial" font-size="24px" font-style="normal" font-weight="normal" text-decoration="none" x="0" y="240">UNREGISTERED</text><text fill="#eeeeee" stroke="none" font-family="Arial" font-size="24px" font-style="normal" font-weight="normal" text-decoration="none" x="0" y="270">UNREGISTERED</text><text fill="#eeeeee" stroke="none" font-family="Arial" font-size="24px" font-style="normal" font-weight="normal" text-decoration="none" x="0" y="300">UNREGISTERED</text><text fill="#eeeeee" stroke="none" font-family="Arial" font-size="24px" font-style="normal" font-weight="normal" text-decoration="none" x="0" y="330">UNREGISTERED</text><text fill="#eeeeee" stroke="none" font-family="Arial" font-size="24px" font-style="normal" font-weight="normal" text-decoration="none" x="0" y="360">UNREGISTERED</text><text fill="#eeeeee" stroke="none" font-family="Arial" font-size="24px" font-style="normal" font-weight="normal" text-decoration="none" x="0" y="390">UNREGISTERED</text><text fill="#eeeeee" stroke="none" font-family="Arial" font-size="24px" font-style="normal" font-weight="normal" text-decoration="none" x="0" y="420">UNREGISTERED</text><text fill="#eeeeee" stroke="none" font-family="Arial" font-size="24px" font-style="normal" font-weight="normal" text-decoration="none" x="0" y="450">UNREGISTERED</text><text fill="#eeeeee" stroke="none" font-family="Arial" font-size="24px" font-style="normal" font-weight="normal" text-decoration="none" x="200" y="0">UNREGISTERED</text><text fill="#eeeeee" stroke="none" font-family="Arial" font-size="24px" font-style="normal" font-weight="normal" text-decoration="none" x="200" y="30">UNREGISTERED</text><text fill="#eeeeee" stroke="none" font-family="Arial" font-size="24px" font-style="normal" font-weight="normal" text-decoration="none" x="200" y="60">UNREGISTERED</text><text fill="#eeeeee" stroke="none" font-family="Arial" font-size="24px" font-style="normal" font-weight="normal" text-decoration="none" x="200" y="90">UNREGISTERED</text><text fill="#eeeeee" stroke="none" font-family="Arial" font-size="24px" font-style="normal" font-weight="normal" text-decoration="none" x="200" y="120">UNREGISTERED</text><text fill="#eeeeee" stroke="none" font-family="Arial" font-size="24px" font-style="normal" font-weight="normal" text-decoration="none" x="200" y="150">UNREGISTERED</text><text fill="#eeeeee" stroke="none" font-family="Arial" font-size="24px" font-style="normal" font-weight="normal" text-decoration="none" x="200" y="180">UNREGISTERED</text><text fill="#eeeeee" stroke="none" font-family="Arial" font-size="24px" font-style="normal" font-weight="normal" text-decoration="none" x="200" y="210">UNREGISTERED</text><text fill="#eeeeee" stroke="none" font-family="Arial" font-size="24px" font-style="normal" font-weight="normal" text-decoration="none" x="200" y="240">UNREGISTERED</text><text fill="#eeeeee" stroke="none" font-family="Arial" font-size="24px" font-style="normal" font-weight="normal" text-decoration="none" x="200" y="270">UNREGISTERED</text><text fill="#eeeeee" stroke="none" font-family="Arial" font-size="24px" font-style="normal" font-weight="normal" text-decoration="none" x="200" y="300">UNREGISTERED</text><text fill="#eeeeee" stroke="none" font-family="Arial" font-size="24px" font-style="normal" font-weight="normal" text-decoration="none" x="200" y="330">UNREGISTERED</text><text fill="#eeeeee" stroke="none" font-family="Arial" font-size="24px" font-style="normal" font-weight="normal" text-decoration="none" x="200" y="360">UNREGISTERED</text><text fill="#eeeeee" stroke="none" font-family="Arial" font-size="24px" font-style="normal" font-weight="normal" text-decoration="none" x="200" y="390">UNREGISTERED</text><text fill="#eeeeee" stroke="none" font-family="Arial" font-size="24px" font-style="normal" font-weight="normal" text-decoration="none" x="200" y="420">UNREGISTERED</text><text fill="#eeeeee" stroke="none" font-family="Arial" font-size="24px" font-style="normal" font-weight="normal" text-decoration="none" x="200" y="450">UNREGISTERED</text><text fill="#eeeeee" stroke="none" font-family="Arial" font-size="24px" font-style="normal" font-weight="normal" text-decoration="none" x="400" y="0">UNREGISTERED</text><text fill="#eeeeee" stroke="none" font-family="Arial" font-size="24px" font-style="normal" font-weight="normal" text-decoration="none" x="400" y="30">UNREGISTERED</text><text fill="#eeeeee" stroke="none" font-family="Arial" font-size="24px" font-style="normal" font-weight="normal" text-decoration="none" x="400" y="60">UNREGISTERED</text><text fill="#eeeeee" stroke="none" font-family="Arial" font-size="24px" font-style="normal" font-weight="normal" text-decoration="none" x="400" y="90">UNREGISTERED</text><text fill="#eeeeee" stroke="none" font-family="Arial" font-size="24px" font-style="normal" font-weight="normal" text-decoration="none" x="400" y="120">UNREGISTERED</text><text fill="#eeeeee" stroke="none" font-family="Arial" font-size="24px" font-style="normal" font-weight="normal" text-decoration="none" x="400" y="150">UNREGISTERED</text><text fill="#eeeeee" stroke="none" font-family="Arial" font-size="24px" font-style="normal" font-weight="normal" text-decoration="none" x="400" y="180">UNREGISTERED</text><text fill="#eeeeee" stroke="none" font-family="Arial" font-size="24px" font-style="normal" font-weight="normal" text-decoration="none" x="400" y="210">UNREGISTERED</text><text fill="#eeeeee" stroke="none" font-family="Arial" font-size="24px" font-style="normal" font-weight="normal" text-decoration="none" x="400" y="240">UNREGISTERED</text><text fill="#eeeeee" stroke="none" font-family="Arial" font-size="24px" font-style="normal" font-weight="normal" text-decoration="none" x="400" y="270">UNREGISTERED</text><text fill="#eeeeee" stroke="none" font-family="Arial" font-size="24px" font-style="normal" font-weight="normal" text-decoration="none" x="400" y="300">UNREGISTERED</text><text fill="#eeeeee" stroke="none" font-family="Arial" font-size="24px" font-style="normal" font-weight="normal" text-decoration="none" x="400" y="330">UNREGISTERED</text><text fill="#eeeeee" stroke="none" font-family="Arial" font-size="24px" font-style="normal" font-weight="normal" text-decoration="none" x="400" y="360">UNREGISTERED</text><text fill="#eeeeee" stroke="none" font-family="Arial" font-size="24px" font-style="normal" font-weight="normal" text-decoration="none" x="400" y="390">UNREGISTERED</text><text fill="#eeeeee" stroke="none" font-family="Arial" font-size="24px" font-style="normal" font-weight="normal" text-decoration="none" x="400" y="420">UNREGISTERED</text><text fill="#eeeeee" stroke="none" font-family="Arial" font-size="24px" font-style="normal" font-weight="normal" text-decoration="none" x="400" y="450">UNREGISTERED</text><text fill="#eeeeee" stroke="none" font-family="Arial" font-size="24px" font-style="normal" font-weight="normal" text-decoration="none" x="600" y="0">UNREGISTERED</text><text fill="#eeeeee" stroke="none" font-family="Arial" font-size="24px" font-style="normal" font-weight="normal" text-decoration="none" x="600" y="30">UNREGISTERED</text><text fill="#eeeeee" stroke="none" font-family="Arial" font-size="24px" font-style="normal" font-weight="normal" text-decoration="none" x="600" y="60">UNREGISTERED</text><text fill="#eeeeee" stroke="none" font-family="Arial" font-size="24px" font-style="normal" font-weight="normal" text-decoration="none" x="600" y="90">UNREGISTERED</text><text fill="#eeeeee" stroke="none" font-family="Arial" font-size="24px" font-style="normal" font-weight="normal" text-decoration="none" x="600" y="120">UNREGISTERED</text><text fill="#eeeeee" stroke="none" font-family="Arial" font-size="24px" font-style="normal" font-weight="normal" text-decoration="none" x="600" y="150">UNREGISTERED</text><text fill="#eeeeee" stroke="none" font-family="Arial" font-size="24px" font-style="normal" font-weight="normal" text-decoration="none" x="600" y="180">UNREGISTERED</text><text fill="#eeeeee" stroke="none" font-family="Arial" font-size="24px" font-style="normal" font-weight="normal" text-decoration="none" x="600" y="210">UNREGISTERED</text><text fill="#eeeeee" stroke="none" font-family="Arial" font-size="24px" font-style="normal" font-weight="normal" text-decoration="none" x="600" y="240">UNREGISTERED</text><text fill="#eeeeee" stroke="none" font-family="Arial" font-size="24px" font-style="normal" font-weight="normal" text-decoration="none" x="600" y="270">UNREGISTERED</text><text fill="#eeeeee" stroke="none" font-family="Arial" font-size="24px" font-style="normal" font-weight="normal" text-decoration="none" x="600" y="300">UNREGISTERED</text><text fill="#eeeeee" stroke="none" font-family="Arial" font-size="24px" font-style="normal" font-weight="normal" text-decoration="none" x="600" y="330">UNREGISTERED</text><text fill="#eeeeee" stroke="none" font-family="Arial" font-size="24px" font-style="normal" font-weight="normal" text-decoration="none" x="600" y="360">UNREGISTERED</text><text fill="#eeeeee" stroke="none" font-family="Arial" font-size="24px" font-style="normal" font-weight="normal" text-decoration="none" x="600" y="390">UNREGISTERED</text><text fill="#eeeeee" stroke="none" font-family="Arial" font-size="24px" font-style="normal" font-weight="normal" text-decoration="none" x="600" y="420">UNREGISTERED</text><text fill="#eeeeee" stroke="none" font-family="Arial" font-size="24px" font-style="normal" font-weight="normal" text-decoration="none" x="600" y="450">UNREGISTERED</text><g transform="translate(-94,-6) scale(1,1)"><rect fill="#C0C0C0" stroke="none" x="311" y="95" width="287" height="311" opacity="0.2"/></g><g transform="translate(-94,-6) scale(1,1)"><rect fill="#ffffff" stroke="none" x="304" y="88" width="287" height="311"/></g><g transform="translate(-94,-6) scale(1,1)"><path fill="none" stroke="#000000" d="M 304 88 L 591 88 L 591 399 L 304 399 L 304 88 Z Z" stroke-miterlimit="10"/></g><g transform="translate(-94,-6) scale(1,1)"><g><path fill="none" stroke="none"/><text fill="#000000" stroke="none" font-family="Arial" font-size="13px" font-style="normal" font-weight="bold" text-decoration="none" x="388.95556640625" y="107.5">logiciel_bibliotheque</text></g></g><g transform="translate(-94,-6) scale(1,1)"><path fill="#ffffff" stroke="none" d="M 182.80388156960228 121.68 C 182.80388156960228 116.886167936 186.68972389454774 113 191.483154296875 113 C 196.27658469920226 113 200.16242702414772 116.886167936 200.16242702414772 121.68 C 200.16242702414772 126.473832064 196.27658469920226 130.36 191.483154296875 130.36 C 186.68972389454774 130.36 182.80388156960228 126.473832064 182.80388156960228 121.68 Z"/></g><g transform="translate(-94,-6) scale(1,1)"><path fill="none" stroke="#000000" d="M 182.80388156960228 121.68 C 182.80388156960228 116.886167936 186.68972389454774 113 191.483154296875 113 C 196.27658469920226 113 200.16242702414772 116.886167936 200.16242702414772 121.68 C 200.16242702414772 126.473832064 196.27658469920226 130.36 191.483154296875 130.36 C 186.68972389454774 130.36 182.80388156960228 126.473832064 182.80388156960228 121.68 Z" stroke-miterlimit="10"/></g><g transform="translate(-94,-6) scale(1,1)"><path fill="none" stroke="#000000" d="M 191.483154296875 130.36 L 191.483154296875 147.64" stroke-miterlimit="10"/></g><g transform="translate(-94,-6) scale(1,1)"><path fill="none" stroke="#000000" d="M 182.29333611505683 136.84 L 200.67297247869317 136.84" stroke-miterlimit="10"/></g><g transform="translate(-94,-6) scale(1,1)"><path fill="none" stroke="#000000" d="M 191.483154296875 147.64 L 178.71951793323865 165" stroke-miterlimit="10"/></g><g transform="translate(-94,-6) scale(1,1)"><path fill="none" stroke="#000000" d="M 191.483154296875 147.64 L 204.24679066051135 165" stroke-miterlimit="10"/></g><g transform="translate(-94,-6) scale(1,1)"><g><path fill="none" stroke="none"/><text fill="#000000" stroke="none" font-family="Arial" font-size="13px" font-style="normal" font-weight="bold" text-decoration="none" x="152.4609375" y="185.5">Bibliothecaire</text></g></g><g transform="translate(-94,-6) scale(1,1)"><path fill="#ffffff" stroke="none" d="M 164.01164524147728 377.68 C 164.01164524147728 372.886167936 167.89748756642274 369 172.69091796875 369 C 177.48434837107726 369 181.37019069602272 372.886167936 181.37019069602272 377.68 C 181.37019069602272 382.473832064 177.48434837107726 386.36 172.69091796875 386.36 C 167.89748756642274 386.36 164.01164524147728 382.473832064 164.01164524147728 377.68 Z"/></g><g transform="translate(-94,-6) scale(1,1)"><path fill="none" stroke="#000000" d="M 164.01164524147728 377.68 C 164.01164524147728 372.886167936 167.89748756642274 369 172.69091796875 369 C 177.48434837107726 369 181.37019069602272 372.886167936 181.37019069602272 377.68 C 181.37019069602272 382.473832064 177.48434837107726 386.36 172.69091796875 386.36 C 167.89748756642274 386.36 164.01164524147728 382.473832064 164.01164524147728 377.68 Z" stroke-miterlimit="10"/></g><g transform="translate(-94,-6) scale(1,1)"><path fill="none" stroke="#000000" d="M 172.69091796875 386.36 L 172.69091796875 403.64" stroke-miterlimit="10"/></g><g transform="translate(-94,-6) scale(1,1)"><path fill="none" stroke="#000000" d="M 163.50109978693183 392.84 L 181.88073615056817 392.84" stroke-miterlimit="10"/></g><g transform="translate(-94,-6) scale(1,1)"><path fill="none" stroke="#000000" d="M 172.69091796875 403.64 L 159.92728160511365 421" stroke-miterlimit="10"/></g><g transform="translate(-94,-6) scale(1,1)"><path fill="none" stroke="#000000" d="M 172.69091796875 403.64 L 185.45455433238635 421" stroke-miterlimit="10"/></g><g transform="translate(-94,-6) scale(1,1)"><g><path fill="none" stroke="none"/><text fill="#000000" stroke="none" font-family="Arial" font-size="13px" font-style="normal" font-weight="bold" text-decoration="none" x="150.280517578125" y="441.5">Abonné</text></g></g><g transform="translate(-94,-6) scale(1,1)"><path fill="#ffffff" stroke="none" d="M 179.99797336647728 241.68 C 179.99797336647728 236.886167936 183.88381569142274 233 188.67724609375 233 C 193.47067649607726 233 197.35651882102272 236.886167936 197.35651882102272 241.68 C 197.35651882102272 246.47383206400002 193.47067649607726 250.36 188.67724609375 250.36 C 183.88381569142274 250.36 179.99797336647728 246.47383206400002 179.99797336647728 241.68 Z"/></g><g transform="translate(-94,-6) scale(1,1)"><path fill="none" stroke="#000000" d="M 179.99797336647728 241.68 C 179.99797336647728 236.886167936 183.88381569142274 233 188.67724609375 233 C 193.47067649607726 233 197.35651882102272 236.886167936 197.35651882102272 241.68 C 197.35651882102272 246.47383206400002 193.47067649607726 250.36 188.67724609375 250.36 C 183.88381569142274 250.36 179.99797336647728 246.47383206400002 179.99797336647728 241.68 Z" stroke-miterlimit="10"/></g><g transform="translate(-94,-6) scale(1,1)"><path fill="none" stroke="#000000" d="M 188.67724609375 250.36 L 188.67724609375 267.64" stroke-miterlimit="10"/></g><g transform="translate(-94,-6) scale(1,1)"><path fill="none" stroke="#000000" d="M 179.48742791193183 256.84 L 197.86706427556817 256.84" stroke-miterlimit="10"/></g><g transform="translate(-94,-6) scale(1,1)"><path fill="none" stroke="#000000" d="M 188.67724609375 267.64 L 175.91360973011365 285" stroke-miterlimit="10"/></g><g transform="translate(-94,-6) scale(1,1)"><path fill="none" stroke="#000000" d="M 188.67724609375 267.64 L 201.44088245738635 285" stroke-miterlimit="10"/></g><g transform="translate(-94,-6) scale(1,1)"><g><path fill="none" stroke="none"/><text fill="#000000" stroke="none" font-family="Arial" font-size="13px" font-style="normal" font-weight="bold" text-decoration="none" x="113.873291015625" y="305.5">ResponsableAbonnement</text></g></g><g transform="translate(-94,-6) scale(1,1)"><path fill="#ffffff" stroke="none" d="M 684.1129636008523 225.68 C 684.1129636008523 220.886167936 687.9988059257977 217 692.792236328125 217 C 697.5856667304523 217 701.4715090553977 220.886167936 701.4715090553977 225.68 C 701.4715090553977 230.47383206400002 697.5856667304523 234.36 692.792236328125 234.36 C 687.9988059257977 234.36 684.1129636008523 230.47383206400002 684.1129636008523 225.68 Z"/></g><g transform="translate(-94,-6) scale(1,1)"><path fill="none" stroke="#000000" d="M 684.1129636008523 225.68 C 684.1129636008523 220.886167936 687.9988059257977 217 692.792236328125 217 C 697.5856667304523 217 701.4715090553977 220.886167936 701.4715090553977 225.68 C 701.4715090553977 230.47383206400002 697.5856667304523 234.36 692.792236328125 234.36 C 687.9988059257977 234.36 684.1129636008523 230.47383206400002 684.1129636008523 225.68 Z" stroke-miterlimit="10"/></g><g transform="translate(-94,-6) scale(1,1)"><path fill="none" stroke="#000000" d="M 692.792236328125 234.36 L 692.792236328125 251.64" stroke-miterlimit="10"/></g><g transform="translate(-94,-6) scale(1,1)"><path fill="none" stroke="#000000" d="M 683.6024181463068 240.84 L 701.9820545099432 240.84" stroke-miterlimit="10"/></g><g transform="translate(-94,-6) scale(1,1)"><path fill="none" stroke="#000000" d="M 692.792236328125 251.64 L 680.0285999644886 269" stroke-miterlimit="10"/></g><g transform="translate(-94,-6) scale(1,1)"><path fill="none" stroke="#000000" d="M 692.792236328125 251.64 L 705.5558726917614 269" stroke-miterlimit="10"/></g><g transform="translate(-94,-6) scale(1,1)"><g><path fill="none" stroke="none"/><text fill="#000000" stroke="none" font-family="Arial" font-size="13px" font-style="normal" font-weight="normal" text-decoration="none" x="642.20458984375" y="287.5">«logiciel externe»</text></g></g><g transform="translate(-94,-6) scale(1,1)"><g><path fill="none" stroke="none"/><text fill="#000000" stroke="none" font-family="Arial" font-size="13px" font-style="normal" font-weight="bold" text-decoration="none" x="634.622314453125" y="302.5">logiciel_comptabilité</text></g></g><g transform="translate(-94,-6) scale(1,1)"><g><path fill="none" stroke="none"/><text fill="#000000" stroke="none" font-family="Arial" font-size="13px" font-style="normal" font-weight="normal" text-decoration="none" x="213" y="34">Diagramme de use cases préliminaire , diagramme de contexte</text></g></g><g transform="translate(-94,-6) scale(1,1)"><path fill="#ffffff" stroke="none" d="M 256 112 L 469 112 L 479 122 L 479 190 L 256 190 L 256 112"/></g><g transform="translate(-94,-6) scale(1,1)"><path fill="none" stroke="#000000" d="M 256 112 L 469 112 L 479 122 L 479 190 L 256 190 L 256 112 L 256 112" stroke-miterlimit="10"/></g><g transform="translate(-94,-6) scale(1,1)"><path fill="none" stroke="#000000" d="M 469 112 L 469 122 L 479 122 L 469 112" stroke-miterlimit="10"/></g><g transform="translate(-94,-6) scale(1,1)"><g><path fill="none" stroke="none"/><text fill="#000000" stroke="none" font-family="Arial" font-size="13px" font-style="normal" font-weight="normal" text-decoration="none" x="261" y="130">- gérer debut emprunt</text></g></g><g transform="translate(-94,-6) scale(1,1)"><g><path fill="none" stroke="none"/><text fill="#000000" stroke="none" font-family="Arial" font-size="13px" font-style="normal" font-weight="normal" text-decoration="none" x="261" y="145">- gérer retour des livres empruntés</text></g></g><g transform="translate(-94,-6) scale(1,1)"><g><path fill="none" stroke="none"/><text fill="#000000" stroke="none" font-family="Arial" font-size="13px" font-style="normal" font-weight="normal" text-decoration="none" x="261" y="160">- enregistrer livre neuf</text></g></g><g transform="translate(-94,-6) scale(1,1)"><g><path fill="none" stroke="none"/><text fill="#000000" stroke="none" font-family="Arial" font-size="13px" font-style="normal" font-weight="normal" text-decoration="none" x="261" y="175">- réintégrer livre réparer</text></g></g><g transform="translate(-94,-6) scale(1,1)"><path fill="#ffffff" stroke="none" d="M 288 232 L 428 232 L 438 242 L 438 302 L 288 302 L 288 232"/></g><g transform="translate(-94,-6) scale(1,1)"><path fill="none" stroke="#000000" d="M 288 232 L 428 232 L 438 242 L 438 302 L 288 302 L 288 232 L 288 232" stroke-miterlimit="10"/></g><g transform="translate(-94,-6) scale(1,1)"><path fill="none" stroke="#000000" d="M 428 232 L 428 242 L 438 242 L 428 232" stroke-miterlimit="10"/></g><g transform="translate(-94,-6) scale(1,1)"><g><path fill="none" stroke="none"/><text fill="#000000" stroke="none" font-family="Arial" font-size="13px" font-style="normal" font-weight="normal" text-decoration="none" x="293" y="250">- gérer abonnement</text></g></g><g transform="translate(-94,-6) scale(1,1)"><g><path fill="none" stroke="none"/><text fill="#000000" stroke="none" font-family="Arial" font-size="13px" font-style="normal" font-weight="normal" text-decoration="none" x="293" y="265">- gérer contentieux</text></g></g><g transform="translate(-94,-6) scale(1,1)"><path fill="#ffffff" stroke="none" d="M 232 336 L 388 336 L 398 346 L 398 422 L 232 422 L 232 336"/></g><g transform="translate(-94,-6) scale(1,1)"><path fill="none" stroke="#000000" d="M 232 336 L 388 336 L 398 346 L 398 422 L 232 422 L 232 336 L 232 336" stroke-miterlimit="10"/></g><g transform="translate(-94,-6) scale(1,1)"><path fill="none" stroke="#000000" d="M 388 336 L 388 346 L 398 346 L 388 336" stroke-miterlimit="10"/></g><g transform="translate(-94,-6) scale(1,1)"><g><path fill="none" stroke="none"/><text fill="#000000" stroke="none" font-family="Arial" font-size="13px" font-style="normal" font-weight="normal" text-decoration="none" x="237" y="354">- consulter liste livres</text></g></g><g transform="translate(-94,-6) scale(1,1)"><g><path fill="none" stroke="none"/><text fill="#000000" stroke="none" font-family="Arial" font-size="13px" font-style="normal" font-weight="normal" text-decoration="none" x="237" y="369">- effectuer reservation</text></g></g><g transform="translate(-94,-6) scale(1,1)"><path fill="#ffffff" stroke="none" d="M 536 224 L 620 224 L 630 234 L 630 278 L 536 278 L 536 224"/></g><g transform="translate(-94,-6) scale(1,1)"><path fill="none" stroke="#000000" d="M 536 224 L 620 224 L 630 234 L 630 278 L 536 278 L 536 224 L 536 224" stroke-miterlimit="10"/></g><g transform="translate(-94,-6) scale(1,1)"><path fill="none" stroke="#000000" d="M 620 224 L 620 234 L 630 234 L 620 224" stroke-miterlimit="10"/></g><g transform="translate(-94,-6) scale(1,1)"><g><path fill="none" stroke="none"/><text fill="#000000" stroke="none" font-family="Arial" font-size="13px" font-style="normal" font-weight="normal" text-decoration="none" x="541" y="242">---&gt; avertir</text><text fill="#000000" stroke="none" font-family="Arial" font-size="13px" font-style="normal" font-weight="normal" text-decoration="none" x="541" y="255">nouvel achat</text></g></g></g></svg>